<svg xmlns="http://www.w3.org/2000/svg" xmlns:xlink="http://www.w3.org/1999/xlink" viewBox="0 0 1920 1080"><defs><style>.cls-1{fill:#aaab3a;}.cls-2,.cls-3{fill:#999;}.cls-3{stroke:#000;}.cls-26,.cls-27,.cls-28,.cls-29,.cls-3,.cls-30,.cls-6{stroke-miterlimit:10;}.cls-4{fill:#4c00aa;opacity:0.4;}.cls-5{fill:#603813;}.cls-6{stroke:#ffb900;fill:url(#Ikke-navngivet_forløb_118);}.cls-7{fill:#a67c52;}.cls-8{fill:#666;}.cls-9{fill:#fff;}.cls-10{fill:#3b2719;}.cls-11{fill:#333f88;}.cls-12{fill:#bdaf9b;}.cls-13{fill:#3fa9f5;}.cls-14{fill:#908477;}.cls-15,.cls-26{fill:#42210b;}.cls-16,.cls-30{fill:#006837;}.cls-17{fill:#009a00;}.cls-18{fill:#008900;}.cls-19{fill:#050;}.cls-20{fill:#745500;}.cls-21{fill:#ff0;}.cls-22{fill:lime;}.cls-23{opacity:0.49;}.cls-24,.cls-35{font-size:40px;}.cls-24,.cls-35,.cls-39,.cls-40{font-family:Active-Regular, Active;}.cls-25{letter-spacing:-0.05em;}.cls-26{stroke:#42210b;}.cls-26,.cls-27,.cls-28,.cls-29,.cls-30{stroke-width:2px;}.cls-27{fill:#f7931e;stroke:#f7931e;}.cls-28{fill:#fcee21;stroke:#ff0;}.cls-29,.cls-34{fill:red;}.cls-29{stroke:red;}.cls-30{stroke:#006837;}.cls-31{fill:#ffdeb4;}.cls-32{fill:#2e3192;}.cls-33{fill:#fbb03b;}.cls-35{letter-spacing:-0.02em;}.cls-36{letter-spacing:0em;}.cls-37{fill:#009245;}.cls-38{fill:#4d4d4d;}.cls-39{font-size:86px;}.cls-40{font-size:53px;}</style><radialGradient id="Ikke-navngivet_forløb_118" cx="622.5" cy="264.5" r="159.5" gradientUnits="userSpaceOnUse"><stop offset="0" stop-color="#cce0f4"/><stop offset="0" stop-color="#cfe1eb"/><stop offset="0.01" stop-color="#d7e5d1"/><stop offset="0.02" stop-color="#e4eca8"/><stop offset="0.02" stop-color="#f7f56f"/><stop offset="0.03" stop-color="#fff955"/><stop offset="0.12" stop-color="#ffef53"/><stop offset="0.27" stop-color="#ffd34d"/><stop offset="0.47" stop-color="#ffa644"/><stop offset="0.57" stop-color="#ff8c3f"/><stop offset="0.87" stop-color="#ffb200"/><stop offset="0.99" stop-color="#ff823f"/></radialGradient></defs><g id="Lag_9" data-name="Lag 9"><rect class="cls-1" x="-6" width="1924" height="1080"/><polygon class="cls-2" points="269 1079 -19 1079 -15 791 223 791 269 1079"/><polygon class="cls-3" points="557.3 1079.5 269.3 1079.5 217.3 791.5 511.3 791.5 557.3 1079.5"/><polygon class="cls-3" points="842.31 1079.5 554.31 1079.5 502.31 791.5 796.31 791.5 842.31 1079.5"/><polygon class="cls-3" points="1130.31 1079.5 842.31 1079.5 790.31 791.5 1084.31 791.5 1130.31 1079.5"/><polygon class="cls-3" points="1414.31 1079.5 1126.31 1079.5 1074.31 791.5 1368.31 791.5 1414.31 1079.5"/><polygon class="cls-3" points="1698.31 1079.5 1410.31 1079.5 1358.31 791.5 1652.31 791.5 1698.31 1079.5"/><polygon class="cls-3" points="1918.5 1080.5 1698.31 1079.5 1646.31 791.5 1918.5 791.5 1918.5 1080.5"/><rect class="cls-4" x="2" width="390" height="1080"/><polygon class="cls-5" points="785 105 460 105 452 94 793 94 785 105"/><polygon class="cls-5" points="782 428.11 782 103.11 793 95.11 793 436.11 782 428.11"/><polygon class="cls-5" points="460.48 425 785.48 425 793.48 436 452.48 436 460.48 425"/><polygon class="cls-5" points="463 101.3 463 426.3 452 434.3 452 93.3 463 101.3"/><rect class="cls-6" x="463" y="105" width="319" height="319"/><rect class="cls-7" x="463" y="343" width="319" height="82"/><polygon class="cls-8" points="782 343 782.15 236.14 705.58 114.16 618 282 562.43 205.26 463 276 463 343 782 343"/><circle class="cls-9" cx="675.89" cy="328.42" r="0.64"/><path class="cls-10" d="M678.6,393.14H703c14.25,11.22-34.78,27.24-27,7.61Z"/><path class="cls-10" d="M677.49,393.14l-17.63,3.21c-12.81,3.52-6.08,17.94,15.06,9.29Z"/><path class="cls-11" d="M638.8,368.52c18.5,44.49,67.21,40.32,83.22,0Z"/><path class="cls-12" d="M631.54,357.73c-9.81,19.39,7.82,22.92,11,10.42l-11-10.42"/><path class="cls-12" d="M708,357.73c7.61,26.76,29.4,12.34,17.06-6.34Z"/><path class="cls-12" d="M652.24,326.34c-5.83-2.09,1.54-9.78,4.42-3.95Z"/><path class="cls-12" d="M706,324.7c5.11-5.9,10.88.19,3.49,4.21Z"/><path class="cls-13" d="M629.1,352.13c3.79-10.76,9.74-19.26,19.67-23.57l66.53,2.1c7.41,6.32,13.28,12.71,15.7,19.22a42.43,42.43,0,0,1-20.83,10.9q-.31,3.41,4.46,8.77c-23.48,6.44-48,6-73.26,0-2.28.5-3.2-1-3-4.6C634.21,362.32,631,358.17,629.1,352.13Z"/><path class="cls-12" d="M659.1,320.25l-10.33,9.05c21.33,15.34,50.61,15.58,65.86,2.44-2.82-4.6-7.69-9.45-14.39-14.54Z"/><path class="cls-5" d="M668.52,307.74c-14.3-3.05-25.7,15.13-2.89,9-3.13,1.39-4.84,2.57-5.42,3.47-1.73,2.7,6.7,2.94,17.28-.9,5.64,5.25,12,5.25,18.9.32,24.68,2.88,16.67-17-11.69-9.86C704.08,301.65,672.68,294.6,668.52,307.74Z"/><circle cx="675.89" cy="328.1" r="2.56"/><circle cx="689.34" cy="328.1" r="2.56"/><circle class="cls-9" cx="689.98" cy="328.1" r="0.64"/><circle class="cls-9" cx="676.37" cy="328.26" r="0.48"/><path class="cls-14" d="M673,329.06c1.12,4.56,4.85.9,5.77,0"/><path class="cls-14" d="M686.78,329.06c1.12,4.56,4.85.9,5.77,0"/><path class="cls-9" d="M674.83,335.5a22.59,22.59,0,0,0,16.21,0Z"/><path class="cls-15" d="M521.72,226.21c22.52,64,38.75,123.41,35.23,168.79H572.4c-6.54-64.71-6.56-123.87,10.14-168.79H564.43a94,94,0,0,0-8,46.59c-.7-4.57-22.62-49.26-19.55-46.59"/><path class="cls-16" d="M553.7,235.85c-2.83,34.19-52.43,16.48-45.51,0-32.43,16.48-46.61-28.87-23.92-34.11-34-6.1-8.51-62.08,17-35.86-14.88-31.18,46.77-43.94,41.1-15.59,5-20.55,34-19.13,34,2.12,12.76-22.67,35.78-15.83,41.1,2.13,24.09-24.09,65.9,48.9,16.43,41.18,23.25,10.55-1.55,47.4-10.42,40,5.33,10.22-17.35,20.14-23.92,10.2C589.14,260.83,555.83,256.58,553.7,235.85Z"/></g><g id="tekst"><path class="cls-17" d="M1626,702c-18-12.89-18.26-40.77-18-96,.27-57,.52-112.13,21-118,29-8.31,76.46,88.59,81,98,17.87,37,29,60.08,19,83C1713.45,704.65,1654.49,722.37,1626,702Z"/><path class="cls-17" d="M1750,686c-12.48-34.46,8.13-67.42,31-104,25.93-41.47,71.09-91.79,87-83,5.54,3.06,7.27,13.15-2,65-19.29,107.93-29.21,163.41-58,169C1786,737.27,1759.13,711.22,1750,686Z"/><path class="cls-18" d="M1574,853c-10.56-7.34-29.27-23.5-59-137-15.69-59.89-38.53-147.1-22-154,12-5,41.57,33.52,55,51,23.26,30.29,33,54,39,52,4.66-1.56,1.62-17,3-54,1.07-28.61,1.71-43,7-45,11.31-4.38,40.33,30,56,69,13.47,33.5,12,57.67,18,58,8.65.48,10.15-49.41,36-100,7.1-13.89,38.17-82.36,64-78,18.67,3.16,29.73,43.47,31,71,1.42,30.83-9,55-6,56,3.28,1.13,11.09-29.09,37-56,7.76-8,33.9-35.2,50-29,27.9,10.74,10.46,115.74,8,130-11.5,66.55-20.46,118.45-64,152-34.35,26.47-72.38,27.77-138,30C1630.56,871,1601.34,872,1574,853Z"/><path class="cls-19" d="M1622,855c-29.4-18.31-33.78-59.4-38-99-5.18-48.62-.09-113.82,18-117,14.2-2.5,34.08,33.62,42,48,14.49,26.32,20.56,49.92,25,49,3.44-.71.37-15,8-35,3-8,8.65-22.65,16-23,14.3-.68,23.68,53.21,33,52,5.73-.74,5.24-21.54,12-51,5.92-25.79,14.16-61.73,26-63,23.34-2.49,59.13,129.84,39,209-3.24,12.73-7.91,24-18,32-16.46,13-35.17,7.4-81,4C1639.75,856.24,1636.87,864.26,1622,855Z"/><path class="cls-17" d="M1659.67,930.05c-13.39-9.57-13.57-30.29-13.37-71.33.19-42.36.38-83.32,15.6-87.67,21.56-6.18,56.81,65.82,60.18,72.81,13.28,27.51,21.55,44.64,14.12,61.67C1724.65,932,1680.84,945.19,1659.67,930.05Z"/><path class="cls-17" d="M1691.15,882.15c-8.74-24.14,5.7-47.22,21.72-72.85,18.16-29,49.79-64.29,60.94-58.14,3.88,2.15,5.09,9.21-1.4,45.53-13.51,75.61-20.46,114.47-40.63,118.38C1716.37,918.07,1697.55,899.82,1691.15,882.15Z"/><rect class="cls-20" x="1573.6" y="853.28" width="253.1" height="47.58"/><polygon class="cls-20" points="1597 892 1639 1032 1764.43 1032 1796.8 892 1597 892"/><path class="cls-17" d="M1471.14,832.28c-11-7.85-11.12-24.84-11-58.49.17-34.75.32-68.33,12.8-71.9,17.68-5.07,46.59,54,49.36,59.71,10.89,22.56,17.67,36.61,11.57,50.58C1524.43,833.9,1488.5,844.7,1471.14,832.28Z"/><path class="cls-17" d="M1546.7,822.53c-7.6-21,5-41.08,18.89-63.37,15.8-25.26,43.31-55.93,53-50.57,3.38,1.87,4.43,8-1.22,39.61-11.75,65.76-17.79,99.57-35.34,103C1568.63,853.78,1552.26,837.9,1546.7,822.53Z"/><path class="cls-18" d="M1439.46,924.29c-6.44-4.47-17.84-14.32-36-83.48C1394,804.32,1380,751.18,1390.1,747c7.31-3.05,25.33,20.42,33.51,31.07,14.18,18.46,20.13,32.9,23.77,31.69,2.84-1,1-10.33,1.83-32.91.65-17.43,1-26.17,4.26-27.42,6.89-2.67,24.58,18.32,34.12,42.05,8.21,20.41,7.3,35.14,11,35.34,5.27.29,6.18-30.1,21.94-60.93,4.32-8.47,23.26-50.19,39-47.53,11.37,1.92,18.11,26.49,18.88,43.26.87,18.79-5.49,33.49-3.65,34.12,2,.7,6.75-17.72,22.54-34.12,4.73-4.91,20.66-21.45,30.47-17.67,17,6.55,6.38,70.52,4.88,79.21-7,40.56-12.47,72.18-39,92.62-20.93,16.13-44.11,16.92-84.09,18.28C1473.92,935.26,1456.12,935.86,1439.46,924.29Z"/><path class="cls-19" d="M1468.7,925.51c-17.91-11.15-20.58-36.19-23.15-60.32-3.16-29.63-.06-69.36,11-71.29,8.65-1.52,20.76,20.48,25.59,29.24,8.83,16,12.53,30.42,15.23,29.86,2.1-.43.23-9.15,4.88-21.33,1.86-4.87,5.27-13.8,9.75-14,8.71-.42,14.43,32.42,20.11,31.69,3.49-.46,3.19-13.13,7.31-31.08,3.6-15.72,8.62-37.62,15.84-38.39,14.22-1.52,36,79.12,23.76,127.35-2,7.76-4.81,14.65-11,19.5-10,7.91-21.43,4.51-49.36,2.44C1479.52,926.27,1477.77,931.15,1468.7,925.51Z"/><path class="cls-17" d="M1491.66,971.24c-8.16-5.83-8.27-18.45-8.15-43.46.12-25.81.24-50.77,9.51-53.42,13.13-3.77,34.61,40.11,36.67,44.37,8.09,16.76,13.13,27.2,8.6,37.57C1531.25,972.45,1504.56,980.47,1491.66,971.24Z"/><path class="cls-17" d="M1510.84,942.06c-5.32-14.71,3.47-28.78,13.23-44.39,11.07-17.7,30.35-39.18,37.14-35.43,2.36,1.31,3.1,5.61-.86,27.74-8.23,46.07-12.46,69.75-24.75,72.14C1526.21,963.94,1514.74,952.82,1510.84,942.06Z"/><rect class="cls-20" x="1439.21" y="924.47" width="154.22" height="28.99"/><polygon class="cls-20" points="1453.47 948.06 1479.06 1033.36 1555.49 1033.36 1575.22 948.06 1453.47 948.06"/><path class="cls-21" d="M310.76,587.52l-16.18-5-4.81,15.72,16.18,5C320.09,607.56,326.81,592.43,310.76,587.52Z"/><path class="cls-22" d="M278.41,577.6c-16.12-4.61-20.94,10.76-4.82,15.71l16.18,5,4.81-15.71Z"/><g class="cls-23"><ellipse class="cls-9" cx="271.32" cy="586.51" rx="1.73" ry="1.78" transform="translate(-368.97 673.95) rotate(-72.95)"/></g><text class="cls-24" transform="translate(329.19 601.41)"><tspan class="cls-25">+</tspan><tspan x="15.28" y="0">3</tspan></text><path class="cls-26" d="M280.68,645.77c-2.86,2.16-2.62,4.31.72,6.48L300.87,656l17.61-2.86c5.1-1.57,4.88-3.47,2.32-5.52Z"/><path class="cls-27" d="M321.36,651.82c-4.54,9.41-35.72,10.22-41.16-.37C280.2,651.45,308.57,655.47,321.36,651.82Z"/><path class="cls-28" d="M282.82,641.75,276,647.32c4.89-.55,8.15.27,10.22,2.08a12.55,12.55,0,0,1,7.22,3.43l1.49,1.77a24.79,24.79,0,0,1,8.42-4.14,101,101,0,0,1,21.87-.36c.22-2.79-1.94-4.85-5-6.63Z"/><path class="cls-29" d="M284.11,642.4c-.31,11.15,33.65,9.11,33.05.55Z"/><path class="cls-30" d="M279.91,637.21h-1v.38l-.78.66.3.26c.6.52.9.52.9.52v.52H278.1l-.6.26s.3,0,0,.41l-.3.37h0v.28c0,.24,0,.07-.32.41a1.09,1.09,0,0,0-.28.61v.29s.08.3.49,0a1.34,1.34,0,0,1,.71-.3s.3-.19.45.42l.15.62h.34l1.17-.21c0,.47-.31-.05,0,.47l.3.52h0s.59-.26.75,0,1.38.26,1.52,0,.74-1,.74-1-.79.28-.4.53-.2-.53.4.25.9.78.9.78h1.05l1-.26.61-.52.3.26.3.26s.09,0,.5.26l.4.26h.42v-.33l.48-.45a.46.46,0,0,1,.6,0c.3.26.3-.52.3.26v.78h.76l.74-.26s-.6,0,0-.39l.6-.38h0s0-.52.3.25a1.25,1.25,0,0,0,1.12.78H295l.51-.25c.3,1,0,.77.3,1l.3.26,1.58.52h.55l.57-.51.6-.26s0-.26.3,0,1.06.12,1.06.12-.45,0,0-.3.45-1.38.45-.34v1l.6-.26.6-.26v-.24l.3,0s-.3-.26.3,0,0-.26.6.26l.6.52h.6l.3-.52s.3,0,.3-.26V645l.61-.52.3.26c.6.52.9.52.9.52h.3l.6-.51.3-.26.3-.26s0-.26.3,0a1,1,0,0,0,.6.26l.3.26s0,.52.3.52h.3l.6.26h.9a1,1,0,0,0,.61-.26l.3-.26v-.26l.6.26.6-.26.3-1.3h0a18,18,0,0,1,1.8,1.3h.3a.27.27,0,0,0,.3.26c.3,0-.3-.26.3,0a1.68,1.68,0,0,0,1.21,0l.6-.25.3-.52h0c.6.26.3.14.6.46l.3.32,1.2-.32v-.59l.3-.13.64-.23.26.23c.3.26.6.26.6,0s-.6-.28,0-.53a2,2,0,0,0,.91-1,1.65,1.65,0,0,0,.9.26l.3-.52a3.44,3.44,0,0,0-.74-.87s-1,.18.34,0l1.3-.17v-.29s.3.28,0-.36l-.3-.65v-.25l.44-.23v-.3s.16-.25-.74-.25a1.94,1.94,0,0,0-1.2.26h-.6v-.25s.3,0,.3-.26a.88.88,0,0,0-.3-.52h-.6c-.3,0,.6-.52-.3,0l-.9.51h-.6Z"/><path class="cls-27" d="M280.21,637.21c-.89-14,46.59-12.92,41.77.82l-.91.77-1.2-.28-.9,0-.43.26-.17.52a4.44,4.44,0,0,1-.9.52h-1.2v-.26l-.3-.52h-.91v.52l-.17.25h-.73c-.3.26-.6,0-.6.26s.3,0,0,.26,0,.26-.3.26h-1.8a.88.88,0,0,1-.3-.52v-.26h0l-.6.26h0a.27.27,0,0,0-.3-.26H310l-.3.26a1.11,1.11,0,0,0-.61-.26c-.3,0,0-.26-.3,0s0,.26-.3.26,0-.52-.3,0,0,.26-.3.52l-.3.26H306.4c-.35-.25-.65-.51-.65-.51s0-.52-.3-.26l-.3.26-.6-.26-.6.25s.3-.25-.3,0a1.7,1.7,0,0,0-.77.52c-.44.26-.48,0-.48,0l-.56-.26s.3-.26,0-.26h-.9l-.3.26-.3.26a.24.24,0,0,1-.35.11l-.25-.11-.37.15-.53-.41s0,.26-.3,0a1,1,0,0,0-.6-.26c-.3.26-.6,0-.6.26s0,.29-.32.4a1,1,0,0,1-.62,0,1.1,1.1,0,0,0-.34,0c-.23.07-.28.2-.56,0a6.71,6.71,0,0,0-.87-.45l-.3-.26a1,1,0,0,1-.6.25c-.3,0,0-.25-.3,0a1,1,0,0,1-.6.26l-.36.3a.36.36,0,0,1-.55,0c-.29-.3-.59-.56-.59-.56l-.3-.26-1.51-.52-.6.26H288s-.9.26-.9,0v-.26h-.9l-.3-.26H285l-.3-.52-.3-.26h-.91a.27.27,0,0,1-.3.26c-.3,0,0-.26-.3,0l-.3.26s-.6.26-.6,0V639l-.3-.52-.3-.26-.3-.26-.3-.26h0l-.61-.26Z"/><path class="cls-15" d="M252.49,606.88a10.93,10.93,0,0,1,8.3.11c-.38,10,2,18,1.32,27,1.71,1.28,4,5.15,3.89,10.21L266,673.71c2.94,6.76-22.72,8.34-20.31-.28l.27-29.59a13.43,13.43,0,0,1,4.1-9.59C249.94,624.13,252.2,616.06,252.49,606.88Z"/><rect class="cls-31" x="245.73" y="644.01" width="20.32" height="16.93" rx="4.17" transform="translate(9.04 -3.47) rotate(0.79)"/><path class="cls-32" d="M248.56,652.18c.14,0,.15,0,.17.08a5.93,5.93,0,0,0,.56,1.5.74.74,0,0,0,.63.37c.43,0,.64-.28.65-.72s-.12-.71-.77-1a2,2,0,0,1-1.4-2c0-1.09.9-1.76,2.37-1.74a2.87,2.87,0,0,1,.75.1c.12,0,.13,0,.13.21l0,1.39c0,.07,0,.08-.16.08s-.16,0-.17-.08a4.39,4.39,0,0,0-.36-1.05.64.64,0,0,0-.55-.31c-.31,0-.53.21-.54.65s.14.72.69,1c1,.53,1.42,1.09,1.41,1.92a1.9,1.9,0,0,1-2.08,1.94,4.26,4.26,0,0,1-1.45-.26c-.12,0-.13-.06-.13-.22,0-.49.08-1.55.11-1.74S248.42,652.18,248.56,652.18Z"/><path class="cls-32" d="M254.13,650.39c1.05,0,1.75.79,1.74,2.07a1.86,1.86,0,0,1-1.92,2.07,1.79,1.79,0,0,1-1.73-2.06A1.87,1.87,0,0,1,254.13,650.39Zm0,3.74c.07.09.12.12.18.12s.23-.1.23-.52a8.51,8.51,0,0,0-.58-2.93.22.22,0,0,0-.19-.12c-.12,0-.22.1-.22.51A8.29,8.29,0,0,0,254.13,654.13Z"/><path class="cls-32" d="M260,654c0,.13,0,.15,0,.15-.36.09-.84.24-1.29.4a.2.2,0,0,1-.21-.11,6.46,6.46,0,0,1-.11-.77c-.21.6-.56.88-1,.87-.63,0-1.24-.82-1.22-2.14s.68-2,1.67-2a1.46,1.46,0,0,1,.53.1l0-1.17c0-.08,0-.09-.07-.11l-.21-.06s0,0,0-.17,0-.15.05-.15c.45-.11,1.06-.28,1.49-.42l.07,0s.15.07.15.12-.05.67-.07,1.63l-.05,3.51c0,.07,0,.09.07.11l.21.06S260,653.9,260,654Zm-1.76-.44a.06.06,0,0,0,.07,0v-.93a3.77,3.77,0,0,0-.41-1.81.26.26,0,0,0-.21-.14c-.13,0-.21.15-.22.45a5.08,5.08,0,0,0,.62,2.37C258.19,653.59,258.23,653.6,258.27,653.6Z"/><path class="cls-32" d="M261.86,653.65c-.2.62-.57,1-1,1s-.77-.5-.76-1.11a1,1,0,0,1,.44-1,4.45,4.45,0,0,1,1.31-.51v-.25c0-.57-.12-.92-.35-.92-.06,0-.08,0-.1.12l0,.38c-.07.56-.33.83-.66.82s-.35-.15-.35-.44A1.69,1.69,0,0,1,262,650.5a1.05,1.05,0,0,1,1.18,1.2l0,1.45c0,.62.09.64.25.5l0,0s.14.17.14.22a.19.19,0,0,1-.06.12l0,0c-.36.47-.62.66-.92.65S262,654.33,261.86,653.65Zm0-.12V653a.57.57,0,0,0-.12-.39.32.32,0,0,0-.23-.16c-.12,0-.17.1-.18.33,0,.44.22.83.42.83A.14.14,0,0,0,261.82,653.53Z"/><path class="cls-33" d="M205.69,636.85a11.19,11.19,0,0,0-3.8-3.86l1.82-1.7c2.11,2.11,3.64,4.21,3.83,6.26l-.45-4.19,1,0c.06-1.45-2-3.14-4.31-4.84l1.94-1.77a8.57,8.57,0,0,1,3,3.88l-.56-3.2,2.22,0,0,1.06,1.48-.1a3.6,3.6,0,0,1,.44-2.73l1.49.21.09,4.07.24-.12.18-3.22,1.73,0,.07,3.38a7.44,7.44,0,0,1,2.16-4.41l1.68,0c-.8,1-1.18,1.83-.92,2.24l1.48,0,0-1.52h1.73l.05,2.3.74-.1-.09-4,2.15-.05-.3,5.23c-.1-2,.15-3.46.89-4.22l1.73,0a8.18,8.18,0,0,0-.65,4l.46-1.5,2,0,.07,3.27a12.81,12.81,0,0,1,2.84-5.8l1.5,1c-.7,1-1.37,2-1.17,2.74l2.46-.55c-.48,1.45-.86,2.57-1.16,3.49l1.19-1.93,1.4.61a13.09,13.09,0,0,0-2.5,5.51l-3.8,7-3.61,4-6.86,4.94L214.37,649l-5.81-5.55-2.05-3.16Z"/><path class="cls-34" d="M203.23,637.65l3.73-.09,2,3.66,2.3,3.16,2.25,1.43,2.79,2.16,2.74,1.67,3.64-1.81,2.45-2.28,2.62-2.28,1.71-2.76,1.66-3.49,3.39-.08L231.74,663c-7.41,4.3-15.35,5-24,.54Z"/><text class="cls-35" transform="translate(332.32 657.85)">+<tspan class="cls-36" x="16.48" y="0">1</tspan></text><path class="cls-37" d="M286,710.65c3.77,5.15,6.67,10.19,6.56,14.93l-.33,5.53c6,3.29,11.19,3.6,14.8-1.22a53.73,53.73,0,0,1,5.22-23.21,8.28,8.28,0,0,1-4.84,1.44c-.77,3.09-2,5.36-3.86,6.46a10.19,10.19,0,0,1-1.83-7.76,6.27,6.27,0,0,1-6.3-.19c.19.7.1,1-.45.74a35.21,35.21,0,0,1-.17,9.55,28.47,28.47,0,0,1-5.46-7.79C288.82,710.14,287.69,710.63,286,710.65Z"/><path class="cls-16" d="M282.38,709.49q4.58,3.39,7.68-.5c2.81,1.52,4.71.91,5.75-1.77,2.69,1.86,5.15,1.66,7.32-.89,2.83,2.09,5.93,2.3,9.32.56,1,.67,2,.29,3.1-.39,4.71-.29,6.52-2.43,5.18-6.58,4.53-2.21,3-12-4-10.56,1.88-2.56-3.7-5.19-6.58-1.93-.55-1-1.41-1.6-3.19-.95,2.2-4.84-8.95-7-10.78-2a4.22,4.22,0,0,0-4.11,1.48c.07-4.21-10.57-2.17-9.17,3.08-2.19-1.66-4.95-.3-4.95,2.76-6.54-2.5-9.82,10.69-4.45,10.44C268.18,705.56,278.65,716,282.38,709.49Z"/><path class="cls-16" d="M240.55,689.35l-3.64,4.43L231.79,727c.13,1.19.49,2.14,2.62,2.23-.19,3.31,19.13,7,19.63,3.77,1.94.22,3.21-.29,3.74-1.6l5.72-33-2.16-5.83C263.7,690.22,240.44,685.29,240.55,689.35Z"/><ellipse class="cls-2" cx="251.01" cy="690.5" rx="2.1" ry="10.51" transform="translate(-469.66 833.41) rotate(-81.24)"/><ellipse class="cls-38" cx="251.08" cy="691.44" rx="0.67" ry="2.35" transform="translate(-470.54 834.28) rotate(-81.24)"/><ellipse class="cls-8" cx="251.29" cy="690.07" rx="1.39" ry="0.94" transform="translate(-469.01 833.33) rotate(-81.24)"/><path class="cls-5" d="M241.51,712.8c-.56-.09-1.34-.27-1.83-.34l-.36-.06c-1.07-.16-1.55-.18-1.73-.21s-.06,0,0-.17,0-.17.09-.17H238c.09,0,.1,0,.12-.09l.74-4.8c0-.08,0-.1-.08-.13l-.35-.11c-.05,0-.06,0,0-.18s0-.16.09-.16.69.17,1.77.33l.31,0c.57.09,1.09.11,1.72.21,1.21.19,1.79.83,1.69,1.53a1.41,1.41,0,0,1-1.56,1.11v0c1.09.24,1.69,1,1.55,1.88S242.82,713,241.51,712.8Zm-.83-3-.12,0-.28,1.84a.58.58,0,0,0,.07.48.72.72,0,0,0,.41.2c.45.07.76-.23.85-.82A1.38,1.38,0,0,0,240.68,709.8Zm.41-2.63h0c-.08,0-.1,0-.11.08l-.34,2.19.19,0c.48.08.82-.33.9-.89S241.62,707.25,241.09,707.17Z"/><path class="cls-5" d="M246.49,711a2.56,2.56,0,0,0,.41,1.09,1,1,0,0,0,.76.5,1.18,1.18,0,0,0,.83-.2c.08,0,.26.13.22.2a2.35,2.35,0,0,1-2.32,1,2,2,0,0,1-1.81-2.38,2.17,2.17,0,0,1,2.73-1.75c1.21.18,1.77.85,1.65,1.61a1.3,1.3,0,0,1,0,.21.11.11,0,0,1-.1,0C248.18,711.28,247.26,711.15,246.49,711Zm.89-.79c.05-.3-.06-.48-.28-.51s-.53.14-.61.61a2.86,2.86,0,0,0,0,.51h.26C247.11,710.86,247.32,710.62,247.38,710.22Z"/><path class="cls-5" d="M251.15,711.73a2.56,2.56,0,0,0,.41,1.09,1.07,1.07,0,0,0,.76.5,1.17,1.17,0,0,0,.83-.2c.08-.06.26.13.22.2a2.37,2.37,0,0,1-2.32,1,2,2,0,0,1-1.81-2.39,2.17,2.17,0,0,1,2.73-1.74c1.21.18,1.77.85,1.65,1.61a1,1,0,0,1,0,.2.11.11,0,0,1-.1.05C252.84,712,251.92,711.87,251.15,711.73Zm.89-.79c.05-.3,0-.48-.28-.52s-.53.15-.61.62a4.26,4.26,0,0,0,0,.51h.26C251.77,711.58,252,711.34,252,710.94Z"/><path class="cls-5" d="M258.14,712c-.11.75-.61,1-1,1a.77.77,0,0,1-.42-.23.93.93,0,0,0-.43-.28h-.11l-.31,2c0,.08,0,.1.08.12l.51.13s.06,0,0,.19,0,.16-.09.15-.7-.16-1.53-.29c-.59-.09-1.13-.12-1.31-.14s-.07,0,0-.18,0-.16.09-.17h.28c.08,0,.1,0,.11-.09l.33-2.09c0-.07,0-.08-.08-.11l-.27-.09c-.05,0-.06,0,0-.16s0-.14.08-.14a9.77,9.77,0,0,0,2.11-.8h.07c.05,0,.2.09.19.15s-.15.76-.23,1.28c.36-.73.9-1.25,1.39-1.17A.7.7,0,0,1,258.14,712Z"/><text class="cls-39" transform="translate(337.35 730.28)">-</text><text class="cls-40" transform="translate(343.88 720.91)">.</text><text class="cls-40" transform="translate(344.72 701.11)">.</text></g></svg>
