<svg xmlns="http://www.w3.org/2000/svg" xmlns:xlink="http://www.w3.org/1999/xlink" viewBox="0 0 1920 1080"><defs><style>.cls-1{fill:url(#Ikke-navngivet_forløb_105);}.cls-2{fill:#ff0;}.cls-3{fill:lime;}.cls-4{opacity:0.49;}.cls-5{fill:#fff;}.cls-6{fill:#fbb03b;}.cls-7{fill:red;}.cls-8{fill:#42210b;}.cls-9{fill:#2e3192;}.cls-10{fill:#bdaf9b;}.cls-11{fill:#3fa9f5;}.cls-12{fill:#603813;}.cls-13{fill:#6a6500;}.cls-14{fill:#f7931e;}.cls-15{fill:#fcee21;}.cls-16{fill:#006837;}.cls-17{fill:#999;}.cls-18{fill:#4d4d4d;}.cls-19{fill:#666;}.cls-20{fill:#009245;}.cls-21{fill:#ffdeb4;}.cls-22{fill:#998675;}.cls-23{fill:#1b1464;}.cls-24{fill:#9e005d;}.cls-25{fill:#ff7bac;}</style><radialGradient id="Ikke-navngivet_forløb_105" cx="960" cy="539" r="778.5" gradientUnits="userSpaceOnUse"><stop offset="0" stop-color="#fff"/><stop offset="0.37" stop-color="#606060"/><stop offset="0.86" stop-color="#39003f"/></radialGradient></defs><g id="START"><rect class="cls-1" width="1920" height="1078"/></g><g id="tekst"><path class="cls-2" d="M824.86,681.79l-90.63,59.7,58,88,90.62-59.69C962.1,717.56,914.75,622.58,824.86,681.79Z"/><path class="cls-3" d="M643.58,801.09c-88.65,60.78-32.37,147.41,58,88l90.65-59.64-58-88Z"/><g class="cls-4"><ellipse class="cls-5" cx="658.66" cy="872.54" rx="11.44" ry="11.11" transform="translate(-367.46 495.4) rotate(-32.77)"/></g><path class="cls-6" d="M892,145q-8.24-16.77-32-33.53l16-14c17.85,18.32,30.62,36.39,31.84,53.86l-3-35.62h8.54c.81-12.3-17-27-36.3-41.9l17.09-14.66c12.46,10.67,22.6,21.64,25.62,33.52l-4.27-27.24h19.22v9l12.81-.62c-1-10.37.07-18.46,4.27-23l12.81,2.09V87.31l2.14-1,2.13-27.23h15V87.75c3.81-17,10.08-29.73,19.45-37h14.52c-7.09,8.69-10.49,15.33-8.35,18.85h12.81V56.67l15,.32V76.52l6.41-.67V42h18.6l-3.66,44.32c-.46-16.85,2-29.34,8.55-35.61h14.94a68.47,68.47,0,0,0-6.4,33.52l4.27-12.57H1097V99.4q7.35-29.18,25.62-48.69l12.82,8.38c-6.21,8.2-12.19,16.37-10.68,23l21.35-4.19-10.67,29.33,10.67-16.07,12,5.44c-11.56,15.85-20.71,31.44-22.67,46.25l-34.17,58.66-32,33.53-60.2,40.56-44.43-25.9-49.11-48.19-17.08-27.23Z"/><path class="cls-7" d="M870.68,151.27h32.21l16.9,31.43L939,209.94l19.21,12.57,23.65,18.85L1005.2,256l31.8-14.67,21.58-18.85,23.13-18.86L1097,180.6l15-29.33h29.34L1112,372.2c-64.85,35-133.55,39.05-207.59,0Z"/><path class="cls-8" d="M522.76,540.41,649.91,487c104.92,27.62-107.24,219.15-120.35,99.2Z"/><path class="cls-8" d="M517,542.84l-83.23,55.44c-57.27,46.59,17.1,107.52,103.89,15.77Z"/><path class="cls-9" d="M248,498.38c217.71,193,460.49,64.36,434.24-182.4Z"/><path class="cls-10" d="M180.8,457.68C182.45,581,284,560.82,266.69,488.21L180.8,457.68"/><path class="cls-10" d="M579.81,290.07c112.56,123.79,187,.36,71.74-70.69Z"/><path class="cls-11" d="M148.84,437.62c-9.55-64.77-1.65-122.38,38.45-166.79L540.1,136C596,153,644,173.63,674.38,202.52c-15.76,40.71-40.29,76.08-79,102.83Q603,324,642.53,341.63c-105,85.23-234,136.46-382.23,160.55-10.53,7.61-19.46,1.71-28.07-17.65C203.24,479.91,175.35,465.12,148.84,437.62Z"/><path class="cls-10" d="M199.12,247.28c-36.13,1.83-18.62-54.69,12.31-30.4Z"/><path class="cls-10" d="M473.36,109.34C484,67.16,530.65,86.47,503,123.78Z"/><path class="cls-10" d="M219.91,195.52l-29.22,70.15c153.05,33.73,306.48-29.16,350.25-131.55-27.25-17.93-65.85-32.75-114.68-44.76Z"/><path class="cls-12" d="M234.57,108.43c-82.89,15.34-92.87,135.7,9.38,53.41C231.38,176,225.68,185.9,225.12,191.9c-1.68,18,43,.77,87.67-42.59,43.73,15.19,76.68,1.34,99.52-39.75C548.89,70.62,453-16.09,324.43,83.44,403.56-1.47,220.53,30.35,234.57,108.43Z"/><path class="cls-13" d="M377.4,515.24C382,200.81,634,346.47,634,346.47c153.61-181.45,263.18-120,363-4.63,150.57-139.46,245.16-110.67,311,4.63,169.25,6.06,268,72.2,196.52,283.21,7.81,136.25-54.76,204.18-239.29,153.75-159.61,52.41-267.52,36.49-285.53-98.26,39.35,150.77-189.33,36.25-278.59,89C590.41,839.6,364.45,802.05,458.32,656.27,341.15,663,315.57,615.16,377.4,515.24Z"/><path class="cls-8" d="M1543.36,347.85q-37.48,19.47-8.08,55.41l132.33,65.54L1800.15,476c39.91-4.13,42.21-20.44,28-42.09Z"/><path class="cls-8" d="M1800.18,477h-.08l-132.75-7.25-.19-.09-132.52-65.64-.14-.16c-10.42-12.74-14.67-24.17-12.66-34,1.85-8.94,8.93-16.67,21.06-23l.36-.19.39.12,285.16,86.21.19.31c7.79,11.86,9.94,21.06,6.58,28.13-4,8.38-15.54,13.44-35.33,15.49Zm-132.31-9.23L1800.13,475c18.72-2,30-6.78,33.64-14.36,3-6.32,1-14.79-6.24-25.87l-284.07-85.89c-11.35,6-18,13.17-19.66,21.41-1.88,9.14,2.19,19.95,12.12,32.13Z"/><path class="cls-14" d="M1823.56,470.25c-52,70.64-277.92,22.34-295.3-75.76C1528.26,394.49,1724,478.17,1823.56,470.25Z"/><path class="cls-14" d="M1729.7,504.74a293.82,293.82,0,0,1-65.83-7.84c-34-8-65.84-21.5-89.58-38.12-26.63-18.65-42.88-40.82-47-64.12l-.32-1.82,1.7.73c1.95.83,196.68,83.5,294.82,75.68l2.18-.17-1.3,1.76C1806.51,495.08,1769.7,504.74,1729.7,504.74ZM1529.6,396.13c4.54,22.11,20.35,43.16,45.84,61,23.53,16.48,55.1,29.91,88.89,37.81,58.39,13.66,129,11.52,157.08-23.55-51.57,3.36-127.84-17.16-183.13-35.11C1583.94,418.65,1538.83,400,1529.6,396.13Z"/><path class="cls-15" d="M1567.05,318l-60.54,34.53c36.26,4,58,16.59,69.18,35.44,23.37,10.91,37,25.14,44.9,41.35l7.08,17.44a174.5,174.5,0,0,1,69-19.77c58,6.32,111,17.87,158,35.6,7.3-22.9-4-44-22.63-64.3Z"/><path class="cls-2" d="M1855.38,463.93l-1-.37C1809,446.44,1756,434.49,1696.69,428c-25,2-47.44,8.43-68.55,19.64l-1,.53-7.5-18.47c-8.49-17.47-23-30.84-44.39-40.82l-.28-.13-.16-.27c-11.62-19.7-34-31.13-68.43-34.95l-3.06-.34,63.58-36.28.42.13,265.33,80.37.18.2c22.1,24.11,29.36,44.86,22.85,65.29ZM1696.72,426h.1c59,6.43,112,18.3,157.29,35.28,5.69-19.3-1.49-39.07-22.55-62.11l-264.39-80.09-57.53,32.82c33.24,4.21,55.09,15.77,66.76,35.3,21.65,10.17,36.4,23.8,45.09,41.68l6.69,16.48c21.1-11,43.5-17.38,68.45-19.37Z"/><path class="cls-7" d="M1575,325.76c-25.13,92.66,223.28,135.49,236.59,62.9Z"/><path class="cls-7" d="M1733.21,426.24a258.28,258.28,0,0,1-51.21-5.38c-37.85-7.76-70.58-22.69-89.8-41-17.12-16.29-23.4-35.1-18.17-54.38l.26-1,1,.25,237.48,63.14-.17.91c-2.59,14.15-14.16,24.94-33.47,31.22C1766.43,424.18,1750.59,426.24,1733.21,426.24ZM1575.71,327c-4.64,18.44,1.37,35.75,17.87,51.45,31.19,29.68,91.25,45.75,139.81,45.75,17,0,32.62-2,45.08-6,18.14-5.9,29.17-15.84,32-28.77Z"/><path class="cls-16" d="M1555.43,275l-4.38-1.08-3-.74-.78,3.18c-4.27,2.48-7,4.11-7,4.11,1.62,2.7-1.63-2.7,1.62,2.7s5.42,5.93,5.42,5.93l-1.07,4.34-6.48-1.6-2.16-.53-4.86,1.1s2.09.82-.83,3.4l-2.93,2.57h0l-.58,2.37c-.49,2-.4.48-3.14,2.86a9.92,9.92,0,0,0-3.27,4.54s-.69,2.78-.61,2.48-.07,2.65,3.51.89,5.74-1.24,5.74-1.24,2.55-1.06,2.37,4.34l-.19,5.4,2.46.6,8.77.34c-1,3.89-2-1-1,3.89l1.1,4.86h0s4.77-1.12,5.35,1.32,9.36,4.61,10.91,2.69,7.48-7.35,7.48-7.35-6.3.94-4,3.72-.37-4.79,2.34,2.78,4.88,8.1,4.88,8.1l2.07.51,5.46,1.34,8.13-.29,5.39-3.27,1.63,2.7,1.62,2.7s.71.17,3.06,3.05l2.36,2.88,3.06.76.68-2.79,4.34-2.87a3.07,3.07,0,0,1,4.32,1.06c1.63,2.7,3.23-3.8,1.63,2.7l-1.6,6.5,3,.74,2.48.61,5.86-.85s-4.3-1.13.81-3.28l5.12-2.16h0s1.06-4.33,1.62,2.7a9.17,9.17,0,0,0,6.42,8.48l4.46,1.1,5.46,1.34,4.2-1.26c0,9.2-1.6,6.5,0,9.2l1.63,2.7,10.35,7.1,3.91,1,5.18-3.27,4.86-1.1s.53-2.17,2.16.53,7.32,2.85,7.32,2.85-3.33-.46.61-2.49,6.08-10.7,3.94-2l-2.14,8.67,4.86-1.1,4.85-1.11.5-2,2.2.37s-1.63-2.7,2.16.53.53-2.17,3.79,3.23l3.25,5.4,4.32,1.07,3.23-3.8a2.18,2.18,0,0,0,2.69-1.64l.54-2.17,5.39-3.27,1.62,2.7c3.26,5.4,5.42,5.94,5.42,5.94l2.16.53,5.39-3.27,2.69-1.64,2.69-1.63s.54-2.17,2.17.53a6.85,6.85,0,0,0,3.78,3.23l1.63,2.7s-1.07,4.34,1.09,4.87l2.16.53,3.79,3.23,6.48,1.6a6.92,6.92,0,0,0,4.86-1.1l2.69-1.64.53-2.14,3.79,3.21,4.86-1.1,4.83-10.31h0a135.81,135.81,0,0,1,10.29,14l2.16.54a2.19,2.19,0,0,0,1.63,2.7c2.16.53-1.63-2.7,2.16.53a10.72,10.72,0,0,0,8.64,2.13l4.85-1.1,3.23-3.81h0c3.79,3.24,1.86,1.75,3.37,4.93l1.51,3.17,9.29-.51,1.23-5,2.42-.52,5.1-.8c1.38,2.39-.24-.31,1.38,2.39s3.79,3.24,4.32,1.07-3.74-3.4,1.09-4.42,8.6-7,8.6-7c1.63,2.7,6,3.77,6,3.77l3.23-3.81A28.32,28.32,0,0,0,1868,388s-7.2-.22,2.48.61l9.67.84.61-2.47s1.57,2.94.74-3l-.84-5.92.54-2.17,3.59-1.13.61-2.48s1.72-1.82-4.76-3.42-9.18,0-9.18,0l-4.32-1.07.54-2.16a2.18,2.18,0,0,0,2.69-1.64c.54-2.17-1.09-4.87-1.09-4.87l-4.32-1.06c-2.16-.53,5.39-3.27-2.16-.53l-7.55,2.73-4.32-1.06Z"/><path class="cls-16" d="M1828.3,412.36l-1.8-3.78a9,9,0,0,1-.79-2.22c-.07-.36-.09-.45-1.57-1.72l-2.79,3.29-5.18,1.17a11.63,11.63,0,0,1-9.51-2.34l-.45-.38a1.87,1.87,0,0,1-1.3.06,3,3,0,0,1-2.45-2.9l-1.74-.43-.22-.36a131.8,131.8,0,0,0-9.21-12.68l-4.36,9.3-5.81,1.33-2.95-2.49-.24,1-3,1.84a7.84,7.84,0,0,1-5.61,1.22l-6.71-1.65-3.79-3.23-1.93-.48c-2.64-.65-2.17-4.35-1.91-5.66l-1.24-2.05a8.33,8.33,0,0,1-4-3.54,5,5,0,0,0-.4-.58l0,.16-.35.22-11.13,6.76-2.56-.63c-.43-.11-2.73-.91-6-6.39l-1.11-1.84-4.18,2.54-.44,1.76a3.07,3.07,0,0,1-3.25,2.46L1717,394l-5.32-1.31-3.47-5.76-1-1.64c-.65.07-1.39-.32-2.59-1.35l0,0-2.92-.49-.42,1.7-11.9,2.7,2.18-8.83a7.67,7.67,0,0,1-2.16,1.75,8.9,8.9,0,0,0-1,.6h.08l-.17,2c-.64,0-6.29-.25-8.15-3.33a5.14,5.14,0,0,0-.39-.58l-.1.36-.59.15L1674.3,381l-5.39,3.41-4.51-1.11-.15-.11-10.53-7.22-1.73-2.88c-.85-1.41-1-1.71-.73-2.92a22.66,22.66,0,0,0,.55-5.45l-3.16.95-10.19-2.51a10.28,10.28,0,0,1-7.18-9.37c-.06-.79-.13-1.41-.19-1.88l0,0-5.11,2.16a5.77,5.77,0,0,0-1.8,1,3.19,3.19,0,0,0,.86.37l4.77,1.25-10.94,1.59-6.63-1.63,1.84-7.48c.06-.27.13-.53.19-.77h-.08a2.14,2.14,0,0,1-1.63-1.17,2,2,0,0,0-3-.73l-4,2.64-.83,3.37-4.36-1.07-2.56-3.14a14.08,14.08,0,0,0-2.63-2.74l-.3-.07-3-4.9-4.75,2.89-8.54.31L1571,341.9c-.63-.15-2.89-1.24-5.58-8.73-.2-.56-.37-1.05-.53-1.47a1.36,1.36,0,0,1-.86-.27c-1.17,1.14-2.23,2.23-2.76,2.88-1.34,1.66-5,1.06-6.48.72-.93-.21-5.59-1.38-6.18-3.8-.26-1.1-3-.86-4.16-.58l-1,.23-1.31-5.86c-.54-2.4-.63-2.81-.26-3.19l-6.82-.28-3.24-.8.21-6.21c.09-2.62-.52-3.22-.65-3.31a.42.42,0,0,0-.36-.05l-.28.09-.32-.06s-1.91-.39-5.06,1.16c-1.48.73-2.64.86-3.55.41a2.36,2.36,0,0,1-1.18-1.33l-.44-.11.86-3.47a10.91,10.91,0,0,1,3.58-5.06,9,9,0,0,1,2.55-1.69l.1,0c0-.09.09-.26.18-.61l.65-2.67,3.17-2.78c1.27-1.12,1.21-1.62,1.21-1.63s-.07-.08-.11-.1l-2.59-1.24,7.85-1.81,7.9,1.95.63-2.58c-1-.64-2.83-2.2-5.1-6l-1.21-2-.06-.1-.1-.16-.06-.1-.71-1.19.85-.51s2.59-1.58,6.61-3.91l.92-3.74,8.36,2.06,295.48,84.32,4,1,7.27-2.63c4.27-1.55,4.27-1.55,4.68-.69s-.33,1.28-.68,1.5l3.46.85.22.36c.07.12,1.83,3.08,1.2,5.62a3,3,0,0,1-2.89,2.45l-.1.38,3,.74c1-.45,4-1.32,9.53.05,3.45.85,5.24,1.89,5.65,3.26a1.88,1.88,0,0,1-.21,1.55l-.7,2.85-3.59,1.13-.35,1.43.81,5.73c.47,3.35.31,4.47-.69,4.79a1.15,1.15,0,0,1-.43.06l-.45,1.81-10.53-.91-.34,0a29.17,29.17,0,0,1,2.46,6.72l.11.49-3.95,4.66-.6-.15a13.34,13.34,0,0,1-5.66-3.06c-1.42,1.87-4.57,5.47-8.44,6.29a6.84,6.84,0,0,0-1.43.42c.07.11.17.23.24.33a3.49,3.49,0,0,1,.86,2.93,2.48,2.48,0,0,1-2,2.07c-1.4.21-3-.86-4.15-2.86-.3-.49-.52-.86-.69-1.17l0,0h0l-.09-.18h0c0-.05-.09-.17-.24-.42l-4.42.68-1.75.38-1.25,5.09Zm-2.86-9.25c1.78,1.54,2,1.86,2.23,2.83a6.86,6.86,0,0,0,.64,1.78l1.22,2.57,7.88-.44,1.2-4.86,3-.65,5.83-.91.34.59c.26.45.47.81.6,1.1h0l.77,1.28c.93,1.55,1.85,2,2.14,1.92s.29-.32.35-.58-.16-.74-.55-1.28a2.34,2.34,0,0,1-.61-2.22c.31-.79,1.18-1.27,3-1.66,4.37-.92,7.92-6.49,8-6.54l.87-1.37.84,1.39c1.06,1.76,3.6,2.76,4.75,3.13l2.48-2.92a27.67,27.67,0,0,0-2.8-6.89c-3.14-.31-3.28-.49-3.23-1.39.07-1.09.89-1.06,3.61-1l.51,0,.29.43h0l1.72.16,8.83.76,1-4.17.14.27c0-.11,0-.22,0-.34l-.86-6.11.71-2.9,3.59-1.13.54-2.2.1-.1c-.11-.19-.75-1-4.19-1.85-5.88-1.45-8.41-.08-8.43-.07l-.35.2-.4-.09-5.29-1.31,1-4.1,1,.23a1.13,1.13,0,0,0,1.48-.9,6.2,6.2,0,0,0-.79-3.76l-3.89-1a1.45,1.45,0,0,1-1-.76l-.53.2-7.84,2.84-4.61-1.14-295.5-84.32-6.37-1.57-.64,2.63-.37.21c-2.82,1.64-5,2.91-6.09,3.58l1.11,1.85c2.9,4.8,4.81,5.47,4.83,5.48l.89.29-.19.91-1.31,5.31-9.38-2.32-3.16.72v0c.19,1.06-.42,2.2-1.86,3.47l-2.7,2.36-.5,2.07c-.3,1.21-.52,1.62-1.42,2a6.93,6.93,0,0,0-2,1.36,9.24,9.24,0,0,0-3,4l-.31,1.24c-.09.36-.16.67-.24.93s.1.39.25.46.82.06,1.79-.41a10.76,10.76,0,0,1,6.13-1.36,2.35,2.35,0,0,1,1.9.36c1.11.77,1.61,2.41,1.52,5l-.16,4.59,1.57.39,9.9.38-.3,1.19a3.28,3.28,0,0,1-1.22,2.22c.07.33.16.74.27,1.21l.88,3.93c1.7-.24,5-.33,5.57,2.24.13.55,1.87,1.68,4.67,2.32s4.24.28,4.49,0c.59-.73,1.76-1.92,3-3.15a2.27,2.27,0,0,1-.1-1.79c.76-2,4.46-2.66,5.19-2.77l3.23-.48-2.41,2.2s-1.13,1-2.49,2.33c.27.63.62,1.61,1.16,3.1,2.38,6.63,4.23,7.48,4.25,7.49l7.31,1.8,7.74-.28,6-3.66,3.63,6a16.07,16.07,0,0,1,3.11,3.17l2.15,2.62,1.77.43.54-2.19,4.66-3.09a4.59,4.59,0,0,1,3.27-.55,4,4,0,0,1,2.46,1.94l.09.13a4.37,4.37,0,0,0,.31-.34,1.18,1.18,0,0,1,1.46-.47c.8.4.76.54-.12,4.13l-1.36,5.53,4.31,1.06,3.25-.47a1.93,1.93,0,0,1-.13-.55c-.1-1.47,1.61-2.38,3.11-3l4.68-2c.36-1.1.9-1.65,1.63-1.58,1.1.09,1.53,1.25,1.82,4.94.49,6.19,5.45,7.54,5.67,7.59l9.64,2.38,5.22-1.57v1.34a27.46,27.46,0,0,1-.62,7.28,2.6,2.6,0,0,0-.08.38,8.84,8.84,0,0,0,.58,1l1.51,2.51,10,6.87,3.33.82,5-3.14,4.52-1a1.73,1.73,0,0,1,1.24-.95c1.14-.18,2,1,2.51,1.83.7,1.16,2.58,1.79,4.21,2.1.28-.91,1.39-1.6,2.4-2.12,1.71-.88,3.15-3.41,3.84-4.63.48-.84.89-1.56,1.75-1.22s.91.36-.22,4.95l-1.75,7.1,7.53-1.71.57-2.31,1.64.28a1.09,1.09,0,0,1,.37-.56c.82-.7,1.82-.08,3.75,1.56a9.48,9.48,0,0,0,.86.68,1.1,1.1,0,0,1,.49-.22c.76-.11.76-.11,2.64,3l3,5,3.32.82,3.23-3.8.6.15a1.14,1.14,0,0,0,1.48-.91l.63-2.57,6.61-4,2.14,3.56c2.9,4.81,4.81,5.48,4.83,5.48l1.72.43,10.12-6.14a1.82,1.82,0,0,1,1.34-1.14c1.13-.16,2,1,2.5,1.83a5.87,5.87,0,0,0,3.18,2.77l.39.11.22.35,1.84,3.05-.1.4c-.34,1.38-.4,3.47.36,3.66l2.39.59,3.79,3.23,6.25,1.54a6,6,0,0,0,4.1-1l2.34-1.43.81-3.3,4.65,3.92,3.89-.88,4.36-9.29-2.74-3.35,1.55-1.27,3.53,4.33a144,144,0,0,1,9.76,13.3l2.73.68-.24,1a1.31,1.31,0,0,0,.16,1.05,1.49,1.49,0,0,1,.23-.28c.69-.58.87-.42,3.08,1.46a9.78,9.78,0,0,0,7.77,1.91l4.53-1,2.36-2.78-.92-.79L1823,401l1.68,1.43.1.09.66.56Zm59.21-31.49h0Z"/><path class="cls-14" d="M1557.59,275.49C1580,156.85,1919.17,249.65,1856.3,356l-8.09,4.9-8.06-4.49-6.53-1.4-3.62,1.41-2.3,4a32.17,32.17,0,0,1-7.55,2.73l-4.19-1-4.46-1.1.54-2.16L1811,354l-6.48-1.6-1.07,4.34-1.82,1.85-2.48-.61-2.72-.67h0c-2.69,1.63-4.32-1.07-4.85,1.1s2.16.53-.54,2.17-.53,2.16-2.69,1.63l-2.16-.53-5.5-1.36-3.14-.77-1.82-.45-.34-.08s-1.63-2.7-1.09-4.87l.53-2.17h0l-4.86,1.11h0a2.18,2.18,0,0,0-1.62-2.7l-2.16-.54-2.7,1.64s-1.62-2.7-3.78-3.23.53-2.17-2.16-.54-.54,2.17-2.7,1.64,1.07-4.34-2.16-.53-.53,2.16-3.23,3.8l-2.69,1.63h0l-8.27-2c-2-2.8-3.63-5.5-3.63-5.5s1.07-4.33-1.62-2.7l-2.7,1.64-3.79-3.23-4.85,1.1s2.69-1.64-2.16-.53-6.54,3-6.54,3c-3.71,1.39-3.47-.85-3.47-.85L1706.2,342s2.7-1.64.54-2.17l-2.17-.53-4.32-1.07-2.69,1.64-2.7,1.63a1.78,1.78,0,0,1-2.76.34l-1.56-1.4-3,.57-3-4.33s-.54,2.16-2.16-.54a6.88,6.88,0,0,0-3.79-3.23c-2.7,1.64-4.32-1.06-4.86,1.1s-.78,2.43-3.08,2.85a6.69,6.69,0,0,1-4.47-1.1,6.67,6.67,0,0,0-2.58-.2c-1.74.13-2.4,1.16-4-1a44.18,44.18,0,0,0-5.35-5.37l-1.63-2.7s-2.69,1.64-4.85,1.1.53-2.16-2.16-.53a6.85,6.85,0,0,1-4.86,1.1l-3.19,1.88a2.43,2.43,0,0,1-4-1c-1.49-3-3.12-5.73-3.12-5.73l-1.62-2.7-9.74-7-4.85,1.1-6.48-1.6s-7,.57-6.49-1.59l.54-2.17-4.32-1.07-2.16-.53-1.63-2.7-2.16-.53-4.32-1.07h0l-1.09-4.86-1.63-2.7-6.48-1.6a2.18,2.18,0,0,1-2.7,1.63c-2.16-.53.54-2.16-2.16-.53l-2.69,1.64s-4.86,1.1-4.32-1.07l.53-2.17-1.09-4.86-1.63-2.7-1.62-2.7-1.63-2.7h0l-3.88-3.24Z"/><path class="cls-14" d="M1820.14,364.21l-9.85-2.43.72-2.91-.9-4-4.91-1.21-.9,3.63-1.8,1.85-.18.71-2.68-.66h0l-3.12-.77a4.87,4.87,0,0,1-3.61.26l-.38-.09,0,.11,0,.13a1,1,0,0,1,.73.83c.11.73-.23.94-1.69,1.82-1,.6-1.07.91-1.09,1a1.11,1.11,0,0,1-1.17,1,5.53,5.53,0,0,1-1.19-.23l-13.37-3.29-.21-.36c-.07-.12-1.83-3.08-1.21-5.62l.15-.59-4.85,1.1.38-1.57a1.13,1.13,0,0,0-.89-1.49l-1.76-.44-3.19,1.94-.52-.85c-.4-.66-1.74-2.43-3.17-2.78a2.44,2.44,0,0,1-1.3-.72l-.11.07c-1,.6-1.07.91-1.09,1-.31,1.24-1.35,1-2.36.74a2,2,0,0,1-1.21-.8,8,8,0,0,0-1.55,2.25c-.17.67-.4.81-1.87,1.7l-1.16.71-.37,1.52-10.55-2.6-.21-.3c-2-2.79-3.61-5.45-3.68-5.56l-.21-.35.1-.4a5.58,5.58,0,0,0,.16-1.77,2.36,2.36,0,0,0-.3.16l-3.31,2-4-3.38-10.31,2.34,2.57-1.57c-3.49,1-4.79,2.36-4.81,2.38l-.16.17-.23.09c-1.83.68-3.13.69-4,0a2.15,2.15,0,0,1-.79-1.34l-4.18-3.79,1.14-.7a4.39,4.39,0,0,0,.56-.4l-5.82-1.44-4.88,3a3.14,3.14,0,0,1-1.93,1.11,2.73,2.73,0,0,1-2.18-.79l-1.19-1.07-3.13.6-2.58-3.78a1.32,1.32,0,0,1-.45.14c-1.14.17-2-1-2.5-1.82a6.34,6.34,0,0,0-2.85-2.66,4.81,4.81,0,0,1-3.56.23l-.38-.08,0,.1c-.63,2.57-1.21,3.1-3.87,3.59a7.52,7.52,0,0,1-5.08-1.17,6.78,6.78,0,0,0-2.08-.11,7,7,0,0,0-1,.18c-1.3.32-2.41.4-3.85-1.56a43,43,0,0,0-5.19-5.2l-.12-.1-1.23-2a7.63,7.63,0,0,1-4.72.75,2.43,2.43,0,0,1-1.3-.71l-.1.07a8.37,8.37,0,0,1-5.18,1.29l-2.82,1.66a3.87,3.87,0,0,1-3,.78,3.59,3.59,0,0,1-2.43-2.15c-1.45-2.95-3.06-5.62-3.07-5.65l-1.52-2.52-9.21-6.62-4.64,1.06-6.56-1.62c-1.51.11-5.72.28-7-1.21a1.81,1.81,0,0,1-.38-1.63l.3-1.2-5.92-1.46-1.62-2.7-6.68-1.64-1.19-5.32-1.33-2.2-5.26-1.3a3,3,0,0,1-3.52,1.44,2.48,2.48,0,0,1-1.29-.72l-.11.07L1571,298l-.16,0c-1.14.26-3.91.73-5.07-.45a1.87,1.87,0,0,1-.44-1.83l.48-1.94-1-4.48-4.71-7.81-4.26-3.55.8-2.75c5-26.29,25.82-44.29,60.26-52,76.56-17.24,197.86,19.93,236,72.31,14.57,20,16.06,41.11,4.31,61l-.13.21-8.8,5.34-8.43-4.7-6.09-1.31-3,1.17-2.25,3.95-.22.13a32.66,32.66,0,0,1-7.85,2.86Zm-7.43-3.89,7.44,1.83a30.66,30.66,0,0,0,6.81-2.43l2.35-4.11,4.23-1.64,7.1,1.57,7.55,4.21,7.37-4.48c11.34-19.34,9.89-39-4.33-58.58-18.06-24.81-55.73-47.3-103.34-61.7-46.57-14.08-95.38-17.76-130.58-9.83-23.45,5.27-52.67,18.32-58.74,50.51l0,.1-.45,1.53,3.51,2.93,5.05,8.38,1.18,5.26-.59,2.38a6.92,6.92,0,0,0,3-.1l2.56-1.55c1.45-.89,1.8-1.09,2.39-.66a1,1,0,0,1,.41,1l.11,0a1.14,1.14,0,0,0,1.49-.91l.26-.94,1,.22,6.88,1.69,1.93,3.2,1,4.42,5.88,1.45.12,0,.42.1v0c.48.18.92.49.74,1.19a.57.57,0,0,1,0,.14l.8,1.32,7.05,1.74-.75,3.05c.55.43,3,.64,5.4.45l.17,0,6.41,1.58,5.06-1.15,10.27,7.38,1.73,2.88c.07.11,1.67,2.77,3.15,5.8.31.63.67,1,1.06,1.08a2,2,0,0,0,1.38-.43l.13-.09,3.54-2.09.39.1a5.92,5.92,0,0,0,4.1-1c1.45-.89,1.8-1.1,2.4-.66a1.06,1.06,0,0,1,.4,1l.12,0c1.42.35,3.44-.59,4.1-1l.85-.52,2.06,3.42a42.14,42.14,0,0,1,5.38,5.43c.77,1,.92,1,1.76.8a6.86,6.86,0,0,1,1.33-.23,7.58,7.58,0,0,1,3,.25l.22.12a5.74,5.74,0,0,0,3.71.94c1.86-.35,1.86-.35,2.29-2.11.51-2,2.08-1.67,2.83-1.48a2.86,2.86,0,0,0,2.48-.23l.35-.22.41.1a7.87,7.87,0,0,1,4.4,3.69,5,5,0,0,0,.4.58l.51-1.87,3.82,5.57,2.82-.55,1.93,1.74a.87.87,0,0,0,.61.29,1.22,1.22,0,0,0,.67-.47l.12-.16.18-.11,5.74-3.49,6.61,1.63h0l.12,0,.14,0c1.18.29,1.51.93,1.59,1.41a2.13,2.13,0,0,1-.8,1.8l3,2.69,0,.5h0s0,.1,0,.13.7.17,1.88-.24c.61-.56,2.62-2.14,6.86-3.1,2.26-.51,3.43-.62,3.92.13l3.58-.81,3.62,3.09,2.08-1.26c1.27-.77,2.08-.53,2.53-.2,1,.77.88,2.53.67,3.58.48.76,1.71,2.73,3.17,4.78l7.5,1.85,2.34-1.42,1-.62a9,9,0,0,1,2-3c1.74-2.05,2-2.31,2.73-1.91a1.16,1.16,0,0,1,.48,1.44,2.11,2.11,0,0,0-.09.7l.24,0a4.56,4.56,0,0,1,1.74-1.58c1.45-.88,1.8-1.09,2.4-.65a1,1,0,0,1,.4,1l.11,0a7.65,7.65,0,0,1,3.83,2.87l2.25-1.37,2.57.63a3,3,0,0,1,2.36,2.31s0,.07,0,.11l5.8-1.31.44,1.95-1.56.35-.38,1.57a6.2,6.2,0,0,0,.78,3.76l12.54,3.09.21.05a4.59,4.59,0,0,1,1.73-1.57l.11-.07a2.45,2.45,0,0,1,0-1.48,2,2,0,0,1,1.3-1.58,2.94,2.94,0,0,1,1.53.1,2.87,2.87,0,0,0,2.48-.24h0l1.19-.72.52.84,3.69.91,1.22-1.25,1.25-5,8,2,1.28,5.7ZM1792.46,359Zm-85.71-18.09Z"/><circle class="cls-5" cx="335.98" cy="209.67" r="4.05"/><path class="cls-16" d="M113.46,685.77,97.73,724.61l37.11,242.8c3.51,8,8.08,13.8,23.15,9.76,5.92,23.57,148.85,7,145.22-16.7,14-2.77,21.77-9.09,22.57-19.39L293.36,698.52l-27.83-36C276.84,641.06,103.75,657.64,113.46,685.77Z"/><ellipse class="cls-17" cx="188.93" cy="670.82" rx="76.86" ry="15.39" transform="translate(-99.17 36.24) rotate(-8.69)"/><ellipse class="cls-18" cx="191.46" cy="677.26" rx="17.21" ry="4.88" transform="translate(-100.11 36.69) rotate(-8.69)"/><ellipse class="cls-19" cx="189.93" cy="667.25" rx="6.88" ry="10.13" transform="translate(-98.62 36.35) rotate(-8.69)"/><path class="cls-12" d="M171.51,847.19c-4.07.62-9.91,1.1-13.45,1.64l-2.66.4c-7.84,1.2-11.2,2.13-12.56,2.34-.35,0-.49-.1-.65-1.15s-.07-1.23.27-1.34l2.54-.8c.57-.21.67-.34.58-.92l-5.36-35.07c-.09-.58-.22-.68-.83-.71h-2.66c-.36,0-.5-.15-.66-1.2s-.07-1.23.28-1.28c1.36-.21,5.2-.38,13-1.58l2.3-.35c4.13-.63,7.84-1.62,12.44-2.32,8.85-1.35,14.35,1.89,15.13,7,.72,4.69-2,9.07-8.43,11.18l0,.23c8.1-.65,13.85,3,14.88,9.75C186.9,840.51,181.12,845.72,171.51,847.19Zm-15.22-38.37-.24,0c-.59.09-.69.22-.6.8l2.44,16,1.36-.2c3.54-.54,5-4.14,4.35-8.25C162.81,812,160.12,808.24,156.29,808.82Zm2.89,19.28-.89.14,2.05,13.43c.27,1.73.76,2.61,1.58,3.19a4.92,4.92,0,0,0,3.27.51c3.31-.51,4.81-3.28,4.16-7.57C168.31,831,163.25,827.48,159.18,828.1Z"/><path class="cls-12" d="M202.39,823.81a18.48,18.48,0,0,0,5.24,6.66c2.58,1.86,4.26,2.19,6.38,1.87a8.4,8.4,0,0,0,5.36-3.25c.46-.54,2.11.33,2,.95-1.52,6.27-7.58,11.22-14,12.2-8.79,1.34-16.47-3.53-17.87-12.67-1.42-9.32,4.77-16.6,15.26-18.21,8.79-1.34,14.21,2.1,15.06,7.65a7,7,0,0,1,.11,1.53.63.63,0,0,1-.59.5C214.73,822,208,823.13,202.39,823.81Zm4.47-7.49c-.34-2.2-1.46-3.22-3.11-3-1.83.28-3.41,2.18-2.88,5.65a20.29,20.29,0,0,0,1,3.58l1.85-.52C206.36,821.37,207.31,819.27,206.86,816.32Z"/><path class="cls-12" d="M236.48,818.6a18.29,18.29,0,0,0,5.24,6.66c2.58,1.86,4.26,2.2,6.38,1.87a8.36,8.36,0,0,0,5.36-3.25c.46-.54,2.1.33,1.95,1-1.51,6.27-7.58,11.22-13.95,12.2-8.78,1.34-16.47-3.52-17.87-12.67-1.42-9.32,4.77-16.6,15.27-18.2,8.79-1.35,14.2,2.09,15,7.64a5.93,5.93,0,0,1,.11,1.53.61.61,0,0,1-.59.5C248.81,816.78,242.1,817.92,236.48,818.6Zm4.46-7.49c-.33-2.2-1.45-3.21-3.11-3-1.82.28-3.4,2.18-2.87,5.65a19.46,19.46,0,0,0,1,3.58l1.85-.52C240.45,816.16,241.39,814.06,240.94,811.11Z"/><path class="cls-12" d="M285.74,804.91c.84,5.5-2,8.72-4.76,9.14a5.63,5.63,0,0,1-3.43-.72,7,7,0,0,0-3.59-1,1.46,1.46,0,0,0-.74.29l2.28,14.93c.09.58.23.68.82.65l3.84-.17c.36,0,.51.15.67,1.2s.06,1.23-.29,1.29c-1.36.2-5.25.38-11.33,1.31-4.3.66-8.13,1.66-9.49,1.87-.35,0-.49-.05-.66-1.15s-.06-1.23.28-1.34l1.94-.71c.58-.21.69-.29.6-.86l-2.34-15.28c-.09-.58-.21-.62-.82-.65l-2.06,0c-.36,0-.5-.1-.64-1s0-1,.31-1.17a67.68,67.68,0,0,0,12.93-10.15.77.77,0,0,1,.45-.24c.41-.07,1.6.22,1.66.63.14.93.62,5.65,1.2,9.41.91-5.88,3.56-10.67,7.15-11.22S285.25,801.73,285.74,804.91Z"/><path class="cls-20" d="M966.31,955c15.71,18.9,28,37.65,28.69,55.9v21.33c24,11.26,43.85,11.25,56.64-8.09a206.49,206.49,0,0,1,14.71-90.47c-6.14,4.35-12.23,6.6-18.27,6.62-2.25,12.09-6.44,21.09-13.36,25.74a39.12,39.12,0,0,1-8.83-29.42c-8.25,4.32-16.36,5.17-24.27.73.88,2.66.6,3.92-1.55,2.95,2.06,13.58,2.89,26.11,1.55,36.77-10.7-9.89-18-19.54-22.8-28.68C976.89,952.4,972.64,954.54,966.31,955Z"/><path class="cls-16" d="M952,951.37q18.38,12,29.42-3.67c11.13,5.18,18.33,2.4,21.69-8.14,10.79,6.5,20.18,5.19,27.95-5.15,11.38,7.39,23.35,7.5,36,0,3.87,2.38,7.85.67,11.85-2.21,18.06-2.21,24.52-10.86,18.39-26.48,16.92-9.56,8.83-47.07-17.65-39.71,6.62-10.3-15.45-19.13-25.75-5.89-2.37-3.76-5.82-5.86-12.5-2.94,7.35-19.13-36-25-41.93-5.15-5.92-.66-11.17,1.17-15.44,6.62-.74-16.18-41.19-5.88-34.57,14-8.83-5.89-19.13,0-18.39,11.76-25.75-8.09-35.31,43.4-14.71,41.19C896.44,939.56,939.1,977.07,952,951.37Z"/><path class="cls-8" d="M60.42,65.79c10.53-4,20.86-4.14,31,0-.88,37.28,8.45,66.94,6.33,100.41,6.45,4.71,15.29,19,15,37.89l1.33,110.24c11.29,25.05-84.32,32.27-75.74,0L37.78,204C37.94,191,42,178.87,52.6,168,51.82,130.24,59.82,100.06,60.42,65.79Z"/><rect class="cls-21" x="37.57" y="204.09" width="75.77" height="63.14" rx="4.17"/><path class="cls-9" d="M48.1,234.94c.51,0,.58.06.65.29a22.57,22.57,0,0,0,2.17,5.57,2.77,2.77,0,0,0,2.35,1.34c1.61,0,2.39-1.08,2.39-2.72s-.47-2.66-2.93-3.83c-4-1.88-5.32-4-5.32-7.44,0-4.05,3.28-6.62,8.76-6.62a10.37,10.37,0,0,1,2.8.35c.45.12.49.17.49.76v5.21c0,.24-.09.3-.6.3s-.58-.06-.65-.3A14.71,14.71,0,0,0,56.82,224a2.36,2.36,0,0,0-2-1.14c-1.15,0-2,.82-2,2.46s.56,2.69,2.61,3.71c3.9,1.94,5.35,4,5.35,7.12,0,4.25-2.89,7.32-7.65,7.32a16.14,16.14,0,0,1-5.43-.88c-.45-.14-.5-.23-.5-.82,0-1.84.23-5.79.32-6.5C47.52,235,47.59,234.94,48.1,234.94Z"/><path class="cls-9" d="M68.79,228c3.89,0,6.58,2.87,6.58,7.62,0,5-2.89,7.84-7,7.84-3.89,0-6.57-2.87-6.57-7.61C61.77,230.84,64.66,228,68.79,228ZM69,241.91c.27.35.47.44.69.44.45,0,.83-.38.83-1.93,0-3.08-1.36-9.67-2.32-10.93-.27-.35-.47-.44-.7-.44-.44,0-.82.38-.82,1.94C66.65,234.06,68,240.65,69,241.91Z"/><path class="cls-9" d="M91,241.27c0,.49,0,.55-.18.58A48.44,48.44,0,0,0,86,243.4c-.18.06-.72-.11-.79-.41a21.68,21.68,0,0,1-.44-2.87c-.76,2.26-2,3.31-3.63,3.31-2.32,0-4.65-3-4.65-7.93,0-5.1,2.44-7.53,6.13-7.53a6.21,6.21,0,0,1,2,.32V224c0-.29,0-.35-.27-.41l-.76-.24c-.13,0-.18-.11-.18-.61s0-.56.18-.59c1.68-.41,4-1.08,5.52-1.64a1.11,1.11,0,0,1,.27-.06c.16,0,.59.24.59.44,0,.5-.18,2.49-.18,6.1V240c0,.29,0,.35.26.41l.76.23C90.94,240.68,91,240.77,91,241.27Zm-6.59-1.53a.37.37,0,0,0,.26-.11v-3.49c0-2.61-.89-5.77-1.63-6.74a1,1,0,0,0-.8-.49c-.47,0-.79.55-.79,1.7,0,2.75,1.21,7.2,2.42,8.78C84.07,239.68,84.23,239.74,84.39,239.74Z"/><path class="cls-9" d="M97.79,239.71c-.72,2.35-2.08,3.72-3.72,3.72s-2.9-1.81-2.9-4.1c0-1.78.42-2.81,1.58-3.63a17.89,17.89,0,0,1,4.86-2v-.94c0-2.11-.49-3.39-1.34-3.39-.23,0-.32.08-.36.46l-.16,1.41c-.22,2.11-1.16,3.1-2.41,3.1-.7,0-1.32-.55-1.32-1.64,0-1.87,2.77-4.74,6.19-4.74,3,0,4.48,1.58,4.48,4.42v5.39c0,2.34.35,2.4,1,1.88.06-.06.09-.09.13-.09.2,0,.54.64.54.82s-.09.26-.23.44l-.08.11c-1.35,1.76-2.31,2.49-3.41,2.49C99.29,243.43,98.35,242.26,97.79,239.71Zm-.18-.44V237.2a2.32,2.32,0,0,0-.47-1.47,1.26,1.26,0,0,0-.87-.55c-.45,0-.65.35-.65,1.22,0,1.64.85,3.08,1.59,3.08A.47.47,0,0,0,97.61,239.27Z"/><path class="cls-2" d="M129,559.29l-28.57-8.75L92,578.29,120.54,587C145.52,594.68,157.38,568,129,559.29Z"/><path class="cls-3" d="M71.92,541.78c-28.46-8.14-37,19-8.51,27.74L92,578.28l8.51-27.75Z"/><g class="cls-4"><ellipse class="cls-5" cx="59.39" cy="557.52" rx="3.06" ry="3.15" transform="translate(-491.04 450.84) rotate(-72.95)"/></g><path class="cls-2" d="M706.77,58.89,680.85,44,666.42,69.21l25.92,14.86C715,97.06,732.48,73.63,706.77,58.89Z"/><path class="cls-3" d="M655,29.16C629,14.92,614.68,39.5,640.5,54.32l25.92,14.87L680.86,44Z"/><g class="cls-4"><ellipse class="cls-5" cx="639.25" cy="41.73" rx="3.06" ry="3.15" transform="translate(284.86 575.39) rotate(-60.15)"/></g><circle cx="335.15" cy="207.82" r="16.2"/><circle cx="412.73" cy="172.98" r="16.2"/><path class="cls-5" d="M421.71,233.46c-31-22.26-47.56-11.15-54.1,22.82Z"/><circle class="cls-5" cx="416.42" cy="171.32" r="4.05"/><circle class="cls-5" cx="338.34" cy="207.5" r="3.04"/><path class="cls-22" d="M321,220.83c18.25,23.41,30.29-7.38,33.25-14.93"/><path class="cls-22" d="M400.44,185.16c18.26,23.41,30.3-7.38,33.25-14.93"/><path class="cls-23" d="M541.32,370.29a5.52,5.52,0,0,1-2.48-.19,3.69,3.69,0,0,0-2.53.07l-9.89,6,15.73,62.26a22.6,22.6,0,0,0,3.34,7.08c.48.72.79,2.24.93,4.55q.3,3.82-.81,5.12a2.92,2.92,0,0,1-1,.38,43.73,43.73,0,0,1-10,.88c-4.89,0-7.88-.48-9-1.38-1.34-1.17-1.78-3.07-1.34-5.7a13.26,13.26,0,0,0,.22-4.84L509.72,386l-6.86,4a6,6,0,0,0-1.46,1.44,2.51,2.51,0,0,1-1.87,1.16q-2.58-.1-8.34-5.38t-5.81-7.66c.09-2,1.38-3.75,3.84-5.38a6.16,6.16,0,0,1,2.68-.8,7.22,7.22,0,0,0,2.61-.66L528.09,353a23.85,23.85,0,0,0,2.66-2.19,5.37,5.37,0,0,1,7.49.25,25.8,25.8,0,0,1,2.9,4.93,38.86,38.86,0,0,1,3.08,7.79,11,11,0,0,1,.43,4.11C544.5,368.88,543.39,369.69,541.32,370.29Z"/><path class="cls-23" d="M618.46,430.88q.35,3.57-1.19,5a6.77,6.77,0,0,1-2.51,1,36.25,36.25,0,0,1-8.75.88c-3.47,0-5.66-.31-6.55-.92a2.48,2.48,0,0,1-.78-1.32,13.88,13.88,0,0,1,.05-3.78c.25-.74.53-1.54.83-2.42a5.45,5.45,0,0,0,0-3.08q-11.58-46.7-12.5-46.83-1.71-.19-5,10.45-3.56,11.36-2.06,17.27l6.64,26.28a5.87,5.87,0,0,1,2.4,4.68q.3,3.82-2.08,5.81a2.64,2.64,0,0,1-1.19.55,34.66,34.66,0,0,1-8.6.6q-5.79-.11-6.49-.69a4.94,4.94,0,0,1-1.31-4.32,4.14,4.14,0,0,1,.67-1.5,2.59,2.59,0,0,0,.45-1.94l-21.14-83.67a5.86,5.86,0,0,0-1.46-2.28,3.57,3.57,0,0,1-1.18-2.47,4.35,4.35,0,0,1,2.42-4c1-.6,3.74-.82,8.14-.68q7.14.21,8.28,2.07a7.59,7.59,0,0,1,.67,4,24.67,24.67,0,0,0,.89,6.58l5.59,22.13q3.7-9.87,9.13-11.24c2.35-.6,5.65-.44,9.86.46s6.8,2,7.73,3.4q4.83,6.84,17.06,55.25A10.53,10.53,0,0,1,618.46,430.88Z"/><path class="cls-23" d="M664.81,399.91q1.4,1.53-1.4,11.56-3,10.71-7.42,15.35a4,4,0,0,1-1.79.82q-4.05,1-11.34-.15-7.7-1.08-10.72-3.84-8.28-7.35-12.26-23.09-3.76-14.93-1.33-27.62,2.6-13.87,11.38-16.35a19,19,0,0,1,8.29-.08,26.51,26.51,0,0,1,11,4.4q1.2.84,3.38,5.95a63.87,63.87,0,0,1,3.86,10.86q2,8.05.52,11.71a74.91,74.91,0,0,1-20.77,9.9,48.8,48.8,0,0,0,4.33,11.88c2.05,4,3.6,5.93,4.67,5.74q2.1-.4,4-5.17a18.7,18.7,0,0,0,1.76-6.61,67,67,0,0,1,.13-7.84c1.07-.44,3.41-.36,7,.24S664,398.94,664.81,399.91Zm-27.69-31.54q-1.83.21-3.33,7.64a37.91,37.91,0,0,0-.5,13.6,12.53,12.53,0,0,0,6.84-4.5q1.3-1.83-1.32-12.25Q637.7,368.48,637.12,368.37Z"/><path class="cls-24" d="M676.67,584.43c0,3.22-.23,3.76-.93,3.76-2.66,0-11.8-1.25-21.41-1.25s-18.88,1.25-21.54,1.25c-.69,0-.92-.54-.92-3.76s.23-3.77.92-3.95l5.1-1.25c1.15-.36,1.39-.72,1.39-2.51V524.2H613.69v52.52c0,1.79.23,2.15,1.39,2.51l5.09,1.25c.7.18.93.72.93,3.95s-.23,3.76-.93,3.76c-2.66,0-11.81-1.25-21.42-1.25s-18.87,1.25-21.53,1.25c-.69,0-.93-.54-.93-3.76s.24-3.77.93-3.95l5.09-1.25c1.16-.36,1.39-.72,1.39-2.51V468.1c0-1.79-.23-2.15-1.39-2.51l-5.09-1.25c-.69-.18-.93-.72-.93-3.94s.24-3.77.93-3.77c2.66,0,11.81,1.26,21.42,1.26s18.87-1.26,21.53-1.26c.7,0,.93.54.93,3.77s-.23,3.76-.93,3.94l-5.09,1.25c-1.16.36-1.39.72-1.39,2.51v47.14h25.59V468.1c0-1.79-.24-2.15-1.39-2.51l-5.1-1.25c-.69-.18-.92-.72-.92-3.94s.23-3.77.92-3.77c2.66,0,11.81,1.26,21.42,1.26s18.87-1.26,21.53-1.26c.7,0,.93.54.93,3.77s-.23,3.76-.93,3.94l-5.09,1.25c-1.16.36-1.39.72-1.39,2.51V576.72c0,1.79.23,2.15,1.39,2.51l5.09,1.25C676.44,580.66,676.67,581.2,676.67,584.43Z"/><path class="cls-24" d="M773.45,584.43c0,3.22-.23,3.76-.92,3.76-2.67,0-10.19-1.25-18.64-1.25-6.14,0-23.27,1.25-25.94,1.25-.69,0-.92-.54-.92-3.76s.23-3.77.92-3.95l6.83-1.43c1.16-.18,1.39-.72.81-2.51l-6-19.54H704.22c-3.82,17.21-2.89,18.29.12,20.08l6,3.4c.69.36.92.9.92,4.13s-.23,3.58-.92,3.58c-2.67,0-10.08-1.25-16.21-1.25s-11.93,1.25-14.59,1.25c-.7,0-.93-.36-.93-3.58s.23-3.59.93-4.13l3.82-2.68c3.47-2.51,3.94-3.59,11.69-27.79l11.81-36.56c6-18.64,13.32-42.84,16.56-55,.58-2.15,1.16-2.68,4.17-2.68s3.58.53,4.16,2.68c3.25,12.19,10.08,36.39,15.86,55l19.57,63.09c.58,1.79.58,2,1.74,2.51l3.59,1.43C773.22,580.84,773.45,581.2,773.45,584.43ZM726.8,548l-11.7-37.82L706.19,548Z"/><path class="cls-24" d="M873.13,460.4c0,3.22-.23,3.58-.93,3.94l-5.09,2.87c-3.48,2-3.59,2.51-4.4,27.6l-1,34.59c-.24,6.28-.24,9-.24,13.44-.11,10.4.58,31.91.58,38v3.59c0,3.58-.23,3.94-2.54,3.94h-1.63c-2.31,0-2.77-.36-5.09-3.59l-58.7-81.55,2.55,47c1,25.1,1.51,25.81,4.86,27.43l6.26,2.86c.69.36.92.72.92,3.95s-.23,3.76-.92,3.76c-2.67,0-8.8-1.25-16.33-1.25-7.29,0-13.08,1.25-15.74,1.25-.7,0-.93-.54-.93-3.76s.23-3.59.93-3.95l5.09-2.86c3.47-2,3.82-2.33,4.4-27.43l1.74-75.1c.11-5.37-1.39-8.6-4.87-9.5l-5.09-1.25c-.7-.18-.93-.72-.93-3.94s.23-3.77.93-3.77c1.5,0,10.65,1.26,14.47,1.26s9-.36,13.31-.36c1.16,0,1.51.18,2.67,1.79l45.5,62.55-1.62-27.06c-1-25.09-1.51-26-4.87-27.6l-6.25-2.87c-.69-.36-.92-.72-.92-3.94s.23-3.77.92-3.77c2.66,0,8.8,1.26,16.33,1.26,7.29,0,13.08-1.26,15.74-1.26C872.9,456.63,873.13,457.17,873.13,460.4Z"/><path class="cls-24" d="M932.63,455.74c10,0,18.64.53,25.35,2.68,2.32.72,2.55,1.08,2.67,4.67.58,12.9.81,22,.81,35.13,0,1.43-.47,1.79-3.13,1.79s-3-.36-3.36-1.79c-2.43-10.76-4.86-17.93-9.72-25.46-4.17-6.45-8.45-9.14-15.86-9.14-11.58,0-21.3,12-21.3,40.33,0,33.16,6.36,59.86,14.47,72.41,2.31,3.59,5.32,5.56,7.41,5.56,4.63,0,5.67-2,5.67-6.46v-40c0-1.8-.23-2.16-1.39-2.51l-5.09-1.26c-.7-.18-.93-.72-.93-3.94s.23-3.77.93-3.77c2.66,0,11.81,1.26,21.42,1.26S969.45,524,972.11,524c.69,0,.92.54.92,3.77s-.23,3.76-.92,3.94L967,533c-1.16.35-1.39.71-1.39,2.51v36.56c1.62-.18,2.77-.54,3.24-.54.92,0,1.15.36,1.15,3.77,0,2.86-.11,3.22-.92,3.76-11.69,7-26.28,10.75-44.23,10.75-27.9,0-49.09-24.91-49.09-66.13C875.78,480.11,902.88,455.74,932.63,455.74Z"/><path class="cls-24" d="M1026.4,455.74c25.7,0,44.57,24.37,44.57,66,0,42.11-19,68.1-48.85,68.1-25.59,0-44.46-24.55-44.46-65.78C977.66,481.9,996.65,455.74,1026.4,455.74Zm-2,120.8c2.32,3.59,4.75,4.66,6.83,4.66,5.79,0,8.57-6.27,8.57-25.09,0-35.13-7.53-74.56-15.63-87.11-2.32-3.59-4.75-4.66-6.83-4.66-5.79,0-8.57,6.27-8.57,25.27C1008.8,524.56,1016.33,564,1024.43,576.54Z"/><path class="cls-24" d="M1162.2,460.22c0,3.22-.23,3.58-.93,4.12l-3.82,2.69c-3.47,2.51-3.94,3.58-11.69,27.78L1134,531.37c-6,18.64-13.31,42.84-16.56,55-.58,2.15-1.15,2.69-4.16,2.69s-3.59-.54-4.17-2.69c-3.24-12.19-10.07-36.39-15.86-55l-19.57-63.09c-.58-1.79-.58-2-1.74-2.51l-3.58-1.43c-.7-.36-.93-.72-.93-3.94s.23-3.77.93-3.77c2.66,0,10.18,1.26,18.64,1.26,6.13,0,23.27-1.26,25.93-1.26.69,0,.92.54.92,3.77s-.23,3.76-.92,3.94l-6.83,1.43c-1.16.18-1.39.72-.81,2.51l20.49,66.32,9.15-38.89c5.78-24.92,5-26,1.62-28l-6-3.41c-.7-.36-.93-.9-.93-4.12s.23-3.59.93-3.59c2.66,0,10.07,1.26,16.2,1.26s11.93-1.26,14.59-1.26C1162,456.63,1162.2,457,1162.2,460.22Z"/><path class="cls-24" d="M1248.44,538.9c-1.62,14.7-3.82,32.08-5.67,45.35-.46,3.58-.69,3.94-3,3.94-7.87,0-18.18-1.25-30.8-1.25h-12.15c-15.4,0-29.06,1.25-31.72,1.25-.7,0-.93-.54-.93-3.76s.23-3.77.93-3.95l5.09-1.25c1.16-.36,1.39-.72,1.39-2.51V468.1c0-1.79-.23-2.15-1.39-2.51l-5.09-1.25c-.7-.18-.93-.72-.93-3.94s.23-3.77.93-3.77c2.66,0,14.7,1.26,35.89,1.26h2.43c13.08,0,33.23-1.08,39.71-1.08,2.31,0,2.55.36,2.55,3.95,0,12.72-.58,26.16-1.74,41.4-.12,1.43-.46,1.79-3.13,1.79s-3-.36-3.35-1.79c-3.13-14-3.94-18.82-6.84-29.4-.92-3.4-1.73-4.12-4-4.66a167.25,167.25,0,0,0-23.15-2.69h-.47c-1.15,0-1.38.36-1.38,2.16v48.21h8.56c2.32,0,2.78-.54,3.82-4.12l5.44-18.82c.35-1.08.47-1.26,3.13-1.26s2.89.36,2.89,1.8c0,10.39-.11,16.66-.11,26.88s.11,16.49.11,26.89c0,1.43-.23,1.79-2.89,1.79s-2.78-.18-3.13-1.26l-5.44-18.82c-1-3.58-1.5-4.12-3.82-4.12h-8.56v45.17a12.11,12.11,0,0,0,1.85,7,4.72,4.72,0,0,0,4,2.51,67.93,67.93,0,0,0,17.6-2.87c2.31-.72,3-1.43,4.4-5,4-10.75,8.1-22.76,12.38-34.41.47-1.26.7-1.43,1.39-1.43C1245.09,535.68,1248.67,537.11,1248.44,538.9Z"/><path class="cls-24" d="M1353.1,584.25c0,3.22-.23,3.76-.93,3.76-.92,0-11.92-.9-20.37-.9-6.49,0-13.55.9-15,.9s-2.09-.72-2.78-2.69c-5.21-14.87-11.12-32.08-18-48.75-2.55-6.27-3.24-7-6.83-7.35h-.46v47.5c0,1.79.23,2.15,1.39,2.51l5.09,1.25c.7.18.93.72.93,3.95s-.23,3.76-.93,3.76c-2.66,0-11.81-1.25-21.42-1.25s-18.87,1.25-21.53,1.25c-.7,0-.93-.54-.93-3.76s.23-3.77.93-3.95l5.09-1.25c1.16-.36,1.39-.72,1.39-2.51V468.1c0-1.79-.23-2.15-1.39-2.51l-5.09-1.25c-.7-.18-.93-.72-.93-3.94s.23-3.77.93-3.77c6.71,0,15.74,1.26,26.74,1.26h6.25c4.17,0,17-.72,24.9-.72,19.45,0,28.24,12.37,28.24,31.37,0,14.33-5.44,26.34-16.78,32.26,2.54,7.53,5.21,14,11.46,29.21,10.07,24.2,12.39,29,16.32,29.76l2.78.53C1352.87,580.48,1353.1,581,1353.1,584.25Zm-59.86-62.73c6.14,0,13.55-5.38,13.55-27.43,0-16.67-5.33-29-16-29h-.69c-1.16,0-1.39.35-1.39,2.15V520.8A12.61,12.61,0,0,0,1293.24,521.52Z"/><path class="cls-7" d="M1248.49,753.36c2.75,2.66-2.08,3.8-2.15,7.12,9.7-3.94,18.87-6.52,28.47-5.48,15.48,2.55,29,7.62,38.15,21.16,2.53,3.53,6.28,6.78,9.53,9.73a95.27,95.27,0,0,1,24.53,40.9c3.63,13.61,7.67,27.11,10.5,40.91,3,14.57,6.52,29.45,8.83,44.6,1.9,9.88,1.39,20.33.79,30.39-.67,13.38-3.53,26.45-3.31,40a62.38,62.38,0,0,1-7.16,32.68c-1.77,3.31-4.72,5.25-7.07,7.87-4.13,5.93-9.74,11-17.39,12.78a10.25,10.25,0,0,0-7.1,4.15c-2.48,3.89-5.58,3.38-8.77,2.48-2.78-1-5.57-2-5.28-6.19-.06-2-2-3.23-4.21-5.2-1.27,3.6-4.4,4.76-7.62,5.52a67.71,67.71,0,0,0-8.77,2.48c-7.69,3.47-14.15,1.27-20.19-2.67a35.33,35.33,0,0,1-7.3-5.72c-4.33-3.93-7.73-9.33-15.87-7.82,2.17-3.41,3-5.26-.36-6.94-13.81-6.24-19.27-18.59-23.71-32-6-18.41-11.78-37.3-17.42-55.8a120.53,120.53,0,0,1-4-16.83l-7.5-40.79c-3.1-20.34-3.7-40.86,0-61.15a72.73,72.73,0,0,1,13.76-31.76c3.29-4.08,8.37-7.76,12.56-11.64,3.38-3.69,6.17-8.07,11.78-7.74,1.3.11,2.63-1.44,4.06-2.61a43.46,43.46,0,0,1,3.65-2.51C1243,751.76,1246.23,751,1248.49,753.36Zm-9.21,29.45c-4,6.32-7.39,13.72-7.83,20.85-1.19,9.37-1,19.24,2,28.44,1.91,4.51,4.13,8.53,4.84,13.32,2.24,13.1,5.69,25.92,7.93,39,2.31,15.16,7,29.74,10.94,44.52,4.31,14.68,9,29.27,13.66,43.47,2.65,7.63,4.5,15.46,11.3,20.88,3.74,3.25,9.43,9.34,14.57,13.09-7.75,1.41-12.19-6.63-17.89-7.35a86.11,86.11,0,0,1,6.06,7.66c1.67,1.67,2.94,3.44,4.92,4.62,1.57,1.29,3.43,3.74,5.75,2.78,4.74-1.53,7.49,1.12,10.25,3.78,1.67,1.67,3.83,3.64,6.56,2.58,6.44-1.52,13.14-11,12.07-17.31-1.6-10.36-1.18-21.2-1.88-31.37-.91-14.66-1.23-28.63-3.75-42.91-2.89-15.85-5.78-31.69-7.86-47.73-3.29-21.12-4.25-43.2-12.46-63.58-5.15-12.83-10.4-26.05-19-37.24A16.26,16.26,0,0,0,1265,773c-4.21.17-8.83.43-12.76,1.77C1247,776,1242.08,778.43,1239.28,782.81Z"/><path class="cls-7" d="M1499.53,691.23c-.6,10.06-3.22,20.59-.6,29.89,2.31,9.78.72,19.25.83,28.72,0,12.41,2.41,24.64,2.36,37,0,14.46.52,29.22.22,44.16-.42,10.84,1.27,21.6,2.47,32.06.45,7.33,1.62,14.08.77,21.3-.22,6.25,2.15,12.72,2,19.36-.19,4.59.82,8.89,1,13.39.86,7.23,1.72,14.47.87,21.69a83.94,83.94,0,0,0-.21,20.71c.58,6.06,1,11.34.25,17.29.06,2-.84,7.23,0,9.09.46,7.33-1.56,7.8-6,10.51-2.75-2.66.17-8.3-3-10.86-1.83,1.25-2.45,2.23-2.48,3.89-.17,8.3-4.3,14.23-11.27,17.12-2.32,1-4.3-.23-6.1-.63-3.18-.9-3.18-.9-5.64,1.33-10.36-7.88-13.72-20.31-20.42-30.71a291.68,291.68,0,0,1-19.72-31.29c-9.76-17.95-15.18-37.33-26.86-54.4a44.4,44.4,0,0,1-5.74-13.52c-5.31-15.27-16.56-28.73-23-43.33l-15.53-35.17a45.69,45.69,0,0,0-3.27-6.67c-.78-1.47-2.45-3.14-2-4.9.81-5.56-3.73-8.62-6.45-12.93-2.81-4.71-5.19-11.17-6.89-16.56-.37-1.56-.74-3.13,1.09-4.39,5.73,4.44,6.86,12.84,12.46,18.55a75.24,75.24,0,0,0-7.52-24.67c-2.32-4.41-2-6.56,3.17-8.19,5-2,10.06-2.37,14.39,1.57l1.77,2.06c6-1.43,1.08-24.22,17.65-.86a68.33,68.33,0,0,1,7.38,11.48c5.32,9.9,11.74,19.12,16.75,29.51,6.36,12.55,12.41,25.58,18.06,38.71,3.36,7.06,8.65,13.24,13.84,19a11.59,11.59,0,0,1,1.64,3.33c6.88,16.56,17.21,31.48,24.49,47.94,6.61,15.38,12.41,31,20.41,46.83.54-12.11-.13-23.94-.88-36.15a143.94,143.94,0,0,1-1-18.77c.7-9.66-1.61-19.45-2.62-29.13-.62-4.4-1.54-8.31-1.26-12.51,1-12.2-1.91-24.34-1.77-36.35,0-12.41-3.31-24.84-3.26-37.24.11-15.73.72-31.16,1.24-47,.44-7.12-.45-12.7,2.07-18.25.06-3.32,1.86-8.29,3.13-6.52,1.45,2.55.79,10.55,3.71,4.91,1.31-5.27,2.66-17.57,10-20.55C1500.87,684.3,1499.78,688.69,1499.53,691.23Zm-3.39,279.27c-.22.88,1.88,6.17,3.37,7.06.22-.88,1.8-5,1.62-5.75-.21-4.5-1.58-26.49-4.25-23.38C1496.67,949.31,1496.36,969.62,1496.14,970.5Zm-10.58-277.22c-2-4.89,2.77-8.09,2.86-7.69C1491.91,691.37,1488.35,694.28,1485.56,693.28Z"/><path class="cls-7" d="M1573.7,690.25a3.56,3.56,0,0,0,2.81-.66c16.27-6.74,33.68-10.43,50-17.16,4.33-1.44,8.49-3.66,12.91-4.7,8-2.3,18.21,1.48,24.18,8.75-8.71,4.54-17.51,8.68-26.77,10.87-9.36,1.79-18.31,3.49-27.48,6.07-8.36,2.38-16.26,6.73-24.63,9.12-2.41.57-3.25,2.42-3.5,5-.14,12,4.86,22.41,9.15,33.38,1.32,3.82,1.84,7.82,2.86,12.13,3.17,17,6.33,34,12,50.88,12.82-5.1,26.54-4.61,39-9.61,6.16-2.7,11.08,1.93,17.15,4.21-2.58,3.5-4.63,5.64-7.75,6.79a43.15,43.15,0,0,0-11,5.5c-8.52,5.31-18.09,8-28.07,10.75-5.14,1.63-5.14,1.63-3.54,6.62,2.62,9.3,4.84,18.69,6.75,28.57,2,10.27,2.88,21.22,6.18,31.6,1.23,3.43,1.35,7.53,1.38,11.24A79.9,79.9,0,0,0,1630,929c1.73,3.72,3.61,4.52,7.15,3.27,2.81-.67,5.36-2.51,8.76-2.48.9.2,2.2.3,2.66,2.26-3.5,5-12.57,2.56-16,9.57,3.59.8,5.73-.94,8-2.29,13.26-6.85,26.9-12.14,40.07-19.38,6.78-3.66,14.71-4.3,21.59-7.57a7.58,7.58,0,0,1,6,.23c3,1.78,5.85,3.17,8.73,4.55-1.68,3.71-6.48,3.19-8.84,5.81-.25,2.54,2.44,3.14,3.71,4.91,2.66,2.26,2.41,4.8-1.22,5.65-6.53,1.13-11.52,5.2-17.19,8.2-4.25,1.82-8.4,4-12.83,5.09-12.48,2.94-24.56,5.8-36.09,11-3,1.55-5.86,2.21-5.55,7.1.33,3.23-2,4.19-5.36,2.5-3.78-1.58-6.32.26-9.45,1.41a277.62,277.62,0,0,1-46.38,14.25c-2.41.57-4.89-.91-7.49-1.13-2.2-.3-3-1.78-3.34-3.34-.55-2.35.47-3.42,2.39-4.28,6-3.48,12.24-5.78,18.66-11-2.13-9-4.65-17.9-6.47-27.39-4.42-29.53-12.49-56.55-16.91-86.08C1560,821.16,1554,792.4,1548.17,764c-2.92-14.19-7.46-28-10.69-41.69-.83-3.52-2.81-4.71-6-4-5.24,1.24-5.08-1.69-10.5-1.24-2.51.18-4.7-.13-6.56-2.58,7.81-4.74,10.63-5.4,18.31-8.87a39,39,0,0,0-.67-6.45c-.92-3.92-1.26-7.14,4.16-7.6.41-.09,1.21-.28,1.12-.67,5.68-8.37,13.45-6.07,21.25-5.43C1564.26,686.28,1569.37,686.32,1573.7,690.25Zm18.92,271.12c6.25-2.3,6.25-2.3,4.43-6.42-1-2.64-1.81-9.49-4.87-11.66C1588.67,948.25,1592.31,956.48,1592.62,961.37Z"/><path class="cls-7" d="M1749.21,646.76c11.87-2,24-4.82,35.59-.54,6.65,3,13.74,4.19,20.74,5a20.41,20.41,0,0,1,13.64,9.17c7.6,10.6,15.21,21.2,17.14,34.8.61,4.4,3.86,7.35,4.88,11.65,4.37,16.74-.73,31.16-10.22,45-4.44,6.42-11,11.26-16.38,17.09-1.64,2-2.88,4-5.92,5.53-.43-3.62,3.41-5.35,2.58-8.88-5,2.41-7.35,6.7-10.23,10.68-1.24,2,1.33,3.82,3.21,4.62,6.75,3.36,13.28,7.6,19.71,11.46,10.31,5.83,17.45,14.47,23.88,23.7,10.32,14.91,21,29.74,32.39,43.59a31.94,31.94,0,0,1,4.85,7.94,97.34,97.34,0,0,0,11,16c2.75,2.65,2.6,5.58,2.93,8.81.43,3.62.09,5.76-3.85,7.11-.4.09-.93,1.45-1.15,2.33-1,2.73-3,3.6-5.45,2.11-4.86-2.57-8.94-3.67-12.94,1-.62,1-3,1.54-4.43,1-7.37-2.39-15.76-3.72-21-9.91a79.92,79.92,0,0,0-7.94-8.45c-19-22.79-36.45-46.35-53.6-70.4a76.84,76.84,0,0,0-8.32-10c-4.59,4-7.38,8.35-4.7,14.33l.74,3.13c.2,15.24,6.84,29,10.35,43.84,3.63,13.6,8.17,27.4,9.38,41.58,0,3.71,2.75,8-4.28,8.86-1.3-.11-1.74,1.65-1.46,2.82a33,33,0,0,0-.22,6.25c-6.6-.92-11.74-4.67-18-7.74-3.72,5.84-9.08,8.34-15.55,6.15-7.27-2-11.7-6.33-13.85-13.67-1.88-6.16-1.26-12.51-3.14-18.68-5-17.42-9.21-35.42-14.17-52.84-.83-3.53-2.37-6.47-3.61-9.89-8.74-19-13.94-39.27-17.54-59.91-3.68-21-8.49-41.38-12.58-62.31-1.9-9.88-2.91-19.56-6.12-29.54-.46-2-.52-4-2.19-5.68-4.43,1-7.81,4.73-12.33,5.39-1.67-1.68,1.68-3.7-.71-4.79-4-2.38-2.31-4.42.63-6.35,13.39-8.12,27.74-14,43.9-15.73C1726.48,651.3,1737.75,648.64,1749.21,646.76Zm13.13,134.9c2.14-1.74,2.86-2.32,3.17-2.81,10.24-16.05,21.07-31.41,28.43-48.85,4.85-11.89,4.49-24.2,3.73-36.42a11,11,0,0,0-2.4-4.8,17.07,17.07,0,0,1-4.33-9.31c-.24-2.83-1.91-4.51-5-5-2.2-.31-4.18-1.5-6.47-2.2-8.54-3.76-16.86-8.41-27.58-8.77-6.41-.14-11.55,1.48-18,3C1745.76,704.18,1754.32,742.24,1762.34,781.66Z"/><path class="cls-2" d="M470.47,896l-29.23-6.19-6,28.39,29.23,6.19C490,929.79,499.46,902.13,470.47,896Z"/><path class="cls-3" d="M412,883.59C383,878,376.88,905.79,406,912l29.23,6.21,6-28.39Z"/><g class="cls-4"><ellipse class="cls-5" cx="400.94" cy="900.37" rx="3.06" ry="3.15" transform="translate(-563.07 1105.6) rotate(-78.01)"/></g><path class="cls-2" d="M1424.4,253.72l-29.26,6,5.84,28.42,29.26-6C1455.83,276.89,1453.43,247.76,1424.4,253.72Z"/><path class="cls-3" d="M1365.87,265.72c-28.87,6.5-23.34,34.4,5.83,28.43l29.27-6-5.83-28.43Z"/><g class="cls-4"><ellipse class="cls-5" cx="1362.42" cy="285.54" rx="3.15" ry="3.06" transform="translate(-29.59 279.4) rotate(-11.58)"/></g><path class="cls-2" d="M1752.56,939.7l-13.49,26.66,25.89,13.1,13.49-26.66C1790.24,929.49,1765.93,913.26,1752.56,939.7Z"/><path class="cls-3" d="M1725.56,993c-12.87,26.65,12.42,39.67,25.88,13.11L1765,979.46l-25.89-13.11Z"/><g class="cls-4"><ellipse class="cls-5" cx="1738.93" cy="1008.02" rx="3.15" ry="3.06" transform="translate(53.88 2103.74) rotate(-63.13)"/></g><path class="cls-25" d="M1140.07,608.73c3.15.18,5.78.35,8.22-.52a12.45,12.45,0,0,1,5.08-.18,14.72,14.72,0,0,1,6.83,2.63,10,10,0,0,1,4.72,8.05,38.5,38.5,0,0,1-.52,10l-.53,5.42c-.17.88-.17,1.75-.7,2.1-2.27,1.4-1.75,3.85-2.8,5.95-1,0-2.1-.52-3.15,0-2.8,1.05-5.25-.35-6.3-3.33a9.64,9.64,0,0,1-.53-3.84c-.34-4-.52-8-.69-12.25-.18-2.11-.88-4.21-1.23-6.31a3,3,0,0,0-2.27-2.62c-5.26-1.75-10.51.17-13,5.07-1.75,3.68-3.85,7.18-4.9,11-1.57,6-3.15,11.9-2.45,18.2.53,4.55,0,9.1.18,13.48,0,3.67.35,7.17.17,10.85-.52,10.85,2.45,21.7,2.45,32.72,0,.53.18,1.05.18,1.58-1.75,5.42.87,9.8,3.15,14.35,1.4,2.8,2.1,3,4.9,1.57,4.37-2.27,7.35-5.42,12.25-7a2.13,2.13,0,0,0,1.58-2.27c-.36-10.5.87-21.18.7-31.68a1.85,1.85,0,0,0-.18-.87c-3.67-1.05-7-2.63-11-2.1-1.75.17-1.93-1.75-2.46-2.8a1.66,1.66,0,0,1,1.75-1.05c4.73,0,9.28-1.75,13.83-2.28h.7c1.93-2.45,2.63-.7,3.5,1,.18.18.7.18,1,.35,1.05-1.57.35-3.5,1.58-5.07,1.57.17,2.8,1.4,4.55,1.4,1,0,1,1,1,1.92.35,3.33,1,6.65,1,10,.17,3.67,0,7.17.35,10.85.7,7.35.17,14.87.52,22.22.35,3.85.18,7.7.53,11.55a9.81,9.81,0,0,1-4.73,9.28c-.52.35-.52,1.22-1.4,1.4-3.32-3.5-5.42-8-8.92-11.38-1.4-1.22-1.23-3.32-1.93-4.9-1.22,0-1.75.88-2.27,1.58-2.46,3-4.73,5.95-8.58,6.82-1.75,2.45-3.67,2.1-6,3-2.63,1.05-5.6.87-8.4.52-2.45-.17-4.73-.52-7.18-.87-3.5-.53-8.22-2.1-9.62-6.65-.88-3-1.75-7-3-9.8-1.4-3.15-1.4-6.48-1.4-9.8,0-6.83-1.22-12.25-1.57-18.9-.18-4.55.7-8.93,1-13.3,0-1.93.35-3.85.17-5.6-.52-4.38.88-8.75.53-13.13-.53-6.12,1.75-11.72,3-17.67a14.45,14.45,0,0,0,.88-2.45c1-7.71,5.42-13.48,10.67-18.73,1.58-1.75,3.85-3.15,5.78-4.73a3.15,3.15,0,0,1,.87-.35c5.08,0,8.76-3.67,13-5.42,2.28-.7,4.56-.18,7.18-.53C1145,607.86,1142.17,607,1140.07,608.73Zm-31.5,41.48c-.35,4.2-.7,8.57-.88,12.95,0,.53.18,1.05,1.23,1.05a77,77,0,0,1,1.57-15.57c0-.18-.35-.53-.52-.88A2.48,2.48,0,0,0,1108.57,650.21Z"/><path class="cls-25" d="M1210.59,607c1.05-.35,2.63,4.38,3,5.95,0-4.37.7-7.52,3.15-.87,1.22,3.15,2.8,6.3,3.67,9.62.88,3.85,2.45,7.53,3,11.38.35,3,.7,2.1,2.1,4.72,2.45,4.38,2.27,9.46,3.5,14.18a209.37,209.37,0,0,0,7.87,22.93c2.28,5.6,3.15,11.72,4.38,17.85.35,1.57,0,3.32.35,5.07a156,156,0,0,0,6.47,19.25c1.58,3.68,3,7.88,2.63,12.43-.18,2.1-.35,4.37-3.33,4.72a1.55,1.55,0,0,1-1.57,1.93c-.88-.88-2.1-1-3-2.8-.35-.7-1.57-.35-1.75-1.23-.7-1.92-3.15-2.45-3.5-.87-.7,3.15-4,1.22-6.12,1.75a1.76,1.76,0,0,1-2.63-1.4c-1.92-5.78-3.85-11.38-5.25-17-1.22-4.72-3.67-9.1-4.55-14-.35-1.75-1.57-2.27-3.15-2.27-6.82.35-12.07-.18-19.07.7-1.58.17-4.55-.53-5.6.7-1.05,1-.88,3-1.4,4.55-.7,3.32-1.75,6.3-2.1,9.62l-1.4,12.08a38.93,38.93,0,0,1-.7,4.37c-.35,2.1-1.23,2.63-3.85,1.93-.7-.18-1.93-4-2.63-1.23-.35,1.58-1.75-2.8-1.57-4.55a142.42,142.42,0,0,1,4.2-22.92l.52-2.63c.35-2.45.35-2.27-1.92-3-1.23-.35-2.63-.53-3.33-1.93.7-1.57,2.28-1.22,3.5-1.4,4-1,3.5-.17,4-4.2.87-6,3.15-13.47,3.85-19.42a189.19,189.19,0,0,1,4.55-24.15,119.74,119.74,0,0,0,3-15.4c.88-5.25,1.75-10.5,2.45-15.58a7.21,7.21,0,0,0-.17-3.85c-.35-1.23-.53-3,1.22-3.68s3.5-2.8,5.6-1.57A8.84,8.84,0,0,0,1210.59,607Zm-8.75,29.4a32.52,32.52,0,0,1-1.57,10.86c-1.23,4.37-.7,9.1-2.28,13.47a68.62,68.62,0,0,0-2.8,13.48c-.7,5.95-1.75,11.9-2.8,17.85,5.78-.35,12.08-.53,17.68-.88a10.22,10.22,0,0,0,3.15-.7c2.62-.52,2.8-.87,1.92-3.32-1.57-4-2.1-8.4-3.32-12.6-1-3.5-1.23-7.35-2.45-11a61.34,61.34,0,0,1-3-13.65,62.39,62.39,0,0,0-3.5-15.4C1202,635.16,1201.67,635.86,1201.84,636.38Zm27.48,27.83c.35-1.22-1.23-7.52-2.1-8.05C1225.82,657.56,1229,663.16,1229.32,664.21Z"/><path class="cls-25" d="M1282,607a38,38,0,0,0,4.2,7.35,17.21,17.21,0,0,1,2.8,7c3.33,12.78,6.65,27.31,9.8,40.08.88,4,1.75,8.05,3.15,12.78a56.8,56.8,0,0,0,2.28-11c.87-5.42,1.22-10.85,2.27-16.1,1-5.95,2.1-11.9,3.5-17.68,1-4.89,1.75-10.67,4-15.22,1.23-2.28,3.15-4.2,5.6-3.68l4.2.88a5.17,5.17,0,0,1,2.63,1.22c2.09,2.1,2.44,1.93,3.67-1.05,0-.17.17-.17.52-.52.88.35,1.58,1.57,2.81.52.52-.52,1.57-.17,2.44.18.53.17.88.7,1.41.87,6.12,1.93,6.47,6.83,6.65,11.91,0,.7-.18,1.39-.18,1.92.88,9.1-.7,18.2-.87,27.12,0,7.18.17,14.53.87,21.71.7,6,.7,12.25,1.4,18.2.88,7.87.18,15.75.53,23.62.17,3.33.87,6.48.7,9.8-.35,3.68-1.93,5.08-5.78,4.2-.87.53-.52,1.4-.7,2.1-.7,1.4-1.75,1.75-3.32,1.4-3.85-.52-6.48-2.8-9.46-4.72-3.5-2.28-4.2-5.25-4.2-8.58-.17-5.07-.52-10,0-15a39.85,39.85,0,0,0-.34-9.1c-1.06-11-.88-21.87-1.75-32.9-.88-10.32-.71-20.65-2.1-31l-.53-1.41a19.44,19.44,0,0,0-2.45,6.13c-1.23,4.37-3,8.75-3.85,13.13-1.75,8.92-3.85,17.67-3.85,26.77,0,1.93-.53,3.85-.7,5.95-.35,3-1.75,6-.53,8.93,1.05,3-1.4,4.55-2.62,6.47-.35.7-1.23.35-1.75,0-1-.35-2.1-1.05-3.33-.87-.35,1.22-.35,2.27,1.4,2.27,1.75.18,2.28,2.63,3.15,3.68-.7,1.05-1.4.87-2.45,1.05-3,.35-6.47.17-7.52-1.23-1.4-1.75-1.75-1.57-3.68-2.62a15.23,15.23,0,0,1-6.12-7.88c-4.2-10.67-8.23-21.52-11.38-32.55-1.57-5.95-3.15-12.07-4.9-18a47.42,47.42,0,0,0-1.92-5.95c.7,3.5-1,6.83-.35,10.33.7,4.2,0,8.4.17,12.78.35,7,.18,14.35.7,21.35.53,6.12.88,12.25,1.75,18.2a42.2,42.2,0,0,1,.7,10.5,148.12,148.12,0,0,0-.35,17.5,3.44,3.44,0,0,1-.35,2.62c-1.4,1.93-2.62,2.28-5.25.88-.7.35-.52,1.4-1.57,1.57-.18-.35-.7-.52-.7-1l-.53-9.8.35-20.3a128.42,128.42,0,0,0-.87-18.37,305,305,0,0,1-1.05-38c.17-8.93-.18-19.6,0-28.7a14.21,14.21,0,0,0-.18-3.85c-.17-1.4.7-2.1,1.93-2.63a8.13,8.13,0,0,1,5.77.18c1.23-.53,1.23-1.75,1.93-2.45,2.45-2.45,2.8-2.8,6.12-1.4,1.93.7,4,1.57,4.9,4a1,1,0,0,0,1.23.53c.35-1.58-.35-3.33.52-4.73C1281.47,606.11,1281.82,606.46,1282,607Zm50.06,46c1.57-3.5,1.4-9.27-.35-11.37C1330,645.66,1331.87,649,1332.05,653Z"/><path class="cls-25" d="M1383.32,611.53a1.43,1.43,0,0,0,1.22,0c7.35-1.22,14.88-1,22.23-2.27,1.92-.18,3.85-.7,5.77-.7,3.5-.18,7.35,2.45,9.1,6.12a47.77,47.77,0,0,1-12.07,1.93c-4-.18-7.88-.35-11.9-.18-3.68.18-7.35,1.23-11,1.4-1.05,0-1.57.7-1.92,1.75-1.23,5.08-.18,10,.52,15,.18,1.75,0,3.51,0,5.43a164.5,164.5,0,0,0,0,22.75c5.78-.87,11.38.7,17-.17,2.8-.53,4.37,1.92,6.65,3.5a7.14,7.14,0,0,1-3.85,2.1,17.75,17.75,0,0,0-5.08,1.22c-4,1.4-8.22,1.58-12.6,1.75-2.27.18-2.27.18-2.1,2.45.18,4.2.18,8.4,0,12.78-.17,4.55-.87,9.27-.52,14a15.79,15.79,0,0,1-.53,4.9,35.65,35.65,0,0,0-.87,12.95c.35,1.75,1,2.27,2.62,2.1,1.23,0,2.45-.53,3.85-.18a1.2,1.2,0,0,1,.88,1.23c-1.93,1.75-5.43-.18-7.53,2.45,1.4.7,2.45.17,3.5-.18,6.13-1.57,12.25-2.45,18.38-4.2,3.15-.87,6.47-.35,9.62-1a3.17,3.17,0,0,1,2.45.7c1.05,1.05,2.1,1.93,3.15,2.8-1,1.4-3,.7-4.2,1.58-.35,1.05.7,1.57,1,2.45.88,1.22.53,2.27-1,2.27-2.8-.17-5.25,1-7.87,1.75a33,33,0,0,1-5.78.88c-5.42,0-10.67,0-15.92,1.05-1.4.35-2.63.35-3,2.45-.17,1.4-1.22,1.57-2.45.52-1.4-1-2.62-.52-4-.35a113.62,113.62,0,0,1-20.48,1.4c-1,0-1.92-.87-3-1.22a1.66,1.66,0,0,1-1-1.75c0-1,.52-1.4,1.4-1.58,2.8-.87,5.6-1.22,8.75-2.8,0-4-.18-8.05,0-12.25,1-13,.35-25.2,1.4-38.15.87-12.6,1.22-25.37,1.57-38,.18-6.3-.35-12.61-.35-18.73,0-1.58-.7-2.27-2.1-2.27-2.27,0-1.92-1.23-4.2-1.58a2.82,2.82,0,0,1-2.45-1.75,52.05,52.05,0,0,1,8.4-1.93,16.84,16.84,0,0,0,.35-2.8c0-1.75.18-3.15,2.45-2.8.18,0,.53,0,.53-.17,3.15-3,6.12-1.23,9.27-.18C1379.82,608.91,1381.92,609.43,1383.32,611.53Zm-18.55,116.73c2.8-.35,2.8-.35,2.45-2.27-.18-1.23.17-4.2-.88-5.43C1364.42,722.31,1365.12,726.16,1364.77,728.26Z"/></g></svg>