<svg xmlns="http://www.w3.org/2000/svg" xmlns:xlink="http://www.w3.org/1999/xlink" viewBox="0 0 1920 1080"><defs><style>.cls-1{fill:url(#Ikke-navngivet_forløb_105);}.cls-2{fill:#ff0;}.cls-3{fill:lime;}.cls-4{opacity:0.49;}.cls-5{fill:#fff;}.cls-6{fill:#fbb03b;}.cls-16,.cls-7{fill:red;}.cls-13,.cls-8{fill:#42210b;}.cls-9{fill:#2e3192;}.cls-10{fill:#c7b299;}.cls-11{fill:#3fa9f5;}.cls-12{fill:#603813;}.cls-13{stroke:#42210b;}.cls-13,.cls-14,.cls-15,.cls-16,.cls-17,.cls-26,.cls-28,.cls-29,.cls-30{stroke-miterlimit:10;stroke-width:2px;}.cls-14,.cls-27{fill:#f7931e;}.cls-14{stroke:#f7931e;}.cls-15{fill:#fcee21;stroke:#ff0;}.cls-16{stroke:red;}.cls-17,.cls-18{fill:#006837;}.cls-17{stroke:#006837;}.cls-19{fill:#999;}.cls-20{fill:#4d4d4d;}.cls-21{fill:#666;}.cls-22{fill:#ffdeb4;}.cls-23{fill:#009245;}.cls-24{fill:#ffe15f;}.cls-25,.cls-29{fill:#cc3b36;}.cls-26{fill:#3b2719;stroke:#3b2719;}.cls-28{fill:#f5e761;stroke:#fff761;}.cls-29{stroke:#cc3b36;}.cls-30{fill:#43643f;stroke:#43643f;}.cls-31{fill:#998675;}.cls-32{fill:#6a6500;}.cls-33{fill:#1b1464;}.cls-34{fill:#9e005d;}.cls-35{fill:#ff7bac;}</style><radialGradient id="Ikke-navngivet_forløb_105" cx="961.5" cy="538" r="778.88" gradientUnits="userSpaceOnUse"><stop offset="0" stop-color="#fff"/><stop offset="0.37" stop-color="#606060"/><stop offset="0.86" stop-color="#39003f"/></radialGradient></defs><g id="START"><rect class="cls-1" x="2" y="-3" width="1919" height="1082"/><path class="cls-2" d="M834.81,706.24l-90.62,59.69,58,88,90.62-59.7C972.06,742,924.7,647,834.81,706.24Z"/><path class="cls-3" d="M653.54,825.53c-88.65,60.78-32.38,147.41,58,88l90.65-59.65-58-88Z"/><g class="cls-4"><ellipse class="cls-5" cx="668.62" cy="896.98" rx="11.44" ry="11.11" transform="translate(-379.1 504.68) rotate(-32.77)"/></g><text/></g><g id="tekst"><path class="cls-6" d="M916,162q-8.24-16.77-32-33.53l16-14.05c17.85,18.32,30.62,36.39,31.84,53.86l-3-35.62h8.54c.81-12.3-17-27-36.3-41.9l17.09-14.66c12.46,10.67,22.6,21.64,25.62,33.52l-4.27-27.24h19.22v9l12.81-.62c-1-10.37.07-18.46,4.27-23l12.81,2.09v34.51l2.14-1,2.13-27.23h15v28.66c3.81-17,10.08-29.73,19.45-37h14.52c-7.09,8.69-10.49,15.33-8.35,18.85h12.81V73.67l15,.32V93.52l6.41-.67V59h18.6l-3.66,44.32c-.46-16.85,2-29.34,8.55-35.61h14.94a68.47,68.47,0,0,0-6.4,33.52l4.27-12.57H1121V116.4q7.35-29.18,25.62-48.69l12.82,8.38c-6.21,8.2-12.19,16.37-10.68,23l21.35-4.19-10.67,29.33,10.67-16.07,12,5.44c-11.56,15.85-20.71,31.44-22.67,46.25l-34.17,58.66-32,33.53-60.2,40.56-44.43-25.9-49.11-48.19-17.08-27.23Z"/><path class="cls-7" d="M894.68,168.27h32.21l16.9,31.43L963,226.94l19.21,12.57,23.65,18.85L1029.2,273l31.8-14.67,21.58-18.85,23.13-18.86L1121,197.6l15-29.33h29.34L1136,389.2c-64.85,35-133.55,39.05-207.59,0Z"/><path class="cls-8" d="M546.76,557.41,673.91,504c104.92,27.62-107.24,219.15-120.35,99.2Z"/><path class="cls-8" d="M541,559.84l-83.23,55.44c-57.27,46.59,17.1,107.52,103.89,15.77Z"/><path class="cls-9" d="M272,515.38c217.71,193,460.49,64.36,434.24-182.4Z"/><path class="cls-10" d="M204.8,474.68C206.45,598,308,577.82,290.69,505.21L204.8,474.68"/><path class="cls-10" d="M603.81,307.07c112.56,123.79,187,.36,71.74-70.69Z"/><path class="cls-11" d="M172.84,454.62c-9.55-64.77-1.65-122.38,38.45-166.79L564.1,153C620,170,668,190.63,698.38,219.52c-15.76,40.71-40.29,76.08-79,102.83Q627,341,666.53,358.63c-105,85.23-234,136.46-382.23,160.55-10.53,7.61-19.46,1.71-28.07-17.65C227.24,496.91,199.35,482.12,172.84,454.62Z"/><path class="cls-10" d="M223.12,264.28c-36.13,1.83-18.62-54.69,12.31-30.4Z"/><path class="cls-10" d="M497.36,126.34C508,84.16,554.65,103.47,527,140.78Z"/><path class="cls-10" d="M243.91,212.52l-29.22,70.15c153.05,33.73,306.48-29.16,350.25-131.55-27.25-17.93-65.85-32.75-114.68-44.76Z"/><path class="cls-12" d="M258.57,125.43c-82.89,15.34-92.87,135.7,9.38,53.41C255.38,193,249.68,202.9,249.12,208.9c-1.68,18,43,.77,87.67-42.59,43.73,15.19,76.68,1.34,99.52-39.75C572.89,87.62,477,.91,348.43,100.44,427.56,15.53,244.53,47.35,258.57,125.43Z"/><path class="cls-6" d="M907,165.17q-8.24-16.77-32-33.53l16-14c17.85,18.32,30.61,36.39,31.83,53.86l-3-35.62h8.54c.81-12.3-17-27-36.3-41.9l17.08-14.66c12.46,10.67,22.61,21.64,25.62,33.52l-4.27-27.24h19.22v9l12.81-.62c-1-10.37.07-18.46,4.27-23.05L979.63,73v34.51l2.14-1,2.13-27.23h15v28.66c3.81-17,10.08-29.73,19.46-37.05h14.51c-7.08,8.7-10.49,15.34-8.34,18.86h12.81V76.85l14.94.32V96.7l6.41-.67V62.18h18.6l-3.65,44.32c-.47-16.85,2-29.34,8.54-35.62h14.95a68.54,68.54,0,0,0-6.41,33.53l4.27-12.57H1112v27.74q7.37-29.17,25.63-48.7l12.81,8.39c-6.2,8.2-12.18,16.37-10.68,23l21.36-4.19c-4.43,12.15-7.88,21.64-10.68,29.33l10.68-16.07,12,5.44c-11.56,15.85-20.71,31.44-22.67,46.25l-34.17,58.66-32,33.53-60.19,40.56-44.44-25.9-49.11-48.19L913.44,194.5Z"/><path class="cls-7" d="M885.68,171.45H917.9l16.89,31.43L954,230.12l19.22,12.57,23.64,18.85,23.34,14.67,31.8-14.67,21.58-18.85,23.12-18.86L1112,200.78l15-29.33h29.35L1127,392.38c-64.85,35-133.55,39.05-207.58,0Z"/><path class="cls-13" d="M1572.36,255.85q-37.48,19.47-8.08,55.41l132.33,65.54L1829.15,384c39.91-4.13,42.21-20.44,28-42.09Z"/><path class="cls-14" d="M1852.56,378.25c-52,70.64-277.92,22.34-295.3-75.76C1557.26,302.49,1753,386.17,1852.56,378.25Z"/><path class="cls-15" d="M1596.05,226l-60.54,34.53c36.26,4,58,16.59,69.18,35.44,23.37,10.91,37,25.14,44.9,41.35l7.08,17.44a174.5,174.5,0,0,1,69-19.77c58,6.32,111,17.87,158,35.6,7.3-22.9-4-44-22.63-64.3Z"/><path class="cls-16" d="M1604,233.76c-25.13,92.66,223.28,135.49,236.59,62.9Z"/><path class="cls-17" d="M1584.43,183l-4.38-1.08-3-.74-.78,3.18c-4.27,2.48-7,4.11-7,4.11,1.62,2.7-1.63-2.7,1.62,2.7s5.42,5.93,5.42,5.93l-1.07,4.34-6.48-1.6-2.16-.53-4.86,1.1s2.09.82-.83,3.4l-2.93,2.57h0l-.58,2.37c-.49,2-.4.48-3.14,2.86a9.92,9.92,0,0,0-3.27,4.54s-.69,2.78-.61,2.48-.07,2.65,3.51.89,5.74-1.24,5.74-1.24,2.55-1.06,2.37,4.34l-.19,5.4,2.46.6,8.77.34c-1,3.89-2-1-1,3.89l1.1,4.86h0s4.77-1.12,5.35,1.32,9.36,4.61,10.91,2.69,7.48-7.35,7.48-7.35-6.3.94-4,3.72-.37-4.79,2.34,2.78,4.88,8.1,4.88,8.1l2.07.51,5.46,1.34,8.13-.29,5.39-3.27,1.63,2.7,1.62,2.7s.71.17,3.06,3l2.36,2.88,3.06.76.68-2.79,4.34-2.87a3.07,3.07,0,0,1,4.32,1.06c1.63,2.7,3.23-3.8,1.63,2.7l-1.6,6.5,3,.74,2.48.61,5.86-.85s-4.3-1.13.81-3.28l5.12-2.16h0s1.06-4.33,1.62,2.7a9.17,9.17,0,0,0,6.42,8.48l4.46,1.1,5.46,1.34,4.2-1.26c0,9.2-1.6,6.5,0,9.2l1.63,2.7,10.35,7.1,3.91,1,5.18-3.27,4.86-1.1s.53-2.17,2.16.53,7.32,2.85,7.32,2.85-3.33-.46.61-2.49,6.08-10.7,3.94-2l-2.14,8.67,4.86-1.1,4.85-1.11.5-2,2.2.37s-1.63-2.7,2.16.53.53-2.17,3.79,3.23l3.25,5.4,4.32,1.07,3.23-3.8a2.18,2.18,0,0,0,2.69-1.64l.54-2.17,5.39-3.27,1.62,2.7c3.26,5.4,5.42,5.94,5.42,5.94l2.16.53,5.39-3.27,2.69-1.64,2.69-1.63s.54-2.17,2.17.53a6.85,6.85,0,0,0,3.78,3.23l1.63,2.7s-1.07,4.34,1.09,4.87l2.16.53,3.79,3.23,6.48,1.6a6.92,6.92,0,0,0,4.86-1.1l2.69-1.64.53-2.14,3.79,3.21,4.86-1.1,4.83-10.31h0a135.81,135.81,0,0,1,10.29,14l2.16.54a2.19,2.19,0,0,0,1.63,2.7c2.16.53-1.63-2.7,2.16.53a10.72,10.72,0,0,0,8.64,2.13l4.85-1.1,3.23-3.81h0c3.79,3.24,1.86,1.75,3.37,4.93l1.51,3.17,9.29-.51,1.23-5,2.42-.52,5.1-.8c1.38,2.39-.24-.31,1.38,2.39s3.79,3.24,4.32,1.07-3.74-3.4,1.09-4.42,8.6-7,8.6-7c1.63,2.7,6,3.77,6,3.77l3.23-3.81A28.32,28.32,0,0,0,1897,296s-7.2-.22,2.48.61l9.67.84.61-2.47s1.57,2.94.74-3l-.84-5.92.54-2.17,3.59-1.13.61-2.48s1.72-1.82-4.76-3.42-9.18,0-9.18,0l-4.32-1.07.54-2.16a2.18,2.18,0,0,0,2.69-1.64c.54-2.17-1.09-4.87-1.09-4.87l-4.32-1.06c-2.16-.53,5.39-3.27-2.16-.53l-7.55,2.73-4.32-1.06Z"/><path class="cls-14" d="M1586.59,183.49C1609,64.85,1948.17,157.65,1885.3,264l-8.09,4.9-8.06-4.49-6.53-1.4-3.62,1.41-2.3,4a32.17,32.17,0,0,1-7.55,2.73l-4.19-1-4.46-1.1.54-2.16L1840,262l-6.48-1.6-1.07,4.34-1.82,1.85-2.48-.61-2.72-.67h0c-2.69,1.63-4.32-1.07-4.85,1.1s2.16.53-.54,2.17-.53,2.16-2.69,1.63l-2.16-.53-5.5-1.36-3.14-.77-1.82-.45-.34-.08s-1.63-2.7-1.09-4.87l.53-2.17h0l-4.86,1.11h0a2.18,2.18,0,0,0-1.62-2.7l-2.16-.54-2.7,1.64s-1.62-2.7-3.78-3.23.53-2.17-2.16-.54-.54,2.17-2.7,1.64,1.07-4.34-2.16-.53-.53,2.16-3.23,3.8l-2.69,1.63h0l-8.27-2c-2-2.8-3.63-5.5-3.63-5.5s1.07-4.33-1.62-2.7l-2.7,1.64-3.79-3.23-4.85,1.1s2.69-1.64-2.16-.53-6.54,3-6.54,3c-3.71,1.39-3.47-.85-3.47-.85L1735.2,250s2.7-1.64.54-2.17l-2.17-.53-4.32-1.07-2.69,1.64-2.7,1.63a1.78,1.78,0,0,1-2.76.34l-1.56-1.4-3,.57-3-4.33s-.54,2.16-2.16-.54a6.88,6.88,0,0,0-3.79-3.23c-2.7,1.64-4.32-1.06-4.86,1.1s-.78,2.43-3.08,2.85a6.69,6.69,0,0,1-4.47-1.1,6.67,6.67,0,0,0-2.58-.2c-1.74.13-2.4,1.16-4-1a44.18,44.18,0,0,0-5.35-5.37l-1.63-2.7s-2.69,1.64-4.85,1.1.53-2.16-2.16-.53a6.85,6.85,0,0,1-4.86,1.1l-3.19,1.88a2.43,2.43,0,0,1-4-1c-1.49-3-3.12-5.73-3.12-5.73l-1.62-2.7-9.74-7-4.85,1.1-6.48-1.6s-7,.57-6.49-1.59l.54-2.17-4.32-1.07-2.16-.53-1.63-2.7-2.16-.53-4.32-1.07h0l-1.09-4.86-1.63-2.7-6.48-1.6a2.18,2.18,0,0,1-2.7,1.63c-2.16-.53.54-2.16-2.16-.53l-2.69,1.64s-4.86,1.1-4.32-1.07l.53-2.17-1.09-4.86-1.63-2.7-1.62-2.7-1.63-2.7h0l-3.88-3.24Z"/><circle class="cls-5" cx="359.98" cy="226.67" r="4.05"/><path class="cls-18" d="M157.62,711.73,131,744.07,93.55,986.83c1,8.65,3.58,15.59,19.17,16.25-1.42,24.26,139.89,51.35,143.54,27.61,14.19,1.56,23.5-2.14,27.35-11.73l41.8-241.12-15.75-42.68C326.88,718.07,156.78,682,157.62,711.73Z"/><ellipse class="cls-19" cx="234.1" cy="720.1" rx="15.39" ry="76.86" transform="translate(-513.26 841.79) rotate(-81.24)"/><ellipse class="cls-20" cx="234.58" cy="727.01" rx="4.88" ry="17.21" transform="translate(-519.68 848.12) rotate(-81.24)"/><ellipse class="cls-21" cx="236.12" cy="716.99" rx="10.13" ry="6.88" transform="translate(-508.47 841.16) rotate(-81.24)"/><path class="cls-12" d="M164.59,883.15c-4.07-.63-9.78-1.92-13.32-2.47l-2.65-.41c-7.85-1.2-11.33-1.33-12.69-1.53-.35-.06-.44-.25-.28-1.29s.31-1.2.67-1.2H139c.61,0,.75-.12.84-.7l5.4-35.07c.09-.57,0-.71-.58-.91l-2.53-.81c-.35-.11-.44-.3-.28-1.35s.31-1.19.66-1.14c1.36.21,5.07,1.2,12.91,2.41l2.3.35c4.13.64,8,.81,12.56,1.52,8.85,1.37,13.13,6.11,12.34,11.2-.72,4.69-4.62,8.06-11.39,8.14l0,.23c7.93,1.82,12.32,7,11.28,13.77C181.28,881.4,174.2,884.63,164.59,883.15Zm-6-21.9-.88-.14-2.07,13.43a4.31,4.31,0,0,0,.54,3.52,4.94,4.94,0,0,0,3,1.46c3.31.51,5.58-1.69,6.24-6C166.4,866.72,162.62,861.88,158.55,861.25Zm3-19.26-.24,0c-.59-.09-.72,0-.81.59l-2.46,16,1.35.21c3.54.54,6-2.46,6.63-6.56C166.85,847,165.41,842.58,161.58,842Z"/><path class="cls-12" d="M201.06,870.11a18.54,18.54,0,0,0,3,7.93c1.9,2.54,3.4,3.37,5.52,3.69a8.33,8.33,0,0,0,6.09-1.49c.6-.38,1.91,1,1.58,1.49-3.33,5.53-10.59,8.44-17,7.46-8.79-1.36-14.66-8.3-13.25-17.45,1.43-9.31,9.52-14.41,20-12.79,8.79,1.36,12.92,6.26,12.06,11.81a6,6,0,0,1-.35,1.49.62.62,0,0,1-.71.31C213.38,872.07,206.64,871.15,201.06,870.11Zm6.51-5.81c.34-2.2-.42-3.5-2.07-3.75-1.83-.28-3.91,1.05-4.45,4.52a20.62,20.62,0,0,0-.14,3.71l1.92.06C205.59,869,207.12,867.25,207.57,864.3Z"/><path class="cls-12" d="M235.14,875.36a18.36,18.36,0,0,0,3,7.93c1.9,2.54,3.4,3.37,5.52,3.7a8.43,8.43,0,0,0,6.09-1.49c.6-.39,1.91.94,1.58,1.48-3.33,5.53-10.6,8.44-17,7.46-8.78-1.36-14.65-8.3-13.24-17.45,1.43-9.31,9.52-14.4,20-12.79,8.78,1.36,12.92,6.26,12.06,11.82a6,6,0,0,1-.35,1.48.63.63,0,0,1-.71.31C247.46,877.32,240.72,876.4,235.14,875.36Zm6.51-5.81c.34-2.19-.43-3.5-2.08-3.75-1.82-.28-3.9,1.05-4.44,4.53A20.53,20.53,0,0,0,235,874l1.93.06C239.66,874.22,241.2,872.5,241.65,869.55Z"/><path class="cls-12" d="M286.24,877.08c-.84,5.5-4.51,7.71-7.28,7.29a5.63,5.63,0,0,1-3-1.72,7.15,7.15,0,0,0-3.13-2,1.33,1.33,0,0,0-.8.06l-2.3,14.93c-.09.57,0,.71.6.86l3.71,1c.34.12.43.31.27,1.35s-.3,1.2-.66,1.14c-1.35-.21-5.12-1.2-11.2-2.14-4.3-.66-8.26-.86-9.61-1.07-.35,0-.46-.18-.29-1.28s.31-1.2.67-1.21l2.07-.09c.61,0,.73-.07.82-.64l2.36-15.28c.09-.58,0-.65-.59-.86l-2-.66c-.34-.11-.44-.24-.3-1.17s.27-1,.64-1a67.65,67.65,0,0,0,15.39-5.8.75.75,0,0,1,.49-.1c.42.06,1.47.7,1.4,1.1-.14.93-1.1,5.58-1.68,9.34,2.64-5.34,6.6-9.11,10.2-8.56S286.73,873.9,286.24,877.08Z"/><path class="cls-8" d="M1740.91,495.67c21.23-8,42-8.34,62.39,0-1.78,75.16,17,135,12.77,202.45,13,9.49,30.81,38.3,30.31,76.38l2.69,222.26c22.77,50.51-170,65-152.7,0l-1.1-222.54c.32-26.05,8.44-50.57,29.88-72.46C1723.57,625.61,1739.7,564.77,1740.91,495.67Z"/><rect class="cls-22" x="1694.84" y="774.5" width="152.75" height="127.29" rx="4.17"/><path class="cls-9" d="M1716.07,836.7c1,0,1.17.12,1.3.59,1.18,4.07,2.94,9.33,4.38,11.22,1.26,1.65,2.57,2.71,4.73,2.71,3.25,0,4.83-2.18,4.83-5.49s-1-5.37-5.91-7.73c-8-3.78-10.73-8-10.73-15,0-8.15,6.63-13.34,17.68-13.34a21.42,21.42,0,0,1,5.63.7c.9.24,1,.36,1,1.54v10.51c0,.47-.18.59-1.21.59s-1.18-.12-1.31-.59c-.81-2.83-1.63-6.32-2.8-7.85a4.79,4.79,0,0,0-4.15-2.31c-2.3,0-4,1.66-4,5,0,3.55,1.12,5.44,5.27,7.5,7.85,3.9,10.78,8.09,10.78,14.35,0,8.56-5.82,14.76-15.42,14.76a32.83,32.83,0,0,1-11-1.77c-.9-.3-1-.47-1-1.65,0-3.72.45-11.7.63-13.11C1714.89,836.82,1715,836.7,1716.07,836.7Z"/><path class="cls-9" d="M1757.78,822.65c7.85,0,13.26,5.78,13.26,15.35,0,10-5.82,15.82-14.16,15.82-7.84,0-13.26-5.79-13.26-15.35C1743.62,828.43,1749.44,822.65,1757.78,822.65Zm.36,28.1c.55.71.95.89,1.4.89.9,0,1.67-.77,1.67-3.9,0-6.2-2.75-19.49-4.69-22-.54-.7-1-.88-1.4-.88-.9,0-1.66.77-1.66,3.9C1753.46,834.93,1756.21,848.21,1758.14,850.75Z"/><path class="cls-9" d="M1802.52,849.45c0,1-.09,1.12-.36,1.18a97.78,97.78,0,0,0-9.69,3.13c-.36.12-1.45-.24-1.58-.82a45.36,45.36,0,0,1-.9-5.79c-1.54,4.54-4.11,6.67-7.31,6.67-4.69,0-9.38-6-9.38-16,0-10.27,4.92-15.17,12.36-15.17a12.29,12.29,0,0,1,4,.64v-8.73c0-.59-.09-.71-.54-.83l-1.53-.47c-.27-.06-.36-.24-.36-1.24s.09-1.12.36-1.18c3.38-.83,8-2.19,11.13-3.31a2.2,2.2,0,0,1,.55-.12c.31,0,1.17.47,1.17.89,0,1-.36,5-.36,12.28v26.33c0,.59.09.71.54.83l1.53.47C1802.43,848.27,1802.52,848.45,1802.52,849.45Zm-13.3-3.07a.73.73,0,0,0,.54-.24v-7c0-5.26-1.8-11.63-3.29-13.58a2.06,2.06,0,0,0-1.62-1c-.95,0-1.58,1.13-1.58,3.43,0,5.55,2.43,14.52,4.87,17.71C1788.59,846.26,1788.91,846.38,1789.22,846.38Z"/><path class="cls-9" d="M1816.24,846.32c-1.44,4.72-4.19,7.5-7.49,7.5-3.47,0-5.86-3.66-5.86-8.26,0-3.61.86-5.67,3.2-7.33,2.12-1.47,5.5-2.77,9.79-4v-1.89c0-4.25-1-6.85-2.71-6.85-.45,0-.63.18-.72.94l-.32,2.84c-.45,4.25-2.34,6.26-4.86,6.26-1.4,0-2.67-1.13-2.67-3.31,0-3.78,5.6-9.56,12.5-9.56,6.13,0,9,3.18,9,8.91v10.87c0,4.72.73,4.84,1.94,3.77.14-.12.18-.17.27-.17.41,0,1.09,1.3,1.09,1.65s-.18.53-.46.88l-.17.24c-2.71,3.54-4.65,5-6.86,5C1819.26,853.82,1817.37,851.46,1816.24,846.32Zm-.36-.88v-4.2a4.72,4.72,0,0,0-1-3,2.53,2.53,0,0,0-1.76-1.12c-.9,0-1.3.71-1.3,2.48,0,3.31,1.71,6.2,3.2,6.2A1,1,0,0,0,1815.88,845.44Z"/><path class="cls-23" d="M1300.61,167.23c13.07,31.49,21.67,61.38,15.12,85.84L1307,281.35c27.19,24.74,53.52,32.88,78.39,12.47a286.55,286.55,0,0,1,56.56-113.88c-9.92,3.26-18.91,3.74-26.93,1.29-7.94,15.1-17.18,25.31-28.25,28.65-5.3-13.52-6-27.63.35-42.62-12.71,2.36-23.81.15-32.47-9,.08,3.88-.81,5.42-3.27,3.26-2.83,18.85-6.87,35.79-13,49.38-10.13-17.5-15.79-33.25-18.47-47.36C1315.7,168.11,1309.19,169.21,1300.61,167.23Z"/><path class="cls-18" d="M1283.1,156.54q19.44,23.4,40.5,7.18c12.63,11.43,23.31,10.69,32.08-1.9,11.64,13,24.62,15.15,39.16,4.63,12.05,14.45,27.88,19.5,47.66,14.73,4.16,4.75,10.13,4.1,16.61,1.93,24.85,4.46,37-4.36,35.22-27.56,26.34-5.75,31-58.78-7.12-59.88,13-10.94-12.64-31.67-31.71-18.35-1.61-5.95-5.32-10.14-15.37-9,17.58-22.33-37.53-47.91-53.46-24-7.58-3.3-15.29-3-23.19,2.45,5.66-21.75-52.18-24.67-51.54,4.36-9.29-11.41-25.35-7.83-29.2,8.07-30.8-21.27-64.57,43.05-36.37,48.56C1214.32,118.13,1255.5,185.33,1283.1,156.54Z"/><path class="cls-24" d="M1021.15,961.32q-4.42-5.57-14.64-9.87l4.83-6.52c8.13,5.37,14.35,11.05,16.22,17.45l-4-13,3.18-.69c-.69-4.64-8.5-8.67-16.91-12.64l5.18-6.84c5.51,3,10.18,6.22,12.26,10.39l-3.79-9.78,7.16-1.56.73,3.35,4.72-1.27c-1.2-3.78-1.46-6.87-.27-8.91l5-.26,2.79,12.83.71-.54-1.4-10.3,5.57-1.21,2.32,10.65c0-6.63,1.35-11.87,4.26-15.34l5.41-1.18c-1.94,3.81-2.68,6.55-1.59,7.69l4.77-1-1-4.79,5.6-1.1,1.58,7.27,2.33-.77-2.73-12.59,6.93-1.5L1078.5,926c-1.53-6.23-1.64-11.07.31-13.93l5.57-1.21a25.89,25.89,0,0,0,.32,13l.58-5,6.36-1.39,2.24,10.32a41.33,41.33,0,0,1,5.62-20.18l5.46,2.08c-1.65,3.55-3.22,7.07-2.12,9.43l7.62-3.29c-.67,4.88-1.19,8.69-1.61,11.77l2.68-6.84,4.91,1c-3,6.83-5.18,13.37-4.72,19l-8,24.57-9.23,15.06-19.17,20-18.65-6-22.2-13.94-8.57-8.74Z"/><path class="cls-25" d="M1013.7,965.39l12-2.61,8.84,10.31,9.36,8.57,8.18,3.12,10.34,5.1,9.88,3.56,10.67-8,6.52-8.76,7.1-8.88,3.84-9.81,3.21-12.12,10.93-2.37,6.91,84.51c-21.34,18.28-46.63,25.34-77.38,16.81Z"/><path class="cls-23" d="M422.7,1013.51c15.53,7.64,28.82,16.16,34.52,27.68l6.14,13.71c18.66.34,31.42-5.38,34.08-21.49A145.42,145.42,0,0,1,480.87,971c-2.69,4.56-6,7.76-9.84,9.51,2,8.42,1.93,15.41-1.18,20.39a27.56,27.56,0,0,1-14.14-16.38c-4.06,5.16-9,8-15.39,7.46,1.33,1.45,1.51,2.34-.15,2.34,5.23,8.14,9.37,15.95,11.58,23.19a76.6,76.6,0,0,1-22.91-11.88C428.76,1008.79,426.64,1011.39,422.7,1013.51Z"/><path class="cls-18" d="M412.45,1015.3q15.24,2.41,17.85-10.83c8.65.13,12.47-3.72,11.6-11.47,8.81,1.08,14.46-2.46,16.49-11.34,9.43,1.47,17.16-1.9,23.11-10.35,3.17.42,5.24-1.83,7-4.83,11-6.62,12.64-14,4.21-22.31,8.12-11-7.87-32.79-22.78-20.45,1.3-8.52-15.43-7.85-18.24,3.62-2.6-1.73-5.42-2.09-8.88,1.71-.77-14.41-30.36-5.71-28.43,8.75a11.38,11.38,0,0,0-8,8.7c-5.13-10.19-28.17,8.06-18.21,18.92-7.36-1.24-12.29,5.51-8.43,12.86-18.88,2.2-10.21,38.05,2.39,30.71C373.35,1023.68,411.56,1035.52,412.45,1015.3Z"/><path class="cls-26" d="M51.1,636.21Q40,654.11,61.34,662.89l72.4-3.36,58.1-29.4c15.94-11.66,12.89-19.49,1.52-25.64Z"/><path class="cls-27" d="M200.35,621.79c-4.67,44.29-112.56,78.36-144.16,38.92C56.19,660.71,160,649.82,200.35,621.79Z"/><path class="cls-28" d="M53.8,617.09,36.6,647.38c16.4-7.13,28.76-6.9,38.15-1.23,12.61-.89,21.93,2.09,29.27,7.37l7.32,6a84.54,84.54,0,0,1,24.45-25.8c26.22-11.47,51.58-19.36,75.93-23-2.55-12-12.54-18.61-25.48-23.09Z"/><path class="cls-29" d="M59.09,618.58c12.19,47.48,128.3,5.42,116-30.2Z"/><path class="cls-30" d="M38.24,600.76l-2.13.6-1.45.4.46,1.61c-1.21,2.15-1.95,3.54-1.95,3.54l1.36.81c2.71,1.6,3.76,1.31,3.76,1.31l.62,2.19-3.15.89-1,.29-1.79,1.69s1.09-.15.48,1.72l-.6,1.86h0l.33,1.2c.28,1-.05.32-.62,2a5.21,5.21,0,0,0-.27,2.83s.39,1.41.35,1.25.62,1.2,1.71-.47a4.49,4.49,0,0,1,2.13-2s.83-1.1,2.08,1.35l1.25,2.45L41,626l3.81-2c.55,2-1.12.07.55,2L47,627.9h0s1.76-1.68,2.61-.73,5.11-.26,5.3-1.49,1.36-5.12,1.36-5.12-2.45,2-.76,2.63-1.34-2,1.68.66,4.07,2.41,4.07,2.41l1-.28,2.65-.74,3.38-2.14,1.48-2.78,1.36.8,1.36.81s.34-.1,2,.6l1.71.71,1.49-.42-.4-1.41,1.14-2.35a1.46,1.46,0,0,1,2.09-.59c1.36.81.44-2.49,1.36.81l.92,3.29,1.46-.41,1.2-.34L87.78,620s-2.1.56-.46-1.66L89,616.12h0s-.62-2.2,1.36.8a4.5,4.5,0,0,0,4.82,2.2l2.16-.61,2.65-.74,1.48-1.6c2.28,4.09.92,3.29,2.28,4.09l1.35.81,6.15.61,1.9-.53,1.4-2.73,1.79-1.69s-.31-1.1,1-.29,3.81-.54,3.81-.54-1.53.62-.35-1.26-.06-6.26,1.17-1.87l1.23,4.39,1.79-1.69,1.79-1.68-.28-1,1-.38s-1.35-.8,1.05-.29-.31-1.1,2.41.51l2.71,1.6,2.1-.59.44-2.48a1.09,1.09,0,0,0,.74-1.4l-.31-1.09,1.48-2.79,1.36.81c2.71,1.6,3.76,1.31,3.76,1.31l1-.3,1.49-2.78.74-1.39.74-1.39s-.31-1.1,1.05-.3a3.31,3.31,0,0,0,2.4.51l1.36.8s.62,2.2,1.67,1.9l1-.29,2.4.51,3.15-.89a3.28,3.28,0,0,0,1.79-1.68l.74-1.4-.3-1.08,2.4.5,1.79-1.69-.49-5.78h0a67.2,67.2,0,0,1,7.84,3.72l1.05-.3a1.1,1.1,0,0,0,1.35.81c1.05-.3-1.35-.81,1.05-.3a5.05,5.05,0,0,0,4.2-1.18l1.79-1.68.44-2.49h0c2.4.51,1.22.32,2.64,1.36l1.43,1.05,3.82-2.52-.71-2.52.9-.82,2-1.61c1.18.72-.18-.08,1.18.72s2.41.51,2.1-.59-2.43-.59-.63-2.23,1.93-5.23,1.93-5.23a5.24,5.24,0,0,0,3.46.21l.43-2.49a14.21,14.21,0,0,0-3.61-2.92s-3.11,1.67,1.21-.34l4.32-2-.36-1.25s1.4.92-.42-1.51l-1.81-2.43-.31-1.1,1.24-1.39-.35-1.26s.28-1.23-2.86-.35-3.89,2.28-3.89,2.28l-2.1.59-.31-1.1A1.08,1.08,0,0,0,194,563a4,4,0,0,0-1.66-1.9l-2.1.59c-1.05.29,1.48-2.79-1.05.29L186.69,565l-2.1.59Z"/><path class="cls-27" d="M39.29,600.46C19.51,542.1,186.54,500,186.07,562.82L183.85,567l-4.54,0-3.12,1L175,569.48l0,2.36a15.27,15.27,0,0,1-2.54,3.08l-2,.57-2.17.61L168,575l-1.67-1.9-3.14.89.61,2.19-.31,1.27-1.21.34-1.32.37h0c-.74,1.39-2.1.59-1.79,1.69s1-.3.31,1.1.31,1.09-.74,1.39l-1.05.29-2.67.75-1.53.43-.88.25-.17,0a4,4,0,0,1-1.66-1.9l-.31-1.09h0l-1.79,1.68h0a1.11,1.11,0,0,0-1.36-.8l-1.05.29-.74,1.4a3.73,3.73,0,0,0-2.41-.51c-1,.29-.3-1.1-1,.29s.31,1.1-.74,1.39-.61-2.19-1.05.3.31,1.1-.43,2.49l-.74,1.39h0l-4,1.13c-1.54-.76-2.89-1.56-2.89-1.56s-.62-2.19-1.36-.8l-.74,1.39-2.41-.51-1.79,1.69s.74-1.39-1,.29a6.43,6.43,0,0,0-2,2.94c-1.23,1.53-1.69.48-1.69.48l-2.26-.55s.74-1.39-.31-1.1l-1,.29-2.1.59-.74,1.39-.75,1.4s-.08,1.07-1.09.83l-1-.24-1.13,1-2.33-1.2s.31,1.1-1,.3a3.28,3.28,0,0,0-2.41-.51c-.74,1.39-2.1.59-1.79,1.68s.27,1.28-.61,2a3.1,3.1,0,0,1-2.16.61,3.25,3.25,0,0,0-1.15.55c-.71.48-.74,1.11-1.93.54a21.55,21.55,0,0,0-3.59-1.08l-1.36-.8a3.78,3.78,0,0,1-1.79,1.69c-1.05.29-.31-1.1-1.05.29a3.33,3.33,0,0,1-1.79,1.69l-.89,1.62a1.17,1.17,0,0,1-1.93.54c-1.38-1-2.73-1.79-2.73-1.79l-1.36-.8-5.86-.72L73.1,604l-3.14.89s-2.84,2-3.15.88l-.31-1.1-2.1.59-1.05.3L62,604.74l-1,.3-2.1.59h0l-1.67-1.9-1.35-.8-3.15.88a1.1,1.1,0,0,1-.74,1.39c-1,.29-.31-1.1-1,.29l-.75,1.4s-1.79,1.68-2.09.59l-.31-1.1-1.67-1.9-1.35-.8-1.36-.81-1.36-.8h0l-2.45-.49Z"/><circle cx="359.15" cy="224.82" r="16.2"/><circle cx="436.73" cy="189.98" r="16.2"/><path class="cls-5" d="M375.79,254.74C407.58,253.08,433.5,240,455.4,219Z"/><circle class="cls-5" cx="440.42" cy="188.32" r="4.05"/><circle class="cls-5" cx="362.34" cy="224.5" r="3.04"/><path class="cls-31" d="M345,237.83c18.25,23.41,30.29-7.38,33.25-14.93"/><path class="cls-31" d="M424.44,202.16c18.26,23.41,30.3-7.38,33.25-14.93"/><path class="cls-32" d="M401.4,532.24C406,217.81,658,363.47,658,363.47c153.61-181.45,263.18-120,363-4.63,150.57-139.46,245.16-110.67,311,4.63,169.25,6.06,268,72.2,196.52,283.21,7.81,136.25-54.76,204.18-239.29,153.75-159.61,52.41-267.52,36.49-285.53-98.26,39.35,150.77-189.33,36.25-278.59,89C614.41,856.6,388.45,819.05,482.32,673.27,365.15,680,339.57,632.16,401.4,532.24Z"/><path class="cls-33" d="M565.32,387.29a5.52,5.52,0,0,1-2.48-.19,3.69,3.69,0,0,0-2.53.07l-9.89,6,15.73,62.26a22.6,22.6,0,0,0,3.34,7.08c.48.72.79,2.24.93,4.55q.3,3.82-.81,5.12a2.92,2.92,0,0,1-1,.38,43.73,43.73,0,0,1-10,.88c-4.89,0-7.88-.48-9-1.38-1.34-1.17-1.78-3.07-1.34-5.7a13.26,13.26,0,0,0,.22-4.84L533.72,403l-6.86,4a6,6,0,0,0-1.46,1.44,2.51,2.51,0,0,1-1.87,1.16q-2.58-.1-8.34-5.38t-5.81-7.66c.09-2,1.38-3.75,3.84-5.38a6.16,6.16,0,0,1,2.68-.8,7.22,7.22,0,0,0,2.61-.66L552.09,370a23.85,23.85,0,0,0,2.66-2.19,5.37,5.37,0,0,1,7.49.25,25.8,25.8,0,0,1,2.9,4.93,38.86,38.86,0,0,1,3.08,7.79,11,11,0,0,1,.43,4.11C568.5,385.88,567.39,386.69,565.32,387.29Z"/><path class="cls-33" d="M642.46,447.88q.35,3.57-1.19,5a6.77,6.77,0,0,1-2.51,1,36.25,36.25,0,0,1-8.75.88c-3.47,0-5.66-.31-6.55-.92a2.48,2.48,0,0,1-.78-1.32,13.88,13.88,0,0,1,.05-3.78c.25-.74.53-1.54.83-2.42a5.45,5.45,0,0,0,0-3.08q-11.58-46.7-12.5-46.83-1.71-.19-5,10.45-3.56,11.36-2.06,17.27l6.64,26.28a5.87,5.87,0,0,1,2.4,4.68q.3,3.82-2.08,5.81a2.64,2.64,0,0,1-1.19.55,34.66,34.66,0,0,1-8.6.6q-5.79-.11-6.49-.69a4.94,4.94,0,0,1-1.31-4.32,4.14,4.14,0,0,1,.67-1.5,2.59,2.59,0,0,0,.45-1.94l-21.14-83.67a5.86,5.86,0,0,0-1.46-2.28,3.57,3.57,0,0,1-1.18-2.47,4.35,4.35,0,0,1,2.42-4c1-.6,3.74-.82,8.14-.68q7.14.21,8.28,2.07a7.59,7.59,0,0,1,.67,4,24.67,24.67,0,0,0,.89,6.58l5.59,22.13q3.7-9.87,9.13-11.24c2.35-.6,5.65-.44,9.86.46s6.8,2,7.73,3.4q4.83,6.84,17.06,55.25A10.53,10.53,0,0,1,642.46,447.88Z"/><path class="cls-33" d="M688.81,416.91q1.4,1.53-1.4,11.56-3,10.71-7.42,15.35a4,4,0,0,1-1.79.82q-4.05,1-11.34-.15-7.7-1.08-10.72-3.84-8.28-7.35-12.26-23.09-3.76-14.93-1.33-27.62,2.6-13.87,11.38-16.35a19,19,0,0,1,8.29-.08,26.51,26.51,0,0,1,11,4.4q1.2.84,3.38,5.95a63.87,63.87,0,0,1,3.86,10.86q2,8.05.52,11.71a74.91,74.91,0,0,1-20.77,9.9,48.8,48.8,0,0,0,4.33,11.88c2.05,4,3.6,5.93,4.67,5.74q2.1-.4,4-5.17a18.7,18.7,0,0,0,1.76-6.61,67,67,0,0,1,.13-7.84c1.07-.44,3.41-.36,7,.24S688,415.94,688.81,416.91Zm-27.69-31.54q-1.83.21-3.33,7.64a37.91,37.91,0,0,0-.5,13.6,12.53,12.53,0,0,0,6.84-4.5q1.3-1.83-1.32-12.25Q661.7,385.48,661.12,385.37Z"/><path class="cls-34" d="M700.67,601.43c0,3.22-.23,3.76-.93,3.76-2.66,0-11.8-1.25-21.41-1.25s-18.88,1.25-21.54,1.25c-.69,0-.92-.54-.92-3.76s.23-3.77.92-3.95l5.1-1.25c1.15-.36,1.39-.72,1.39-2.51V541.2H637.69v52.52c0,1.79.23,2.15,1.39,2.51l5.09,1.25c.7.18.93.72.93,3.95s-.23,3.76-.93,3.76c-2.66,0-11.81-1.25-21.42-1.25s-18.87,1.25-21.53,1.25c-.69,0-.93-.54-.93-3.76s.24-3.77.93-3.95l5.09-1.25c1.16-.36,1.39-.72,1.39-2.51V485.1c0-1.79-.23-2.15-1.39-2.51l-5.09-1.25c-.69-.18-.93-.72-.93-3.94s.24-3.77.93-3.77c2.66,0,11.81,1.26,21.42,1.26s18.87-1.26,21.53-1.26c.7,0,.93.54.93,3.77s-.23,3.76-.93,3.94l-5.09,1.25c-1.16.36-1.39.72-1.39,2.51v47.14h25.59V485.1c0-1.79-.24-2.15-1.39-2.51l-5.1-1.25c-.69-.18-.92-.72-.92-3.94s.23-3.77.92-3.77c2.66,0,11.81,1.26,21.42,1.26s18.87-1.26,21.53-1.26c.7,0,.93.54.93,3.77s-.23,3.76-.93,3.94l-5.09,1.25c-1.16.36-1.39.72-1.39,2.51V593.72c0,1.79.23,2.15,1.39,2.51l5.09,1.25C700.44,597.66,700.67,598.2,700.67,601.43Z"/><path class="cls-34" d="M797.45,601.43c0,3.22-.23,3.76-.92,3.76-2.67,0-10.19-1.25-18.64-1.25-6.14,0-23.27,1.25-25.94,1.25-.69,0-.92-.54-.92-3.76s.23-3.77.92-3.95l6.83-1.43c1.16-.18,1.39-.72.81-2.51l-6-19.54H728.22c-3.82,17.21-2.89,18.29.12,20.08l6,3.4c.69.36.92.9.92,4.13s-.23,3.58-.92,3.58c-2.67,0-10.08-1.25-16.21-1.25s-11.93,1.25-14.59,1.25c-.7,0-.93-.36-.93-3.58s.23-3.59.93-4.13l3.82-2.68c3.47-2.51,3.94-3.59,11.69-27.79l11.81-36.56c6-18.64,13.32-42.84,16.56-55,.58-2.15,1.16-2.68,4.17-2.68s3.58.53,4.16,2.68c3.25,12.19,10.08,36.39,15.86,55l19.57,63.09c.58,1.79.58,2,1.74,2.51l3.59,1.43C797.22,597.84,797.45,598.2,797.45,601.43ZM750.8,565l-11.7-37.82L730.19,565Z"/><path class="cls-34" d="M897.13,477.4c0,3.22-.23,3.58-.93,3.94l-5.09,2.87c-3.48,2-3.59,2.51-4.4,27.6l-1,34.59c-.24,6.28-.24,9-.24,13.44-.11,10.4.58,31.91.58,38v3.59c0,3.58-.23,3.94-2.54,3.94h-1.63c-2.31,0-2.77-.36-5.09-3.59l-58.7-81.55,2.55,47c1,25.1,1.51,25.81,4.86,27.43l6.26,2.86c.69.36.92.72.92,3.95s-.23,3.76-.92,3.76c-2.67,0-8.8-1.25-16.33-1.25-7.29,0-13.08,1.25-15.74,1.25-.7,0-.93-.54-.93-3.76s.23-3.59.93-3.95l5.09-2.86c3.47-2,3.82-2.33,4.4-27.43l1.74-75.1c.11-5.37-1.39-8.6-4.87-9.5l-5.09-1.25c-.7-.18-.93-.72-.93-3.94s.23-3.77.93-3.77c1.5,0,10.65,1.26,14.47,1.26s9-.36,13.31-.36c1.16,0,1.51.18,2.67,1.79l45.5,62.55-1.62-27.06c-1-25.09-1.51-26-4.87-27.6l-6.25-2.87c-.69-.36-.92-.72-.92-3.94s.23-3.77.92-3.77c2.66,0,8.8,1.26,16.33,1.26,7.29,0,13.08-1.26,15.74-1.26C896.9,473.63,897.13,474.17,897.13,477.4Z"/><path class="cls-34" d="M956.63,472.74c10,0,18.64.53,25.35,2.68,2.32.72,2.55,1.08,2.67,4.67.58,12.9.81,22,.81,35.13,0,1.43-.47,1.79-3.13,1.79s-3-.36-3.36-1.79c-2.43-10.76-4.86-17.93-9.72-25.46-4.17-6.45-8.45-9.14-15.86-9.14-11.58,0-21.3,12-21.3,40.33,0,33.16,6.36,59.86,14.47,72.41,2.31,3.59,5.32,5.56,7.41,5.56,4.63,0,5.67-2,5.67-6.46v-40c0-1.8-.23-2.16-1.39-2.51l-5.09-1.26c-.7-.18-.93-.72-.93-3.94s.23-3.77.93-3.77c2.66,0,11.81,1.26,21.42,1.26S993.45,541,996.11,541c.69,0,.92.54.92,3.77s-.23,3.76-.92,3.94L991,550c-1.16.35-1.39.71-1.39,2.51v36.56c1.62-.18,2.77-.54,3.24-.54.92,0,1.15.36,1.15,3.77,0,2.86-.11,3.22-.92,3.76-11.69,7-26.28,10.75-44.23,10.75-27.9,0-49.09-24.91-49.09-66.13C899.78,497.11,926.88,472.74,956.63,472.74Z"/><path class="cls-34" d="M1050.4,472.74c25.7,0,44.57,24.37,44.57,66,0,42.11-19,68.1-48.85,68.1-25.59,0-44.46-24.55-44.46-65.78C1001.66,498.9,1020.65,472.74,1050.4,472.74Zm-2,120.8c2.32,3.59,4.75,4.66,6.83,4.66,5.79,0,8.57-6.27,8.57-25.09,0-35.13-7.53-74.56-15.63-87.11-2.32-3.59-4.75-4.66-6.83-4.66-5.79,0-8.57,6.27-8.57,25.27C1032.8,541.56,1040.33,581,1048.43,593.54Z"/><path class="cls-34" d="M1186.2,477.22c0,3.22-.23,3.58-.93,4.12l-3.82,2.69c-3.47,2.51-3.94,3.58-11.69,27.78L1158,548.37c-6,18.64-13.31,42.84-16.56,55-.58,2.15-1.15,2.69-4.16,2.69s-3.59-.54-4.17-2.69c-3.24-12.19-10.07-36.39-15.86-55l-19.57-63.09c-.58-1.79-.58-2-1.74-2.51l-3.58-1.43c-.7-.36-.93-.72-.93-3.94s.23-3.77.93-3.77c2.66,0,10.18,1.26,18.64,1.26,6.13,0,23.27-1.26,25.93-1.26.69,0,.92.54.92,3.77s-.23,3.76-.92,3.94l-6.83,1.43c-1.16.18-1.39.72-.81,2.51l20.49,66.32,9.15-38.89c5.78-24.92,5-26,1.62-28l-6-3.41c-.7-.36-.93-.9-.93-4.12s.23-3.59.93-3.59c2.66,0,10.07,1.26,16.2,1.26s11.93-1.26,14.59-1.26C1186,473.63,1186.2,474,1186.2,477.22Z"/><path class="cls-34" d="M1272.44,555.9c-1.62,14.7-3.82,32.08-5.67,45.35-.46,3.58-.69,3.94-3,3.94-7.87,0-18.18-1.25-30.8-1.25h-12.15c-15.4,0-29.06,1.25-31.72,1.25-.7,0-.93-.54-.93-3.76s.23-3.77.93-3.95l5.09-1.25c1.16-.36,1.39-.72,1.39-2.51V485.1c0-1.79-.23-2.15-1.39-2.51l-5.09-1.25c-.7-.18-.93-.72-.93-3.94s.23-3.77.93-3.77c2.66,0,14.7,1.26,35.89,1.26h2.43c13.08,0,33.23-1.08,39.71-1.08,2.31,0,2.55.36,2.55,3.95,0,12.72-.58,26.16-1.74,41.4-.12,1.43-.46,1.79-3.13,1.79s-3-.36-3.35-1.79c-3.13-14-3.94-18.82-6.84-29.4-.92-3.4-1.73-4.12-4-4.66a167.25,167.25,0,0,0-23.15-2.69h-.47c-1.15,0-1.38.36-1.38,2.16v48.21h8.56c2.32,0,2.78-.54,3.82-4.12l5.44-18.82c.35-1.08.47-1.26,3.13-1.26s2.89.36,2.89,1.8c0,10.39-.11,16.66-.11,26.88s.11,16.49.11,26.89c0,1.43-.23,1.79-2.89,1.79s-2.78-.18-3.13-1.26l-5.44-18.82c-1-3.58-1.5-4.12-3.82-4.12h-8.56v45.17a12.11,12.11,0,0,0,1.85,7,4.72,4.72,0,0,0,4,2.51,67.93,67.93,0,0,0,17.6-2.87c2.31-.72,3-1.43,4.4-5,4-10.75,8.1-22.76,12.38-34.41.47-1.26.7-1.43,1.39-1.43C1269.09,552.68,1272.67,554.11,1272.44,555.9Z"/><path class="cls-34" d="M1377.1,601.25c0,3.22-.23,3.76-.93,3.76-.92,0-11.92-.9-20.37-.9-6.49,0-13.55.9-15,.9s-2.09-.72-2.78-2.69c-5.21-14.87-11.12-32.08-18-48.75-2.55-6.27-3.24-7-6.83-7.35h-.46v47.5c0,1.79.23,2.15,1.39,2.51l5.09,1.25c.7.18.93.72.93,3.95s-.23,3.76-.93,3.76c-2.66,0-11.81-1.25-21.42-1.25s-18.87,1.25-21.53,1.25c-.7,0-.93-.54-.93-3.76s.23-3.77.93-3.95l5.09-1.25c1.16-.36,1.39-.72,1.39-2.51V485.1c0-1.79-.23-2.15-1.39-2.51l-5.09-1.25c-.7-.18-.93-.72-.93-3.94s.23-3.77.93-3.77c6.71,0,15.74,1.26,26.74,1.26h6.25c4.17,0,17-.72,24.9-.72,19.45,0,28.24,12.37,28.24,31.37,0,14.33-5.44,26.34-16.78,32.26,2.54,7.53,5.21,14,11.46,29.21,10.07,24.2,12.39,29,16.32,29.76l2.78.53C1376.87,597.48,1377.1,598,1377.1,601.25Zm-59.86-62.73c6.14,0,13.55-5.38,13.55-27.43,0-16.67-5.33-29-16-29h-.69c-1.16,0-1.39.35-1.39,2.15V537.8A12.61,12.61,0,0,0,1317.24,538.52Z"/><path class="cls-35" d="M1161.63,626.57c3.15.17,5.77.35,8.22-.53a12.44,12.44,0,0,1,5.08-.17,14.67,14.67,0,0,1,6.82,2.62,10.09,10.09,0,0,1,4.73,8,38.05,38.05,0,0,1-.53,10l-.52,5.42c-.18.88-.18,1.75-.7,2.1-2.28,1.4-1.75,3.85-2.8,6-1,0-2.1-.52-3.15,0-2.8,1-5.25-.35-6.3-3.32a9.71,9.71,0,0,1-.53-3.85c-.35-4-.52-8.05-.7-12.25-.17-2.1-.87-4.2-1.22-6.3a3,3,0,0,0-2.28-2.63c-5.25-1.75-10.5.18-13,5.08-1.75,3.67-3.85,7.17-4.9,11-1.57,6-3.15,11.9-2.45,18.2.53,4.55,0,9.1.18,13.48,0,3.67.35,7.17.17,10.85-.52,10.85,2.45,21.7,2.45,32.72,0,.53.18,1,.18,1.58-1.75,5.42.87,9.8,3.15,14.35,1.4,2.8,2.1,3,4.9,1.57,4.37-2.27,7.35-5.42,12.25-7a2.12,2.12,0,0,0,1.57-2.27c-.35-10.5.88-21.18.7-31.68a1.94,1.94,0,0,0-.17-.87c-3.68-1-7-2.63-11-2.1-1.75.17-1.92-1.75-2.45-2.8a1.66,1.66,0,0,1,1.75-1c4.73,0,9.28-1.75,13.83-2.28h.7c1.92-2.45,2.62-.7,3.5,1,.17.18.7.18,1,.35,1-1.57.35-3.5,1.57-5.07,1.58.17,2.8,1.4,4.55,1.4,1,0,1,1.05,1,1.92.35,3.33,1.05,6.65,1.05,10,.18,3.67,0,7.17.35,10.85.7,7.35.18,14.87.53,22.22.35,3.85.17,7.7.52,11.55a9.79,9.79,0,0,1-4.72,9.28c-.53.35-.53,1.22-1.4,1.4-3.33-3.5-5.43-8-8.93-11.38-1.4-1.22-1.22-3.32-1.92-4.9-1.23,0-1.75.88-2.28,1.58-2.45,3-4.72,6-8.57,6.82-1.75,2.45-3.68,2.1-6,3-2.63,1-5.6.87-8.4.52-2.45-.17-4.73-.52-7.18-.87-3.5-.53-8.22-2.1-9.62-6.65-.88-3-1.75-7-3-9.8-1.4-3.15-1.4-6.48-1.4-9.8,0-6.83-1.22-12.25-1.57-18.9-.18-4.55.7-8.93,1-13.3,0-1.93.35-3.85.17-5.6-.52-4.38.88-8.75.53-13.13-.53-6.12,1.75-11.72,3-17.67a14.45,14.45,0,0,0,.88-2.45c1-7.7,5.42-13.48,10.67-18.73,1.58-1.75,3.85-3.15,5.78-4.72a2.85,2.85,0,0,1,.87-.35c5.08,0,8.75-3.68,13-5.43,2.28-.7,4.55-.17,7.18-.52C1166.53,625.69,1163.73,624.82,1161.63,626.57ZM1130.13,668c-.35,4.2-.7,8.58-.88,13,0,.53.18,1,1.23,1a77,77,0,0,1,1.57-15.57c0-.18-.35-.53-.52-.88A2.49,2.49,0,0,0,1130.13,668Z"/><path class="cls-35" d="M1232.15,624.82c1-.35,2.63,4.37,3,5.95,0-4.38.7-7.53,3.15-.88,1.22,3.15,2.8,6.3,3.67,9.63.88,3.85,2.45,7.52,3,11.37.35,3,.7,2.1,2.1,4.73,2.45,4.37,2.27,9.45,3.5,14.17a209.37,209.37,0,0,0,7.87,22.93c2.28,5.6,3.15,11.72,4.38,17.85.35,1.57,0,3.32.35,5.07a156,156,0,0,0,6.47,19.25c1.58,3.68,3,7.88,2.63,12.43-.18,2.1-.35,4.37-3.33,4.72a1.55,1.55,0,0,1-1.57,1.93c-.88-.88-2.1-1.05-3-2.8-.35-.7-1.57-.35-1.75-1.23-.7-1.92-3.15-2.45-3.5-.87-.7,3.15-4,1.22-6.12,1.75a1.76,1.76,0,0,1-2.63-1.4c-1.92-5.78-3.85-11.38-5.25-17-1.22-4.72-3.67-9.1-4.55-14-.35-1.75-1.57-2.27-3.15-2.27-6.82.35-12.07-.18-19.07.7-1.58.17-4.55-.53-5.6.7-1,1-.88,3-1.4,4.55-.7,3.32-1.75,6.3-2.1,9.62l-1.4,12.08a38.93,38.93,0,0,1-.7,4.37c-.35,2.1-1.23,2.63-3.85,1.93-.7-.18-1.93-4-2.63-1.23-.35,1.58-1.75-2.8-1.57-4.55a142.42,142.42,0,0,1,4.2-22.92l.52-2.63c.35-2.45.35-2.27-1.92-3-1.23-.35-2.63-.53-3.33-1.93.7-1.57,2.28-1.22,3.5-1.4,4-1,3.5-.17,4-4.2.87-5.95,3.15-13.47,3.85-19.42a189.19,189.19,0,0,1,4.55-24.15,119.74,119.74,0,0,0,3-15.4c.88-5.25,1.75-10.5,2.45-15.58a7.21,7.21,0,0,0-.17-3.85c-.35-1.22-.53-3,1.22-3.67s3.5-2.8,5.6-1.58A8.77,8.77,0,0,0,1232.15,624.82Zm-8.75,29.4a32.5,32.5,0,0,1-1.57,10.85c-1.23,4.37-.7,9.1-2.28,13.47a68.62,68.62,0,0,0-2.8,13.48c-.7,6-1.75,11.9-2.8,17.85,5.78-.35,12.08-.53,17.68-.88a10.22,10.22,0,0,0,3.15-.7c2.62-.52,2.8-.87,1.92-3.32-1.57-4-2.1-8.4-3.32-12.6-1.05-3.5-1.23-7.35-2.45-11a61.34,61.34,0,0,1-3-13.65,62.49,62.49,0,0,0-3.5-15.4C1223.58,653,1223.23,653.69,1223.4,654.22ZM1250.88,682c.35-1.22-1.23-7.52-2.1-8C1247.38,675.39,1250.53,681,1250.88,682Z"/><path class="cls-35" d="M1303.55,624.82a38.63,38.63,0,0,0,4.2,7.35,17.21,17.21,0,0,1,2.8,7c3.33,12.77,6.65,27.3,9.8,40.07.88,4,1.75,8,3.15,12.78a56.8,56.8,0,0,0,2.28-11c.87-5.42,1.22-10.85,2.27-16.1,1-5.95,2.1-11.9,3.5-17.67,1-4.9,1.75-10.68,4-15.23,1.22-2.27,3.15-4.2,5.6-3.67l4.2.87a5.2,5.2,0,0,1,2.62,1.23c2.1,2.1,2.45,1.92,3.68-1,0-.18.17-.18.52-.53.88.35,1.58,1.58,2.8.53.53-.53,1.58-.18,2.45.17.53.18.88.7,1.4.88,6.13,1.92,6.48,6.82,6.65,11.9,0,.7-.17,1.4-.17,1.92.87,9.1-.7,18.2-.88,27.13,0,7.17.18,14.52.88,21.7.7,5.95.7,12.25,1.4,18.2.87,7.87.17,15.75.52,23.62.18,3.33.88,6.48.7,9.8-.35,3.68-1.92,5.08-5.77,4.2-.88.53-.53,1.4-.7,2.1-.7,1.4-1.75,1.75-3.33,1.4-3.85-.52-6.47-2.8-9.45-4.72-3.5-2.28-4.2-5.25-4.2-8.58-.17-5.07-.52-10,0-15.05a39.28,39.28,0,0,0-.35-9.1c-1.05-11-.87-21.87-1.75-32.9-.87-10.32-.7-20.65-2.1-31l-.52-1.4a19.39,19.39,0,0,0-2.45,6.12c-1.23,4.38-3,8.75-3.85,13.13-1.75,8.92-3.85,17.67-3.85,26.77,0,1.93-.53,3.85-.7,5.95-.35,3-1.75,6-.53,8.93,1,3-1.4,4.55-2.62,6.47-.35.7-1.23.35-1.75,0-1-.35-2.1-1-3.33-.87-.35,1.22-.35,2.27,1.4,2.27,1.75.18,2.28,2.63,3.15,3.68-.7,1-1.4.87-2.45,1-3,.35-6.47.17-7.52-1.23-1.4-1.75-1.75-1.57-3.68-2.62a15.23,15.23,0,0,1-6.12-7.88c-4.2-10.67-8.23-21.52-11.38-32.55-1.57-5.95-3.15-12.07-4.9-18a46.39,46.39,0,0,0-1.92-6c.7,3.5-1,6.82-.35,10.32.7,4.2,0,8.4.17,12.78.35,7,.18,14.35.7,21.35.53,6.12.88,12.25,1.75,18.2a42.2,42.2,0,0,1,.7,10.5,148.12,148.12,0,0,0-.35,17.5,3.44,3.44,0,0,1-.35,2.62c-1.4,1.93-2.62,2.28-5.25.88-.7.35-.52,1.4-1.57,1.57-.18-.35-.7-.52-.7-1l-.53-9.8.35-20.3a128.42,128.42,0,0,0-.87-18.37,305,305,0,0,1-1-38c.17-8.92-.18-19.6,0-28.7a14.25,14.25,0,0,0-.18-3.85c-.17-1.4.7-2.1,1.93-2.62a8.13,8.13,0,0,1,5.77.17c1.23-.52,1.23-1.75,1.93-2.45,2.45-2.45,2.8-2.8,6.12-1.4,1.93.7,4,1.58,4.9,4a1,1,0,0,0,1.23.52c.35-1.57-.35-3.32.52-4.72C1303,623.94,1303.38,624.29,1303.55,624.82Zm50,46c1.58-3.5,1.4-9.27-.35-11.37C1351.5,663.49,1353.43,666.82,1353.6,670.84Z"/><path class="cls-35" d="M1404.88,629.37a1.51,1.51,0,0,0,1.22,0c7.35-1.23,14.88-1,22.23-2.28,1.92-.17,3.85-.7,5.77-.7,3.5-.17,7.35,2.45,9.1,6.13a48.21,48.21,0,0,1-12.07,1.92c-4-.17-7.88-.35-11.9-.17-3.68.17-7.35,1.22-11,1.4-1,0-1.57.7-1.92,1.75-1.23,5.07-.18,10,.52,15.05.18,1.75,0,3.5,0,5.42a164.5,164.5,0,0,0,0,22.75c5.78-.87,11.38.7,17-.17,2.8-.53,4.37,1.92,6.65,3.5a7.14,7.14,0,0,1-3.85,2.1,17.75,17.75,0,0,0-5.08,1.22c-4,1.4-8.22,1.58-12.6,1.75-2.27.18-2.27.18-2.1,2.45.18,4.2.18,8.4,0,12.78-.17,4.55-.87,9.27-.52,14a15.79,15.79,0,0,1-.53,4.9,35.65,35.65,0,0,0-.87,13c.35,1.75,1,2.27,2.62,2.1,1.23,0,2.45-.53,3.85-.18a1.2,1.2,0,0,1,.88,1.23c-1.93,1.75-5.43-.18-7.53,2.45,1.4.7,2.45.17,3.5-.18,6.13-1.57,12.25-2.45,18.38-4.2,3.15-.87,6.47-.35,9.62-1.05a3.17,3.17,0,0,1,2.45.7c1,1,2.1,1.93,3.15,2.8-1,1.4-3,.7-4.2,1.58-.35,1,.7,1.57,1.05,2.45.88,1.22.53,2.27-1.05,2.27-2.8-.17-5.25,1-7.87,1.75a33,33,0,0,1-5.78.88c-5.42,0-10.67,0-15.92,1-1.4.35-2.63.35-3,2.45-.17,1.4-1.22,1.57-2.45.52-1.4-1-2.62-.52-4-.35a113.62,113.62,0,0,1-20.48,1.4c-1,0-1.92-.87-3-1.22a1.66,1.66,0,0,1-1.05-1.75c0-1.05.52-1.4,1.4-1.58,2.8-.87,5.6-1.22,8.75-2.8,0-4-.18-8.05,0-12.25,1-13,.35-25.2,1.4-38.15.87-12.6,1.22-25.37,1.57-38,.18-6.3-.35-12.6-.35-18.73,0-1.57-.7-2.27-2.1-2.27-2.27,0-1.92-1.23-4.2-1.58a2.81,2.81,0,0,1-2.45-1.75,53.07,53.07,0,0,1,8.4-1.92,17,17,0,0,0,.35-2.8c0-1.75.18-3.15,2.45-2.8.18,0,.53,0,.53-.18,3.15-3,6.12-1.22,9.27-.17C1401.38,626.74,1403.48,627.27,1404.88,629.37Zm-18.55,116.72c2.8-.35,2.8-.35,2.45-2.27-.18-1.23.17-4.2-.88-5.43C1386,740.14,1386.68,744,1386.33,746.09Z"/><path class="cls-2" d="M141.58,88,113,79.24,104.52,107l28.57,8.75C158.06,123.38,169.92,96.67,141.58,88Z"/><path class="cls-3" d="M84.46,70.48c-28.46-8.14-37,19-8.51,27.74L104.51,107,113,79.24Z"/><g class="cls-4"><ellipse class="cls-5" cx="71.94" cy="86.22" rx="3.06" ry="3.15" transform="translate(-31.58 129.71) rotate(-72.95)"/></g><path class="cls-9" d="M555.45,629.05a4,4,0,0,1,1.86,3.3c.12,2.46.36,10.62-1.14,8.64-.84-1.08-.3.66-.72,1.08s-.24.72-.48,1c-1.56-1.5-1.5-3.6-1.86-5.46a41.6,41.6,0,0,1-.6-4.68c-.18-2.22-2.88-3.6-5-2.58a7.53,7.53,0,0,0,.9.12c.12.12.12.24,0,.3a4.58,4.58,0,0,0-1.8,2.64,23.36,23.36,0,0,0-1.26,4c-.24,1.86-1,3.6-1.32,5.46a29.14,29.14,0,0,0-.6,3.3c-.3,2.4,0,6.36-.12,8a3.41,3.41,0,0,0-.12,1.09,9.21,9.21,0,0,1,.06,2.87c-.06.73.72,1.38.78,2a12.18,12.18,0,0,0,1.38,5,2.71,2.71,0,0,0,2.88,1.56l2.46-.18a1.9,1.9,0,0,0,1.08-.49,15.58,15.58,0,0,0,3.48-2.39,7.91,7.91,0,0,0,1.62-1.15c.72-.71,1.44-1.19,2.16-2a3.48,3.48,0,0,1,1.5-.84c.3.47-.72,1.38-.24,1.73,0,.12-.06.24-.06.31-.42.6-1.14.77-1.44,1.26a8.48,8.48,0,0,1-.9,1.55c-.36.37-.78.67-1.2,1-.18.18-.36.47-.6.77-1.26,1.38-1.68,2-2.88,2.58a24.25,24.25,0,0,0-3.12,1.92,16.49,16.49,0,0,1-3.36,1.38c-1.08.36-1.5-.18-2.46.24-.18.06-.42-.12-.6-.17s-.6-.25-.84,0a.43.43,0,0,1-.3.17c-1.14-.42-1.92-.6-3-1a8,8,0,0,1-2.58-3.18,15.6,15.6,0,0,1-1.68-5.39,11.14,11.14,0,0,0-.42-4c-.24-.6,0-1.33-.3-2a1.91,1.91,0,0,1-.12-1.62,7.38,7.38,0,0,0,.18-2,63.26,63.26,0,0,1,.48-8.28c.24-1.38.06-2.7.36-4.08a29.24,29.24,0,0,1,4.38-10.56.83.83,0,0,1,.24-.18c.06.06.18.06.24.12.42.42.72.36,1-.12a7.21,7.21,0,0,1,2.1-2.16c.18-.12.3-.36.6-.24,1.26.42,2.52-.06,3.72-.24A10.91,10.91,0,0,1,555.45,629.05Zm-18.72,15.42a9.87,9.87,0,0,0-.12,2.28c-.24.48.9,1.62.66.48-.18-.9.9-6.66.12-6.66C537.33,640.57,536.73,644.35,536.73,644.47Z"/><path class="cls-9" d="M578.13,646.69a3.5,3.5,0,0,1,1,3.48v.36a10.48,10.48,0,0,1,0,4.32c-.12.48.12,1,.12,1.44.06,2,.18,4.13.06,6.17,0,.79-.3,2.11-.36,2.88a5.94,5.94,0,0,0,.3,2,2.49,2.49,0,0,0,2.16-.78c2-.72,4.44-3.41,5.46-4a3.67,3.67,0,0,1-1,2.53c-.6.65-2.4,2-3.06,2.64a23.15,23.15,0,0,1-3.18,2.21,6.19,6.19,0,0,1-4,1c-.6,0-.9-.54-1.2-1a7.28,7.28,0,0,0-.9-1.32.73.73,0,0,0-.6.36c-.12.18-.3.48-.48.48-.78.06-1,.66-1.8,1s-1.26,0-2.16.06c-.36,0-.66.24-.06.24,1.38,0-.24.49-2,.37a6,6,0,0,1-3.12-1.15c-1.32-1.68-1.62-2.1-1.68-3.53l-.12-2.35a7.56,7.56,0,0,1,1.8-5.27,7.72,7.72,0,0,1,4.68-3,16,16,0,0,0,2.88-.9c.66-.3,1.2.24,1.92,0a35.45,35.45,0,0,0-.12-6.18c0-1-.3-1.2-1.2-.84a12.74,12.74,0,0,1-5,1c-.18.06-.42,0-.54.12-1.2.84-2-.36-2.94-.42-.06-.42.12-.42.24-.42a41.7,41.7,0,0,1,4.14-1.14,19.51,19.51,0,0,0,3.6-1.2,13,13,0,0,1,1.44-.42,3,3,0,0,1,1.92.42,3.49,3.49,0,0,0,1.86.66c.18-.42-.12-.42-.48-.66-.48-.06-.72-.42-.3-.42A4.28,4.28,0,0,1,578.13,646.69Zm-14.94,21.48c.42.24.54.71.9,1s.6.84,1.38.78a12.1,12.1,0,0,1-1.74-2.28c-.12-.24-.6-1.08-.6-.24C563.13,667.68,562.83,668,563.19,668.17ZM572,657c-.24.31-.3.49-.6.49a.73.73,0,0,0-.66.24c-.6.48-.66.65-1.26,1.08a3.48,3.48,0,0,0-1.32,1.61c-1.08,2.65-.84,5.76.06,6.61.66.59,1,1.14,1.8.84.54-.19,1.86-1,2.4-1.15.36-.12.42-.54.42-1a6.44,6.44,0,0,1,0-1.08c.12-1.07-.36-2-.12-3.84.12-.84-.12-1.55.06-2.39a6.44,6.44,0,0,0,.06-1.87A2.08,2.08,0,0,0,572,657Z"/><path class="cls-9" d="M590.55,636.61a38.54,38.54,0,0,1,.78,4,17.83,17.83,0,0,0,2.4-.18c.42-.06,2.7-.36,1.38,0a15.66,15.66,0,0,0,2.52-.24c.72,0,2.76.48,1.68,1-.42.18.78.36,1.08.66-.84.9-2.7.9-4,1.14-.42.06-1.14-.06-1.92.06a9.41,9.41,0,0,1-2,.24c-.9-.12-1,.06-.9,1,.06,2.22.42,4.32.54,6.48a42.78,42.78,0,0,1,.18,5.52,58,58,0,0,0,.54,6.48c.06,1.26.24,2.52.36,3.77a2.81,2.81,0,0,0,1.38,1.92.47.47,0,0,0,.6.07l1.2-.61c1.68-.84,3.12-2,3.9-2,.48,0,.24,1.32-.72,1.86s-1.2,1.26-1.92,1.75c-.9.59-1,.89-1.92,1.25a3,3,0,0,0-.84.42c-1.26,1-2.1,1.08-3.84,1-.36,0-.66-.29-1.08.06-.18.19-.36-.12-.48-.3-.24-.47-.42-1-.66-1.43-.12-.31-.18-.61-.6-.43-.24.12-.3,0-.42-.18a8.46,8.46,0,0,1-1.56-3.6,37.87,37.87,0,0,1-.24-5.21c.06-2.95-.12-5.94.06-8.88.18-2.46.3-4.86.42-7.32a2.37,2.37,0,0,0-.12-1.26c-.84.18-3.06.24-3.06-.12.6-.06,1.68-.42,2.4-.48a7.6,7.6,0,0,0-2.88.12c-1.26,0-1.62-.06-1.62-1.44,1.26-.12,3.3-.6,4.62-.72.42,0,.36-.06.36-.48a10.91,10.91,0,0,0,0-2,8.86,8.86,0,0,1,.3-2.76c.42-.3.18,1.26.6,1.92a4.9,4.9,0,0,0,.24-2.76,1.61,1.61,0,0,1,.84-1.74A5.5,5.5,0,0,1,590.55,636.61Zm1,31.26c0,.23.3.17.36.35.18.42,1.56.84.78.07s-1.26-2.23-1.5-2.23A12,12,0,0,0,591.57,667.87Z"/><path class="cls-9" d="M610.53,646A.32.32,0,0,0,611,646a.83.83,0,0,1,1.26.12,1.5,1.5,0,0,1,.42.24,4.64,4.64,0,0,1,2.28,4,4.22,4.22,0,0,1-.42,2.82,20.68,20.68,0,0,1-1.56,1.68c-.06.06-.3.18-.42.12-.6-.24-.84.3-1.32.6a3,3,0,0,1-.66-1.92c.06-1.14.12-2.28.12-3.42,0-1.86-1.14-3-2.34-3a1.09,1.09,0,0,0-1.2.6c-.3.48-.66.9-1,1.38a3.37,3.37,0,0,0-.36,2,2.29,2.29,0,0,1-.06.9,13.11,13.11,0,0,0-.42,4,5.49,5.49,0,0,0,.36,2.21c0,.07.06.12.06.19-.18,1.2.36,2.34.36,3.54a9,9,0,0,0,.6,4.14,4.9,4.9,0,0,0,.84,1.31,1.74,1.74,0,0,0,1.92.48c1.92-.48,3.48-.59,5.1-1.62a14.67,14.67,0,0,0,3.6-2.88,17.74,17.74,0,0,1,1.56-1.25,2,2,0,0,1,1.68-.42c-.24,1-1,1.55-1.74,2.27l-.84.9a26.53,26.53,0,0,1-2.16,2,9.4,9.4,0,0,1-2,1.33c-.3.17-1.32.77-1.62.89-1.32.49-2,.18-3.06.91-1.32.89-2.64,1.31-4,.29a1.12,1.12,0,0,0-1.2-.17,1.21,1.21,0,0,1-1.08,0,7,7,0,0,1-3.66-5.46,21.32,21.32,0,0,1-.3-3.37,59.87,59.87,0,0,1,.42-9.29,21.21,21.21,0,0,1,1-4c.36-1,.84-1.8,2.16-1.86.42,0,.84-.42,1.26-.66a4.74,4.74,0,0,1,4.8-.18C609.75,645.73,610.17,645.85,610.53,646Zm-6.6,7c.24-.36.6-2.46.18-2.88C603.69,650.53,603.69,652.62,603.93,653.05Z"/><path class="cls-9" d="M621.75,633.25c.24-.3.24-.72.66-.6s.36.36.36.6c.12.54.18,1,.78,1.2.24.06.24.3.3.48a33.68,33.68,0,0,1,1,3.72c.06.66-.12,1.32,0,2a16.93,16.93,0,0,1,.12,5.22,27,27,0,0,1,.18,3.24,9.13,9.13,0,0,0,1.8-2,10,10,0,0,1,2.28-2.22,4.16,4.16,0,0,1,4-.42,8.68,8.68,0,0,1,2.87,2.28,1,1,0,0,1,.13.84c0,.66,0,1.26-.06,1.92s.18,1.2.18,1.8c0,1.31-.25,2.58-.25,3.9a37.18,37.18,0,0,0,.37,5.09,19.54,19.54,0,0,1,.06,2.65,18.64,18.64,0,0,1-.12,2.58,1.3,1.3,0,0,0,.36,1.19c.18.12.36-.05.54-.18.36-.17.06.49,1.2-.59s2.34-1.5,3.72-2.7a12.35,12.35,0,0,1,2.87-1.87c-.05.12-.05,1.2-.12,1.27a5.55,5.55,0,0,0-2.21,2.22c-.18.24-.54.84-.84.89-.84.19-1.08.66-1.62,1.27a13.69,13.69,0,0,0-1.33,1.31,5.63,5.63,0,0,1-1.5,1.5,10.34,10.34,0,0,0-1.92,1.33,1.1,1.1,0,0,1-1.07.35l-.42-.06c-.36,0-.54.6-.9.3-.54-.42-1.2-.72-1.5-1.38-.06-.17-.18-.3-.24-.48a12.24,12.24,0,0,1-.66-4.44c.12-1.2.24-2.46.42-3.66a8.33,8.33,0,0,0-.06-2.45,24.1,24.1,0,0,1-.06-5.88,47.21,47.21,0,0,1,.72-5.76c.12-.48.12-1-.36-1.2a1.19,1.19,0,0,0-1.08-.18,2.07,2.07,0,0,0-.72.54l-1.08,1c-.12.12-.24.12-.48.36-.6.54-1.08,1.2-1.74,1.8a1,1,0,0,0-.36.54,9.55,9.55,0,0,0-.9,4.26,26.43,26.43,0,0,0,.42,4.38,15.13,15.13,0,0,1-.06,5.45,6.81,6.81,0,0,0,.06,2.46,7.69,7.69,0,0,1-.18,2.34c-.06.42-.12.91-.78.91-.48,0-.24.71-.78.71-.48-.24-1-.54-1.56-.12a.39.39,0,0,1-.54-.12,3.86,3.86,0,0,1-1.5-2.76,2.25,2.25,0,0,0-.3-1.08,2.91,2.91,0,0,1-.54-2.09c0-2.58-.06-5.1,0-7.68,0-2-.12-4-.3-5.94a60.67,60.67,0,0,1-.24-7.38c0-2.94,0-5.82.06-8.7a8.61,8.61,0,0,1,.48-2.76A2.43,2.43,0,0,1,621.75,633.25Z"/><path class="cls-9" d="M659.25,636.61a38.54,38.54,0,0,1,.78,4,17.5,17.5,0,0,0,2.39-.18c.43-.06,2.7-.36,1.38,0a15.86,15.86,0,0,0,2.53-.24c.71,0,2.75.48,1.67,1-.42.18.79.36,1.08.66-.83.9-2.7.9-4,1.14-.42.06-1.15-.06-1.92.06a9.41,9.41,0,0,1-2,.24c-.9-.12-1,.06-.9,1,.06,2.22.42,4.32.54,6.48a42.78,42.78,0,0,1,.18,5.52,58,58,0,0,0,.54,6.48c.05,1.26.24,2.52.35,3.77a2.82,2.82,0,0,0,1.39,1.92.47.47,0,0,0,.6.07l1.2-.61c1.68-.84,3.11-2,3.89-2,.49,0,.25,1.32-.71,1.86s-1.21,1.26-1.92,1.75c-.91.59-1,.89-1.92,1.25a2.87,2.87,0,0,0-.84.42c-1.26,1-2.11,1.08-3.84,1-.36,0-.66-.29-1.08.06-.18.19-.36-.12-.48-.3-.24-.47-.42-1-.66-1.43-.12-.31-.18-.61-.6-.43-.24.12-.3,0-.42-.18a8.46,8.46,0,0,1-1.56-3.6,37.87,37.87,0,0,1-.24-5.21c.06-2.95-.12-5.94.06-8.88.18-2.46.3-4.86.42-7.32a2.37,2.37,0,0,0-.12-1.26c-.84.18-3.06.24-3.06-.12.6-.06,1.68-.42,2.4-.48a7.6,7.6,0,0,0-2.88.12c-1.26,0-1.62-.06-1.62-1.44,1.26-.12,3.3-.6,4.62-.72.42,0,.36-.06.36-.48a10.91,10.91,0,0,0,0-2,8.86,8.86,0,0,1,.3-2.76c.42-.3.18,1.26.6,1.92a5,5,0,0,0,.24-2.76,1.6,1.6,0,0,1,.84-1.74A5.5,5.5,0,0,1,659.25,636.61Zm1,31.26c0,.23.3.17.35.35.19.42,1.57.84.79.07s-1.26-2.23-1.5-2.23A12,12,0,0,0,660.27,667.87Z"/><path class="cls-9" d="M672.75,633.25c.24-.3.24-.72.66-.6s.35.36.35.6c.12.54.19,1,.78,1.2.25.06.25.3.3.48a33.68,33.68,0,0,1,1,3.72c.07.66-.12,1.32,0,2a16.93,16.93,0,0,1,.12,5.22,27,27,0,0,1,.18,3.24,8.64,8.64,0,0,0,1.8-2,10.22,10.22,0,0,1,2.28-2.22,4.16,4.16,0,0,1,4-.42,8.82,8.82,0,0,1,2.88,2.28,1,1,0,0,1,.12.84c0,.66,0,1.26-.06,1.92s.18,1.2.18,1.8c0,1.31-.24,2.58-.24,3.9a35.67,35.67,0,0,0,.36,5.09,19.54,19.54,0,0,1,.06,2.65,18.64,18.64,0,0,1-.12,2.58,1.3,1.3,0,0,0,.36,1.19c.18.12.36-.05.54-.18.36-.17.06.49,1.2-.59s2.34-1.5,3.72-2.7a12.2,12.2,0,0,1,2.88-1.87c-.06.12-.06,1.2-.12,1.27a5.58,5.58,0,0,0-2.22,2.22c-.18.24-.54.84-.84.89-.84.19-1.08.66-1.62,1.27a12.55,12.55,0,0,0-1.32,1.31,5.78,5.78,0,0,1-1.5,1.5,10,10,0,0,0-1.92,1.33,1.13,1.13,0,0,1-1.08.35l-.42-.06c-.36,0-.54.6-.9.3-.54-.42-1.2-.72-1.5-1.38-.06-.17-.18-.3-.24-.48a12.24,12.24,0,0,1-.66-4.44c.12-1.2.24-2.46.43-3.66a8.68,8.68,0,0,0-.07-2.45,24.1,24.1,0,0,1-.06-5.88,47.21,47.21,0,0,1,.72-5.76c.12-.48.12-1-.36-1.2a1.19,1.19,0,0,0-1.08-.18,2.07,2.07,0,0,0-.72.54l-1.08,1c-.12.12-.23.12-.48.36-.6.54-1.08,1.2-1.74,1.8a.88.88,0,0,0-.35.54,9.56,9.56,0,0,0-.91,4.26,26.43,26.43,0,0,0,.42,4.38,15.36,15.36,0,0,1-.05,5.45,6.58,6.58,0,0,0,.05,2.46,8,8,0,0,1-.17,2.34c-.07.42-.12.91-.79.91-.47,0-.24.71-.78.71-.47-.24-1-.54-1.55-.12a.4.4,0,0,1-.55-.12,3.86,3.86,0,0,1-1.5-2.76,2.13,2.13,0,0,0-.29-1.08,2.91,2.91,0,0,1-.54-2.09c0-2.58-.07-5.1,0-7.68,0-2-.12-4-.3-5.94a60.67,60.67,0,0,1-.24-7.38c0-2.94,0-5.82,0-8.7a8.62,8.62,0,0,1,.49-2.76A2.44,2.44,0,0,1,672.75,633.25Z"/><path class="cls-9" d="M699.75,645.31c-.13.42-1.15.3-1.27.72.24.24.54.12.78-.06a4.18,4.18,0,0,1,4-.42c.3.12.66.24.9.36a11.15,11.15,0,0,1,1.2.6l.66.42c.84.54,2,3,2.16,4.92a8.49,8.49,0,0,1-.48,3.84c-.24.6-.36,1.31-1.14,1.56-.24.06-.24.24-.3.42a16.64,16.64,0,0,1-2.82,1.68c-.66.23-1.19.6-1.8.84a17.58,17.58,0,0,0-2.46,1.38,15.66,15.66,0,0,0,1.5,3.84c.48.65.9.77,1.38,1.43a1.69,1.69,0,0,0,2.28.72c3-1.14,4-1,6.72-2.81.9-.61.9-.84,2-1.14a7.65,7.65,0,0,0,1.5-.9c.18-.13.36-.37.72-.25.18,1.33-.6,1.45-1.26,2a2.71,2.71,0,0,0-.84.79,26.15,26.15,0,0,1-3.12,2.16,6.7,6.7,0,0,0-2,1.19c-.3.19-1.2.66-1.5.9-1,.67-2,.67-2.46,1-1.14.84-2.94.84-4.31.9a3.88,3.88,0,0,1-2.71-1.08,10.58,10.58,0,0,1-3.12-4.5,2.6,2.6,0,0,1-.17-.59,9.9,9.9,0,0,1-.54-2.34c0-.49-.07-2.16-.13-3.18a27,27,0,0,1,.54-6.54,15,15,0,0,1,2.34-6.12,4.89,4.89,0,0,1,2.88-1.86C699,645.25,699.62,645.07,699.75,645.31Zm-1.87,21.23a6,6,0,0,0,2.46,2.71.77.77,0,0,1,.18-.25,22.54,22.54,0,0,0-1.44-1.79c-.6-.61-.66-1.45-1.14-2.17A1.18,1.18,0,0,0,697.88,666.54Zm2.1-18.41a7.05,7.05,0,0,0-1,3.48c-.18,2.1.12,4.32-.12,6.35a6.39,6.39,0,0,0,.06,1.5c.42-.05,1-.71,1.26-.84.9-.59,1.56-1.25,2.34-1.73,1-.66.9-1.56,1.2-2.94.06-.18.06-.66.12-.84a5.9,5.9,0,0,0-.18-2.58,14.24,14.24,0,0,1-.6-2,2,2,0,0,0-.72-1.26C701.06,646.63,700.82,647,700,648.13Zm1.8,21a1.18,1.18,0,0,0-1-.83A1.16,1.16,0,0,0,701.78,669.12Z"/><path class="cls-9" d="M729.5,644.53c.12.06.3.12.36.24.24.84,1,1.38,1,2.34,0,1.2.3,2.4.42,3.6a40.31,40.31,0,0,1,.3,7.62,14.89,14.89,0,0,0,.06,4.32,12.31,12.31,0,0,1-.18,2.57,1.67,1.67,0,0,0,.3,1.15c.84-.31.84-.61,1.56-1.15a6.08,6.08,0,0,1,2.16-1.19,2,2,0,0,0,1-.78c.42-.6,1.14-.84,1.68-1.26s.9-.3,1.32.23a11.7,11.7,0,0,0-2.22,2c-.6.71-1.62.9-2.34,1.5a13,13,0,0,1-2.7,2.09,1.2,1.2,0,0,0-.6.91c0,.77-.12,1.55-.12,2.33-.06,1.08-.18,2.1-.3,3.13,0,.41-.12.83.24,1.19s.06.6,0,1a8.9,8.9,0,0,1-4.2,5.82,17.47,17.47,0,0,1-2.7,1.56c-.36.12-.66.36-1.08.3-.66-.06-1.44.06-1.74-.78,0-.12-.18-.18-.3-.3-1.62-1.08-1.44-2.58-1-4.2l.54-1.8a6.09,6.09,0,0,1,.6-1.44,20.05,20.05,0,0,1,3-4,10.09,10.09,0,0,1,1.5-1,28.33,28.33,0,0,0-.24-3.41c-.66-5,.12-10.08.06-15.06-.06-2.16-.24-4.26-.36-6.42,0-.3.36-1,.66-1.08A6,6,0,0,1,729.5,644.53Zm-4.86,28.55a5.86,5.86,0,0,0-1.5,2.16,10.13,10.13,0,0,0-1.44,3.42c-.42,2-.06,2.88,1.5,4a.4.4,0,0,0,.42.12c.6-.18,1.32-.42,1.56-1a24.61,24.61,0,0,0,1.26-2.88c.78-2.22.24-4.44-.24-6.66A4.85,4.85,0,0,0,724.64,673.08Zm3.84-43.25a.47.47,0,0,1-.18.6c-.18.24-.42.36-.48.6.3.6.78.36,1.32.6a7.39,7.39,0,0,1-1.2,2.64c-.3.18-.6.48-1,.42a3,3,0,0,0-1.5.24.91.91,0,0,1-1.14-.48,2.7,2.7,0,0,1-.12-2.16c.06-.78.78-1,1-1.5.3-.72.78-.72,1.38-.78s.84-.18,1.26-.3C728.12,629.65,728.3,629.53,728.48,629.83Z"/><path class="cls-9" d="M755.36,646.69a29.24,29.24,0,0,0,.12,3.24,17.59,17.59,0,0,0,.3,1.74,6.34,6.34,0,0,1,.06,3,5.27,5.27,0,0,0-.06,1.68c.06,2.34-.12,4.61-.06,6.95.06,1.38-.06,2.82-.06,4.2s.54,2.22,1.62,1.68a1.17,1.17,0,0,0,.66-.23c2.22-1.62,3.18-2.11,5.46-3.61a2.46,2.46,0,0,1,1.32-.54c.48,1-.42,1.38-.84,1.92-1.26,1.5-1.74.78-2.94,2.16-.3.18-.78.66-1.14.66a.5.5,0,0,0-.48.18,2.77,2.77,0,0,1-1.56,1c-.6.29-.3,0-.78.54s-1.68.42-2.28.42c-1-.49-1.68-.54-2.7-1a4.17,4.17,0,0,1-1.32-1,3.89,3.89,0,0,1-1.14-2.69,1,1,0,0,0-.12-.31c-.72,0-1,.66-1.32,1.08-.66.78-1.32,1.5-2,2.22a3.86,3.86,0,0,1-3.66,1.08,6.62,6.62,0,0,1-3.36-1.73,2.44,2.44,0,0,1-.72-1.39,23,23,0,0,1-.72-8.33,4.11,4.11,0,0,0-.24-1.5c-.6-1.8-.24-3.66-.24-5.46s.6-3.72.36-5.58c-.06-.66,0-1.38.72-1.38a19.89,19.89,0,0,1,2.64-.12,3.12,3.12,0,0,1,1.92,1.26c1.68,1.86,1.44,4.08,1.26,6.24-.06,1.43-.18,2.88-.12,4.26s-.18,2.88-.12,4.2a18.94,18.94,0,0,1,.12,2.64,2.67,2.67,0,0,0,1.14,2c.42.42,1.74.12,2.34-.49a25.11,25.11,0,0,0,1.92-2.39,1.52,1.52,0,0,0,.3-1.15c.18-3.11-.12-6.29-.06-9.41a42.58,42.58,0,0,0-.06-6.18c0-.3.06-.54.48-.54a3.92,3.92,0,0,0,1.44-.36c1.26-.48,1.44-.48,2.58.36.42-.12.54-.78,1.08-.54S755.36,646.27,755.36,646.69Zm-13.08,22.68A1.69,1.69,0,0,0,744,669C743.18,668.58,743.18,668.58,742.28,669.37Z"/><path class="cls-9" d="M779.3,646.69l.24.24c.3,1.2,1,2.28,1.08,3.66,0,2.88,0,5.76-.24,8.58-.12,1.44.06,2.87,0,4.25a11,11,0,0,0,.6,3.12c.12.6,1.86,1.26,2.34.91,2.1-1.45,3.78-2.46,5.88-3.91a.39.39,0,0,1,.54,0c-.3.79-.6,2.1-1.5,2.52a6.57,6.57,0,0,0-2.7,2.28,3.61,3.61,0,0,1-1.8,1.45,3.73,3.73,0,0,1-1.92,1.08,2.91,2.91,0,0,1-1.56.71,4,4,0,0,1-4-2,10.08,10.08,0,0,1-1.38-5c-.12-2-.12-3.89-.06-5.88a39.47,39.47,0,0,1,.72-8.81,5,5,0,0,0-.06-2.1c-.12-.84-.78-1.32-1.56-.54a16.25,16.25,0,0,0-4.68,6.66,12.19,12.19,0,0,0-.36,5.28,13,13,0,0,1,0,2.16,73.92,73.92,0,0,0-.3,8.15c0,.66-.24.91-1,1.08a3.15,3.15,0,0,0-.66.42c-.84.6-1.5.48-2.1-.48a2.09,2.09,0,0,0-.72-.9c-.3.18-.12.48-.24.72-.54-.24-.66-.72-.84-1.2a11.47,11.47,0,0,1-.84-4.26c0-2.76-.06-5.45-.06-8.22V646c0-.84.06-.84.84-.72a1.53,1.53,0,0,0,.9,0,1.37,1.37,0,0,1,1.44.24c.54.42,1.14.72,1.68,1.14a2,2,0,0,1,.78,1.86,14.27,14.27,0,0,0,.42,3.54,1.86,1.86,0,0,0,.66-1,16.69,16.69,0,0,1,2.64-4.32,4.41,4.41,0,0,1,4.5-1.56A11.71,11.71,0,0,1,779.3,646.69Z"/><path class="cls-9" d="M791.18,634.45c.3-.12.24-.54.48-.66a1.4,1.4,0,0,1,1.2,1.14,12.56,12.56,0,0,1,.48,6.3,3.7,3.7,0,0,0,.12,1.44,24.65,24.65,0,0,1,.24,5.94,47.11,47.11,0,0,0,.12,5c.42.12.54-.18.66-.36,2-2.28,4.14-4.44,6-6.9,1.14-1,1.62-1.68,2.58-2.34.24-.18,1.38-1.08,1.38-.72s.3,1.74-.36,2c-1.14.6-1.68,1.92-2.46,2.82-1.26,1.62-2.76,3-4,4.68,1.68,1,2.34,2.7,3.36,4.25,1.44,2.17,2.4,4.63,4,6.79.72,1,1.26,2.27,1.92,3.35a3.75,3.75,0,0,0,.6,1,3.84,3.84,0,0,1,1,2,5.88,5.88,0,0,1-1.14.41,1.59,1.59,0,0,1-1.86-.48c-.24-.35-.42-.42-.9,0-.24.24-.06,1.2-.66.66-.24-.24-.48.49-.78.6a4.18,4.18,0,0,1-1.74-1.92c-.24-.48-.54-1-.84-1.44a41.2,41.2,0,0,1-4.08-8.33,40.54,40.54,0,0,0-2-3.6.75.75,0,0,0-.36.78c.06,1.38.06,2.76.12,4.14a30.71,30.71,0,0,1-.36,4.73,10.2,10.2,0,0,0-.06,2.34,4.36,4.36,0,0,1-.84,3.07c-.24.29-.48.41-.72.12s-.72-1-.9-.73c-.42.9-.84-.18-1-1.08-.12-.42-.48.48-.78.48s-.42.3-.72.25-.72-1.21-.9-1.26c-.54-.37-.72-1-.78-2-.18-5,0-10,.06-15,.06-2.16.36-4.32.36-6.48-.06-1.8,0-3.54-.18-5.28-.12-1.2-.06-2.4-.12-3.6a1.2,1.2,0,0,1,.12-.54c.84-.18.54-.84.54-1.32.06-1.08.72-1.5,1.74-1.2C790.28,633.73,790.64,634.27,791.18,634.45Zm4.62,20.34c.12.12.54,1.08.78.9-.12-.24-.42-1.38-.9-1.38A.34.34,0,0,0,795.8,654.79Z"/><path class="cls-9" d="M820.58,631.75a12.1,12.1,0,0,1-3.24.48,1.27,1.27,0,0,0-.84.24c-.54.24-.78.78-1.14,1.2.24.12.42-.12.6-.24a4.79,4.79,0,0,1,2.94-1,.45.45,0,0,0,.3-.06c.9-.66,1.38.24,2,.48.24.12.9,1,.42,1.08s-1.14.6-1.68.78a3.59,3.59,0,0,0-2.34,2.22,44.57,44.57,0,0,0-1.38,5.58,12.32,12.32,0,0,0-.12,3c1.56.3,2.88-.72,4.44-.54-.54,1.14-1.14,2.34-2.58,2.46a4.25,4.25,0,0,0-1.68.54.82.82,0,0,0-.6.72c0,2.7-.36,5.39-.18,8.1.12,2.28.36,4.62.42,7,.06,3.59.18,7.19.18,10.79,0,.06-.24.42-.24.48-.36.12-.42-1-.72-1,.24,1.44-.54,2.94-1.14,4.26a2.27,2.27,0,0,0-1.56-.84c-.54-.06-.9-.6-1.08-1.08a6.17,6.17,0,0,0-.9-1.62,7.73,7.73,0,0,1-1-3.65c-.12-1.87-.24-3.72-.3-5.59s-.12-3.71,0-5.63c.12-2.22.6-4.5.18-6.84a11.16,11.16,0,0,1-.06-2.46,2.91,2.91,0,0,0-.12-1.2,2.77,2.77,0,0,0-1.68.36.88.88,0,0,1-1.26-.18.68.68,0,0,1,.18-1.08c.3-.24.06-.54,0-.78-.18-.72-.06-.9.72-1l1.44-.18c.84-.12.84-.12.9-1,0-1.08.06-2.1.06-3.18a14.53,14.53,0,0,1,.84-5.28,8.52,8.52,0,0,1,2.22-3,10.33,10.33,0,0,1,5.28-2.52,5.22,5.22,0,0,1,2.16-.24A.73.73,0,0,1,820.58,631.75Z"/><path class="cls-9" d="M829.58,644.77a1.41,1.41,0,0,1-.66.66c-.3.12-.72,0-.9.36.54.24,1-.12,1.44-.3.24-.06.54-.12.72.12s.06.42-.06.6a20.07,20.07,0,0,0-1.38,6.18c-.06.12-.06.3-.12.42a7,7,0,0,0-.36,3.48c.24,2.7.42,5.33.48,8a5.2,5.2,0,0,0,1.62,3.84,1.32,1.32,0,0,0,1.86,0,1.84,1.84,0,0,1,.9-.6,2.62,2.62,0,0,0,1.92-2.21,12.79,12.79,0,0,1,.36-1.45,25.45,25.45,0,0,0,.78-7.67.69.69,0,0,0-.6-.78,8.08,8.08,0,0,0-1.2-.31,4.5,4.5,0,0,1-3.24-4.43c.06-1,.12-1.92.24-2.88a7.81,7.81,0,0,1,.9-2,.77.77,0,0,1,1.14-.12,5.09,5.09,0,0,1,1.5,1.26,13,13,0,0,1,2.46,4.8c.12.54.54.9.6,1.44,0,.18.18.18.36.24s1.2-.18,1.62-.3c1.08-.3,1.62-1,2.7-2.16s2.16-2.46,3.3-3.84a3.3,3.3,0,0,0,.42-.54,1.82,1.82,0,0,1,2.7-.36c.36.24.6.48.12.84l-.3.36c.48.6.36,1.38.84,2,.12.06.06.24,0,.42l-1.26,9.36A18.87,18.87,0,0,0,849,666a4,4,0,0,0,1.92,2.34c.9.66,1.92.17,2.76-.37a5.08,5.08,0,0,0,2.28-3.12,14.84,14.84,0,0,0,.78-5.39c-.06-2.46-.06-4.92-.24-7.38-.06-.72-.12-1.44-.24-2.16a2.71,2.71,0,0,0-1-1.92c-.36-.36-.48-.54-1-.42a3.23,3.23,0,0,0-1.92.66c-.24.18-.66,0-.9.18-.24-.18-.06-.42-.12-.54-.18-1-.18-1.08.66-1.5a4.31,4.31,0,0,1,4.56,0,7.38,7.38,0,0,1,3.12,5,53.58,53.58,0,0,1,1,5.4,18,18,0,0,1,0,3.6,6.77,6.77,0,0,0-.06,1.13,12,12,0,0,1-1.8,5.46c-.66,1-1.08,1.87-1.74,2.88a2,2,0,0,1-1.08.78c-.54-.06-.54.36-.9.06-1-.72-1.44.07-2.22.42a3.17,3.17,0,0,1-3,.07,35.25,35.25,0,0,1-3.12-1.87c-2-1.55-3.66-3.42-3.6-6.18a29.27,29.27,0,0,0-.42-3.29,2.94,2.94,0,0,1-.06-1c.3-2,.12-4.2.84-6.3-.6.11-.6.54-1.08.78a12.17,12.17,0,0,0-1.08.78,2.64,2.64,0,0,1-1.68.78c-1,0,.18.23-.78.3a.48.48,0,0,0-.54.42,3.38,3.38,0,0,0,0,.78,13.65,13.65,0,0,1-.3,4.14c0,.3-.06.54-.06.78a7.75,7.75,0,0,1-.78,3.23,7.77,7.77,0,0,0-.9,2.58,2.52,2.52,0,0,1-1,1.8,6.74,6.74,0,0,0-1.2,1.08,3,3,0,0,1-2.4.84c-.72,0-1.14-.59-1.74-.9a9.45,9.45,0,0,1-.9-.72c-.42.84-.42.84-1.14.54a7.67,7.67,0,0,1-4.62-3.89c-.66-1.38-1.5-2.83-1.2-4.5a5.85,5.85,0,0,1-.54-2.34c-.48-.66-.12-1.32-.3-2.22a15.15,15.15,0,0,0,.42-2.88,24.78,24.78,0,0,1,2.16-6.12,5.31,5.31,0,0,1,3.3-2.7l1.5-.42A.83.83,0,0,1,829.58,644.77Zm-3.3,7.92a15.73,15.73,0,0,0,1.92-5.64A14.33,14.33,0,0,0,826.28,652.69Zm6.66-4.86c-.06.36-.36.72-.12,1.08.36.54.18,1,.18,1.62-.06,1.68.12,1.92,1.86,2.34a.78.78,0,0,0,.6-.12,11.79,11.79,0,0,0,0-2.52,5.23,5.23,0,0,0-1.38-2.52C833.72,647.35,832.94,647.41,832.94,647.83Zm26.22,12.84a3.37,3.37,0,0,0,.06-2.17A2.72,2.72,0,0,0,859.16,660.67Z"/><path class="cls-9" d="M882.5,634.21a30.62,30.62,0,0,1,.78,4.08c.12,1.2.54,2.34.54,3.54.12,2.52-.18,5-.18,7.5a15,15,0,0,1-.24,3.66,15.76,15.76,0,0,0-.18,3.36,16.83,16.83,0,0,1,0,2.46,7.25,7.25,0,0,0,.12,2.27,10.56,10.56,0,0,1,.12,2.76,9.75,9.75,0,0,0,.18,2.28c.12.91.72,1.21,1.5.79,1.68-1,1.86-.54,3.06-2.11,1-1.19,2.34-1.73,3.54-2.58a1.11,1.11,0,0,1,.72,0,1.15,1.15,0,0,1-.24.9,1.21,1.21,0,0,0-.24.3c-.42.72-.84,1.45-1.74,1.57-.3,0-.42.3-.6.54a9.91,9.91,0,0,1-2.16,2.27,9,9,0,0,0-1.86,1.87,5.06,5.06,0,0,1-2.4,1c-2.16.36-3.42.06-4.74-1.67-.24-.24-.42-.54-.66-.78-.12-.49-.3-1-.36-1.33a36.72,36.72,0,0,1-.72-5.76,37.14,37.14,0,0,1-.24-6.83,6.59,6.59,0,0,0-.54-3.54,6.49,6.49,0,0,0-2.22-2.58c-.3.66-.54,1.2-1.32,1.14-.3,0-.42.3-.48.54a3.92,3.92,0,0,1-.48,1,6.45,6.45,0,0,0-.72,4,7.51,7.51,0,0,1,.24,2.82c-.18,1.08-.18,2.22-.3,3.3a13.75,13.75,0,0,0,.42,5.21,6.16,6.16,0,0,1,.3,1.44,1.55,1.55,0,0,0,2.16,1.39,4,4,0,0,0,2.22-1.62.87.87,0,0,1,.54-.3l.12-.24c.24.29-.06,2.27-.42,3.11,0,.06-1,1.39-1.68,1.5a9.66,9.66,0,0,1-5.52-1.44c-1-.59-1.86-1.67-2.7-4.13a12.44,12.44,0,0,0-.66-1.38c-.78-1.38-.72-3-1-4.5a19.32,19.32,0,0,1,.12-5.88,15.31,15.31,0,0,1,1.62-5.34,5.35,5.35,0,0,1,4.08-3.12c.24,0,.42-.18.6-.24a1.56,1.56,0,0,1,1.68.24,1.65,1.65,0,0,0,.54.42,7,7,0,0,1,3.48,2.28c.54-4.68.9-9.36,1.44-14,.72-.48,1.08.3,1.62.6.06-.12.12-.18.12-.24-.18-1-.06-1.08.84-1a1.53,1.53,0,0,0,.9,0C882.08,633.37,882.32,633.73,882.5,634.21ZM870.86,670a6.42,6.42,0,0,0-2-1.55C869.06,668.83,870.32,670,870.86,670Zm11.22-.9a.36.36,0,0,0,.54.24c.3-.12.18-.3.06-.54a.86.86,0,0,0-.54-.47A1.14,1.14,0,0,0,882.08,669.06Z"/><path class="cls-9" d="M918,646.69a3.5,3.5,0,0,1,1,3.48v.36a10.48,10.48,0,0,1,0,4.32c-.12.48.12,1,.12,1.44.06,2,.18,4.13.06,6.17,0,.79-.3,2.11-.36,2.88a5.94,5.94,0,0,0,.3,2,2.49,2.49,0,0,0,2.16-.78c2-.72,4.44-3.41,5.46-4a3.67,3.67,0,0,1-1,2.53c-.6.65-2.4,2-3.06,2.64a23.15,23.15,0,0,1-3.18,2.21,6.19,6.19,0,0,1-4,1c-.6,0-.9-.54-1.2-1a7.28,7.28,0,0,0-.9-1.32.73.73,0,0,0-.6.36c-.12.18-.3.48-.48.48-.78.06-1,.66-1.8,1s-1.26,0-2.16.06c-.36,0-.66.24-.06.24,1.38,0-.24.49-2,.37A6,6,0,0,1,903.2,670c-1.32-1.68-1.62-2.1-1.68-3.53l-.12-2.35a7.56,7.56,0,0,1,1.8-5.27,7.72,7.72,0,0,1,4.68-3,16,16,0,0,0,2.88-.9c.66-.3,1.2.24,1.92,0a35.45,35.45,0,0,0-.12-6.18c0-1-.3-1.2-1.2-.84a12.74,12.74,0,0,1-5,1c-.18.06-.42,0-.54.12-1.2.84-2-.36-2.94-.42-.06-.42.12-.42.24-.42a41.7,41.7,0,0,1,4.14-1.14,19.51,19.51,0,0,0,3.6-1.2,13,13,0,0,1,1.44-.42,3,3,0,0,1,1.92.42,3.49,3.49,0,0,0,1.86.66c.18-.42-.12-.42-.48-.66-.48-.06-.72-.42-.3-.42A4.28,4.28,0,0,1,918,646.69Zm-14.94,21.48c.42.24.54.71.9,1s.6.84,1.38.78a12.1,12.1,0,0,1-1.74-2.28c-.12-.24-.6-1.08-.6-.24C903,667.68,902.72,668,903.08,668.17ZM911.9,657c-.24.31-.3.49-.6.49a.73.73,0,0,0-.66.24c-.6.48-.66.65-1.26,1.08a3.48,3.48,0,0,0-1.32,1.61c-1.08,2.65-.84,5.76.06,6.61.66.59,1,1.14,1.8.84.54-.19,1.86-1,2.4-1.15.36-.12.42-.54.42-1a6.44,6.44,0,0,1,0-1.08c.12-1.07-.36-2-.12-3.84.12-.84-.12-1.55.06-2.39a6.44,6.44,0,0,0,.06-1.87A2.08,2.08,0,0,0,911.9,657Z"/><path class="cls-9" d="M942.44,646.69l.24.24c.3,1.2,1,2.28,1.08,3.66,0,2.88,0,5.76-.24,8.58-.12,1.44.06,2.87,0,4.25a11,11,0,0,0,.6,3.12c.12.6,1.86,1.26,2.34.91,2.1-1.45,3.78-2.46,5.88-3.91a.39.39,0,0,1,.54,0c-.3.79-.6,2.1-1.5,2.52a6.57,6.57,0,0,0-2.7,2.28,3.61,3.61,0,0,1-1.8,1.45,3.73,3.73,0,0,1-1.92,1.08,2.91,2.91,0,0,1-1.56.71,4,4,0,0,1-4-2,10.08,10.08,0,0,1-1.38-5c-.12-2-.12-3.89-.06-5.88a39.47,39.47,0,0,1,.72-8.81,5,5,0,0,0-.06-2.1c-.12-.84-.78-1.32-1.56-.54a16.25,16.25,0,0,0-4.68,6.66,12.19,12.19,0,0,0-.36,5.28,13,13,0,0,1,0,2.16,73.92,73.92,0,0,0-.3,8.15c0,.66-.24.91-1,1.08a3.15,3.15,0,0,0-.66.42c-.84.6-1.5.48-2.1-.48a2.09,2.09,0,0,0-.72-.9c-.3.18-.12.48-.24.72-.54-.24-.66-.72-.84-1.2a11.47,11.47,0,0,1-.84-4.26c0-2.76-.06-5.45-.06-8.22V646c0-.84.06-.84.84-.72a1.53,1.53,0,0,0,.9,0,1.37,1.37,0,0,1,1.44.24c.54.42,1.14.72,1.68,1.14a2,2,0,0,1,.78,1.86,14.27,14.27,0,0,0,.42,3.54,1.86,1.86,0,0,0,.66-1,16.69,16.69,0,0,1,2.64-4.32,4.41,4.41,0,0,1,4.5-1.56A11.71,11.71,0,0,1,942.44,646.69Z"/><path class="cls-9" d="M968,634.21a30.62,30.62,0,0,1,.78,4.08c.12,1.2.54,2.34.54,3.54.12,2.52-.18,5-.18,7.5a15,15,0,0,1-.24,3.66,15.76,15.76,0,0,0-.18,3.36,16.83,16.83,0,0,1,0,2.46,7.25,7.25,0,0,0,.12,2.27,10.56,10.56,0,0,1,.12,2.76,9.75,9.75,0,0,0,.18,2.28c.12.91.72,1.21,1.5.79,1.68-1,1.86-.54,3.06-2.11,1-1.19,2.34-1.73,3.54-2.58a1.11,1.11,0,0,1,.72,0,1.15,1.15,0,0,1-.24.9,1.21,1.21,0,0,0-.24.3c-.42.72-.84,1.45-1.74,1.57-.3,0-.42.3-.6.54A9.91,9.91,0,0,1,973,667.8a9,9,0,0,0-1.86,1.87,5.06,5.06,0,0,1-2.4,1c-2.16.36-3.42.06-4.74-1.67-.24-.24-.42-.54-.66-.78-.12-.49-.3-1-.36-1.33a36.72,36.72,0,0,1-.72-5.76,37.14,37.14,0,0,1-.24-6.83,6.59,6.59,0,0,0-.54-3.54,6.49,6.49,0,0,0-2.22-2.58c-.3.66-.54,1.2-1.32,1.14-.3,0-.42.3-.48.54a3.92,3.92,0,0,1-.48,1,6.45,6.45,0,0,0-.72,4,7.51,7.51,0,0,1,.24,2.82c-.18,1.08-.18,2.22-.3,3.3a13.75,13.75,0,0,0,.42,5.21,6.16,6.16,0,0,1,.3,1.44,1.55,1.55,0,0,0,2.16,1.39,4,4,0,0,0,2.22-1.62.87.87,0,0,1,.54-.3l.12-.24c.24.29-.06,2.27-.42,3.11,0,.06-1,1.39-1.68,1.5a9.66,9.66,0,0,1-5.52-1.44c-1-.59-1.86-1.67-2.7-4.13a12.44,12.44,0,0,0-.66-1.38c-.78-1.38-.72-3-1-4.5a19.32,19.32,0,0,1,.12-5.88,15.31,15.31,0,0,1,1.62-5.34,5.35,5.35,0,0,1,4.08-3.12c.24,0,.42-.18.6-.24a1.56,1.56,0,0,1,1.68.24,1.65,1.65,0,0,0,.54.42,7,7,0,0,1,3.48,2.28c.54-4.68.9-9.36,1.44-14,.72-.48,1.08.3,1.62.6.06-.12.12-.18.12-.24-.18-1-.06-1.08.84-1a1.53,1.53,0,0,0,.9,0C967.58,633.37,967.82,633.73,968,634.21ZM956.36,670a6.42,6.42,0,0,0-2-1.55C954.56,668.83,955.82,670,956.36,670Zm11.22-.9a.36.36,0,0,0,.54.24c.3-.12.18-.3.06-.54a.86.86,0,0,0-.54-.47A1.14,1.14,0,0,0,967.58,669.06Z"/><path class="cls-9" d="M537.09,717.31c.06.36.42.42.72.42.78.06,1.08.54,1.26,1.2a20.4,20.4,0,0,0,.9,2.94,22.06,22.06,0,0,0,2.1-2c2.46-2.82,5.16-2.64,8-1.86a2.51,2.51,0,0,1,1.2,1c1.14,1.44,2.4,3.06,2.4,5.22a17.33,17.33,0,0,0,.36,4.26v.54a31.76,31.76,0,0,0-.18,4.8,8.24,8.24,0,0,1-.72,2.7,13.37,13.37,0,0,1-.78,1.92,14.88,14.88,0,0,1-1.8,2.69,5.35,5.35,0,0,1-1.26,1c-.42-1.14,1.26-1.43.84-2.52-.66.79-1,1.8-2,2.28a1.21,1.21,0,0,0-.18.31c-.24.29.18.89-.42,1a6.33,6.33,0,0,1-1.86.18,4.6,4.6,0,0,1-3.36-1.8c-.6-.65-1.14-1.31-1.8-2.1-.3,1.33-.24,2.58-.42,3.84-.18,2,.06,4-.06,5.94a10.23,10.23,0,0,1-.48,3.3,5.15,5.15,0,0,0-.12,1.38c-.06.36,0,.72-.36,1.08-.78-.78-2.1-1-2.46-2.58-.24.72-.36,1.14-.48,1.62a3.89,3.89,0,0,1-1.5-2,30.83,30.83,0,0,1-.42-4.68,47.47,47.47,0,0,1,.06-8.76c.18-2.1.12-4.19.3-6.3.3-3,0-6.11.12-9.17l.18-2.58a13.54,13.54,0,0,0-.06-2.7.88.88,0,0,1,1-1.14C536.25,716.77,536.85,716.65,537.09,717.31Zm6.36,3.3c-1.5.78-2.34,2.28-3.18,3.66a.57.57,0,0,0-.12.42c.24,2.16.36,4.26.42,6.42a36.8,36.8,0,0,1,.06,5.15,1.66,1.66,0,0,0,.36,1.2,16.33,16.33,0,0,0,2.52,2.83A3.28,3.28,0,0,0,545,741a.53.53,0,0,0,.6-.24,14.23,14.23,0,0,0,2-6.6v-2.7c.18-2.34-.42-4.62-.42-7a22.51,22.51,0,0,0-.54-3.42c-.12-.72-.66-1.2-1.08-1.08A6.14,6.14,0,0,0,543.45,720.61Z"/><path class="cls-9" d="M562.59,700.75c-.06.54.18.72.66,1.14,1.26,1.14,1.62,2.22.3,3.3-.6.42-1,1.26-2,1.08-.42-.42-1.08-.06-1.62-.3-2-1-2.28-2.58-.9-4.5a3.81,3.81,0,0,1,2.58-1.5C562.35,699.91,562.59,700.09,562.59,700.75Zm1.56,18.18c.06.18.06.42.24.54.66-.48.84-.42.84.36a1.54,1.54,0,0,1-.06.9,3.66,3.66,0,0,0-.06,1.8c.3,2.52.24,5,.3,7.55.06,1.57.24,3.07.42,4.63.06,1.08.24,2.16.3,3.24s-.18,2.09,1,1.61a13.21,13.21,0,0,0,3.12-1.68,13.13,13.13,0,0,1,2.28-1.43,3.64,3.64,0,0,0,.9-.61c.54-.42,1.14-.84,1.92-.23a6.51,6.51,0,0,1-1.44,1.43,6.76,6.76,0,0,0-1.92,2,1.1,1.1,0,0,1-1.08.65c-.36,0-.78.49-1.08.73s-.78.35-1.08.65a3.84,3.84,0,0,1-.66.78,3.52,3.52,0,0,1-1.08.49l-1.14.35a1.92,1.92,0,0,1-.84.19c-.18,0-.36-.07-.54-.07s-.36.37-.6.42a1.89,1.89,0,0,1-1.08-.3,6.25,6.25,0,0,1-1.74-.78c-.3-.24-.72-.18-1-.35a5.7,5.7,0,0,1-1.14-3.37,31.92,31.92,0,0,1-.06-4.8c.06-1.91.12-3.89.3-5.81a28.37,28.37,0,0,0,.18-5c-.12-1.2.3-2.4,0-3.66-.06-.42.42-.84.72-1.14a3.39,3.39,0,0,1,2-.78A1.9,1.9,0,0,1,564.15,718.93Z"/><path class="cls-9" d="M595.35,701.53c.3,1,.9,1.74,1.14,2.7a15,15,0,0,1,.54,6.12c-.18,1-.3,2-.48,3.06-.12.6,0,1-.3,1.5a9.6,9.6,0,0,0-.66,2.58,20.28,20.28,0,0,0-1.08,3.72c-.06.9-1,1.86-1.26,2.82a6.8,6.8,0,0,0-.06,1.56,8.87,8.87,0,0,1,.24,1.68,45.5,45.5,0,0,0-.18,4.92,22.75,22.75,0,0,0,1.14,7.79c.18.6.3,1.14,1.08,1a1.17,1.17,0,0,1,.72.35,1.61,1.61,0,0,0,2,.07,6.2,6.2,0,0,0,2.22-1.5c.54-.54,1.14-1,2.88-2.46a6.73,6.73,0,0,1,2.46-1.27.56.56,0,0,1,0,.78,3.43,3.43,0,0,1-.48.42c-1.2.72-1.26,1.45-2.4,2.16-.6.54-2,2.29-2.94,2.64a2.84,2.84,0,0,0-.72.42c-.3.66-1.14.84-2,.84a1.5,1.5,0,0,1-1.5.36,7.91,7.91,0,0,1-2.88-1.32,12.29,12.29,0,0,1-3.3-2.82,9.21,9.21,0,0,1-1.5-3.71,7.68,7.68,0,0,0-.6-2.29c-.24.37-.54.79-.66,1-.6,1.07-1.2,2.88-1.8,3.65-1.08,1.5-1.2,2.28-2.28,3.37-.24.23-.48.23-.42.54s-.78.41-1,.54c-1.5.59-2.16.83-3.54-.25l-.9-.71a2,2,0,0,0-1.32-.61c.72.61,1.08,1.44,1.8,1.86a1,1,0,0,1-1.14.06,8.52,8.52,0,0,1-1.5-1.5,10.06,10.06,0,0,1-1.86-5.64c-.24-3.05-.24-6.17-.3-9.23-.06-4.08-.24-8.16-.18-12.24,0-2.16-.18-4.32,0-6.54a11.8,11.8,0,0,1,.18-1.44,1.7,1.7,0,0,1,.24-1.08c.3-.24.66,0,1-.12a4.82,4.82,0,0,0,1.44-.78,1.6,1.6,0,0,1,2.64.84c.12.42.54.84.24,1.38a.5.5,0,0,0,.12.48,8,8,0,0,1,1,3.84c.18,3.36.42,6.72.36,10.14,0,.84-.12,1.68-.12,2.58,0,1.92.06,3.9.24,5.88a10.08,10.08,0,0,1-.06,2.33,41.86,41.86,0,0,1-.24,4.75,3.7,3.7,0,0,0,.84,2.33c.18.42.48.25.84.18,1.2-.18,1.62-1,2.22-1.92,1.56-2.46,2.58-5,3.36-6a2.28,2.28,0,0,0,.42-1.56,28.25,28.25,0,0,1-.18-3.18,22.6,22.6,0,0,1-.18-5.22c.24-3.18,0-6.06.18-9.24a44.18,44.18,0,0,0-.12-6.3c0-.48.24-1,.24-1.44a1.15,1.15,0,0,1,.54-1.08c.6-.42.66-1.14,1.2-1.62a5.08,5.08,0,0,1,3.54-1.08c.36,0,.72-.06,1.08-.06A1.89,1.89,0,0,1,595.35,701.53Zm-5.22.24c.54.3.9,0,1.5-.36C591,701.41,590.55,701.35,590.13,701.77Zm1.92,32c.24-1.43.12-4.73-.3-5.39A14.56,14.56,0,0,0,592.05,733.8Zm.18-30.83c-.3.12-.48.24-.42.6a8.17,8.17,0,0,1,.12,2.4l.06,1.14c.3,1.92.42,4,.6,6.06a15.45,15.45,0,0,1-.06,4.08,4.49,4.49,0,0,0,.12,3.18c1-1.56,1.14-3.9,1.56-5.58a32.84,32.84,0,0,0,1-5.4c.06-1.44-.06-2.82-.12-4.26a4.62,4.62,0,0,0-1.2-2.34c-.06-.06-.24-.18-.3-.12C592.83,703,593,702.67,592.23,703Z"/><path class="cls-9" d="M620.07,708.61a38.54,38.54,0,0,1,.78,4,17.83,17.83,0,0,0,2.4-.18c.42-.06,2.7-.36,1.38,0a15.66,15.66,0,0,0,2.52-.24c.72,0,2.76.48,1.68,1-.42.18.78.36,1.08.66-.84.9-2.7.9-4,1.14-.42.06-1.14-.06-1.92.06a9.41,9.41,0,0,1-2,.24c-.9-.12-1,.06-.9,1,.06,2.22.42,4.32.54,6.48a42.78,42.78,0,0,1,.18,5.52,58,58,0,0,0,.54,6.48c.06,1.26.24,2.52.36,3.77a2.81,2.81,0,0,0,1.38,1.92.47.47,0,0,0,.6.07l1.2-.61c1.68-.84,3.12-2,3.9-2,.48,0,.24,1.32-.72,1.86s-1.2,1.26-1.92,1.75c-.9.59-1,.89-1.92,1.25a3,3,0,0,0-.84.42c-1.26,1-2.1,1.08-3.84,1-.36,0-.66-.29-1.08.06-.18.19-.36-.12-.48-.3-.24-.47-.42-1-.66-1.43-.12-.31-.18-.61-.6-.43-.24.12-.3,0-.42-.18a8.46,8.46,0,0,1-1.56-3.6,37.87,37.87,0,0,1-.24-5.21c.06-2.95-.12-5.94.06-8.88.18-2.46.3-4.86.42-7.32a2.37,2.37,0,0,0-.12-1.26c-.84.18-3.06.24-3.06-.12.6-.06,1.68-.42,2.4-.48a7.6,7.6,0,0,0-2.88.12c-1.26,0-1.62-.06-1.62-1.44,1.26-.12,3.3-.6,4.62-.72.42,0,.36-.06.36-.48a10.91,10.91,0,0,0,0-2,8.86,8.86,0,0,1,.3-2.76c.42-.3.18,1.26.6,1.92a4.9,4.9,0,0,0,.24-2.76,1.61,1.61,0,0,1,.84-1.74A5.5,5.5,0,0,1,620.07,708.61Zm1,31.26c0,.23.3.17.36.35.18.42,1.56.84.78.07s-1.26-2.23-1.5-2.23A12,12,0,0,0,621.09,739.87Z"/><path class="cls-9" d="M636.81,716.89c0,.3-.36.48-.36.84.48.06,1.08.48,1.2-.48,0-.18.24-.12.36-.18a6.78,6.78,0,0,1,4.49,1.5.26.26,0,0,1,.19.24,9.75,9.75,0,0,0,1.92,2.58,9.22,9.22,0,0,1,1.19,3.23,16.33,16.33,0,0,1,.24,1.81,25.74,25.74,0,0,0,.49,3.78,5,5,0,0,1-.36,3.36,3.11,3.11,0,0,0-.37,1.5,6.5,6.5,0,0,1-1.07,3.65c-.54,1-1.08,1.92-1.69,2.95a3.62,3.62,0,0,1-2.09,1.25c-1-1,.48-1,.59-1.5-.35-.17-.71.06-1,.18a30.64,30.64,0,0,1-3,1.38,2.31,2.31,0,0,1-2.4-.06,20.82,20.82,0,0,1-3.54-2.58,9.66,9.66,0,0,1-2.58-4.5,24.59,24.59,0,0,1-.3-7,21.71,21.71,0,0,1,1.2-6.48c.78-2.22,1.92-4,4.14-4.86a9.27,9.27,0,0,0,1.32-.72A1.28,1.28,0,0,1,636.81,716.89Zm-.3,3c-.18.84-.6,1.56-.78,2.4a6.15,6.15,0,0,0-.42,2.58,18.66,18.66,0,0,1,.06,3.66,9.35,9.35,0,0,0-.06,2.58c0,.66.06,1.38,0,2a9.92,9.92,0,0,0,1.44,6.23c.12.24.18.54.54.42.83-.3,1,.37,1.26,1a1.38,1.38,0,0,0,1-.72,8,8,0,0,0,1.8-4.5c.24-2.46.36-4.92.42-7.37l-.12-5a4.13,4.13,0,0,0-1.56-3.18,1.39,1.39,0,0,0-1.68-.3A3,3,0,0,1,636.51,719.89Zm3.42,23.69a.38.38,0,0,0,.3-.54c-.06-.29-.24-.17-.54-.12s-.36.12-.54.48A1.85,1.85,0,0,0,639.93,743.58Z"/><path class="cls-9" d="M671.19,718.39a2.7,2.7,0,0,0,.72.36,3.65,3.65,0,0,1,2.76,3.18,1.75,1.75,0,0,0,.12.54,2.36,2.36,0,0,1,.36.12,14.94,14.94,0,0,0,0-3.66c-.12-.84.12-1.14.9-.9a5.19,5.19,0,0,1,2.1,1.32l.36.36c.48,0,.18-.48.54-.66.78.54,1.68,1.08,1.8,2.28l.18,3.18c.18,2.57.24,5.16.42,7.74a39.49,39.49,0,0,1,.12,4.62,3,3,0,0,0,.24,1.43c.36.07.48-.3.72-.42a26.53,26.53,0,0,0,4.62-3c.36-.25.42-.25,1.32-.25a5.77,5.77,0,0,1-2.22,2.76c-.9.72-.78.66-1.74,1.38a14.36,14.36,0,0,1-1.68,1.2,3.25,3.25,0,0,0-1,.72,1.11,1.11,0,0,0-.36,1.32,3.88,3.88,0,0,1-.12,3.06,2.81,2.81,0,0,0-.12,1,11.14,11.14,0,0,1-1,5.22,15.5,15.5,0,0,1-3.3,5.16,2,2,0,0,1-1.56.9,3.86,3.86,0,0,0-1.62.72,29,29,0,0,1-3.12,1.38c-1.2.42-1.5.36-2.22-.84a.83.83,0,0,0-.66-.36,2.67,2.67,0,0,1-2.16-1.86,9.63,9.63,0,0,1-.48-2.28,5.23,5.23,0,0,1,1-3.9,27.32,27.32,0,0,1,3.78-4.5,19.33,19.33,0,0,1,2.34-1.5,23.18,23.18,0,0,0,2.28-1.8c.54-.48,1.44-.59,1.62-1.26a5.6,5.6,0,0,0-.12-2,7.17,7.17,0,0,0-.24-1.5,2,2,0,0,0-1,.9c-.36.79-1,1.33-1.38,2.17a2.7,2.7,0,0,1-1.26,1l-1.62.72a3,3,0,0,1-2.46-.48c-.72-.36-1.38-.84-2.1-1.13a2.39,2.39,0,0,1-1-1.15,17.31,17.31,0,0,1-2-5.93,22.8,22.8,0,0,1,1.74-12.3,10,10,0,0,1,1.8-2.94c.42-.42.72-1,1.5-.48.12.12.48-.06.72-.12A2.35,2.35,0,0,1,671.19,718.39Zm4.44,26.33a9.4,9.4,0,0,1-2.52,1.5c-.06,0-.12.18-.18.24a4.2,4.2,0,0,1-.6.48,13.87,13.87,0,0,0-3.24,2.64,14.29,14.29,0,0,0-2,2.94,2.72,2.72,0,0,0,.06,3,3.53,3.53,0,0,0,3.36,1.2,1.26,1.26,0,0,0,.36-.24,12.87,12.87,0,0,0,1.08-1.44,22.41,22.41,0,0,1,2.34-3,7.88,7.88,0,0,0,1.86-3.12c.42-1.44.12-2.82.3-4.38A2.13,2.13,0,0,0,675.63,744.72Zm-5.52-23.45a7,7,0,0,0-.42,2.94,21.32,21.32,0,0,1,.12,4.37,14.9,14.9,0,0,0-.12,2.83,3.55,3.55,0,0,1-.6,2.34,2.18,2.18,0,0,0-.54,1.5,3.5,3.5,0,0,0,.66,2.63c0-.47-.06-1-.06-1.43a3.26,3.26,0,0,1,.12-1.08c.12-.25.24-.42.48-.42s.3.3.3.54a3.49,3.49,0,0,0,.42,2c.66,1.07.9,1.19,1.92.47a12.23,12.23,0,0,0,2.88-2.39,1.33,1.33,0,0,0,.42-1.2l-.18-5.52c0-.31,0-.72-.24-.85-.6-.29-.66-.83-.84-1.37-.6-1.5-1.68-2.82-2.1-4.44a1.9,1.9,0,0,0-1.2-1.32C670.59,720.67,670.29,720.67,670.11,721.27Z"/><path class="cls-9" d="M692.91,717.31c-.12.42-1.15.3-1.27.72.24.24.54.12.78-.06a4.18,4.18,0,0,1,4-.42c.3.12.66.24.91.36a11.93,11.93,0,0,1,1.19.6l.66.42c.84.54,2,3,2.16,4.92a8.49,8.49,0,0,1-.48,3.84c-.24.6-.36,1.31-1.14,1.56-.24.06-.24.24-.3.42a16.64,16.64,0,0,1-2.82,1.68c-.66.23-1.19.6-1.8.84a17.58,17.58,0,0,0-2.46,1.38,16.07,16.07,0,0,0,1.5,3.84c.49.65.91.77,1.38,1.43a1.69,1.69,0,0,0,2.28.72c3-1.14,4-1,6.72-2.81.9-.61.9-.84,2-1.14a7.65,7.65,0,0,0,1.5-.9c.18-.13.36-.37.72-.25.18,1.33-.6,1.45-1.26,2a2.71,2.71,0,0,0-.84.79,26.15,26.15,0,0,1-3.12,2.16,6.7,6.7,0,0,0-2,1.19c-.3.19-1.2.66-1.5.9-1,.67-2,.67-2.46,1-1.14.84-2.93.84-4.31.9a3.84,3.84,0,0,1-2.7-1.08,10.51,10.51,0,0,1-3.13-4.5,2.6,2.6,0,0,1-.17-.59,10.42,10.42,0,0,1-.54-2.34c0-.49-.07-2.16-.12-3.18a26.06,26.06,0,0,1,.54-6.54,14.93,14.93,0,0,1,2.33-6.12,4.89,4.89,0,0,1,2.88-1.86C692.18,717.25,692.79,717.07,692.91,717.31ZM691,738.54a6.05,6.05,0,0,0,2.46,2.71.77.77,0,0,1,.18-.25,20.39,20.39,0,0,0-1.43-1.79c-.61-.61-.67-1.45-1.15-2.17A1.19,1.19,0,0,0,691,738.54Zm2.1-18.41a7.16,7.16,0,0,0-1,3.48c-.18,2.1.12,4.32-.12,6.35a6.39,6.39,0,0,0,.06,1.5c.42-.05,1-.71,1.26-.84.91-.59,1.56-1.25,2.34-1.73,1-.66.9-1.56,1.2-2.94.06-.18.06-.66.12-.84a5.9,5.9,0,0,0-.18-2.58,14.24,14.24,0,0,1-.6-2,2,2,0,0,0-.72-1.26C694.22,718.63,694,719,693.14,720.13Zm1.8,21a1.17,1.17,0,0,0-1-.83A1.17,1.17,0,0,0,694.94,741.12Z"/><path class="cls-9" d="M711.14,708.61a38.54,38.54,0,0,1,.78,4,17.83,17.83,0,0,0,2.4-.18c.42-.06,2.7-.36,1.38,0a15.66,15.66,0,0,0,2.52-.24c.72,0,2.76.48,1.68,1-.42.18.78.36,1.08.66-.84.9-2.7.9-4,1.14-.42.06-1.14-.06-1.92.06a9.41,9.41,0,0,1-2,.24c-.9-.12-1,.06-.9,1,.06,2.22.42,4.32.54,6.48a42.78,42.78,0,0,1,.18,5.52,58,58,0,0,0,.54,6.48c.06,1.26.24,2.52.36,3.77a2.81,2.81,0,0,0,1.38,1.92.47.47,0,0,0,.6.07l1.2-.61c1.68-.84,3.12-2,3.9-2,.48,0,.24,1.32-.72,1.86s-1.2,1.26-1.92,1.75c-.9.59-1,.89-1.92,1.25a3,3,0,0,0-.84.42c-1.26,1-2.1,1.08-3.84,1-.36,0-.66-.29-1.08.06-.18.19-.36-.12-.48-.3-.24-.47-.42-1-.66-1.43-.12-.31-.18-.61-.6-.43-.24.12-.3,0-.42-.18a8.46,8.46,0,0,1-1.56-3.6,37.87,37.87,0,0,1-.24-5.21c.06-2.95-.12-5.94.06-8.88.18-2.46.3-4.86.42-7.32a2.37,2.37,0,0,0-.12-1.26c-.84.18-3.06.24-3.06-.12.6-.06,1.68-.42,2.4-.48a7.6,7.6,0,0,0-2.88.12c-1.26,0-1.62-.06-1.62-1.44,1.26-.12,3.3-.6,4.62-.72.42,0,.36-.06.36-.48a10.91,10.91,0,0,0,0-2,8.86,8.86,0,0,1,.3-2.76c.42-.3.18,1.26.6,1.92a4.9,4.9,0,0,0,.24-2.76,1.61,1.61,0,0,1,.84-1.74A5.5,5.5,0,0,1,711.14,708.61Zm1,31.26c0,.23.3.17.36.35.18.42,1.56.84.78.07s-1.26-2.23-1.5-2.23A12,12,0,0,0,712.16,739.87Z"/><path class="cls-9" d="M738,705.43a7,7,0,0,0,1.26,1.44c.18.12.24.42.3.66a28,28,0,0,1,.54,4.44c-.18,3,.12,6,0,9,0,.12,0,.24.24.36a15.28,15.28,0,0,1,6.36-3.24,2.32,2.32,0,0,1,3,1.08c.42.06.18-.54.6-.42.24.12.42.24.42.48a2.69,2.69,0,0,0,.24,1.2c.12.24.18.54.48.6.66.12.72.66.78,1.08a32.24,32.24,0,0,1,.18,8c0,.13-.06.25,0,.3a8.59,8.59,0,0,1-.12,3.91,15.65,15.65,0,0,1-1,4,14.28,14.28,0,0,1-2.1,3.24,5.11,5.11,0,0,1-2.52,1.56,1.12,1.12,0,0,1-.78.07c-.9-.55-1.92-.42-2.82-.91a2.84,2.84,0,0,1-.78-.66c-.42-.48-.66-1.19-1.26-1.62-.54,1,.12,2.16-.54,3.06-.6.13-.48-.54-.84-.71-.06.35,0,.71-.36,1-1-.66-1.86-1.74-3.06-2.22-.3.25,0,.72-.42,1a1.6,1.6,0,0,1-.9-1.67,31.62,31.62,0,0,0-.24-3.37,82.81,82.81,0,0,1,0-8.63c.06-1.2,0-2.4,0-3.6.06-4.14.06-8.28.06-12.36,0-1.8-.06-3.54,0-5.28,0-1.08.06-1.08,1-1.38a5.66,5.66,0,0,0,1.38-.6A.62.62,0,0,1,738,705.43Zm5.46,15.6a14.79,14.79,0,0,0-2.46,2.28,3.12,3.12,0,0,0-.84,2.22c0,2,.42,4,.3,6.05-.06,1.33.36,2.59.3,3.91-.06,1,0,1.92,0,2.93,1,.3,1.86.91,2.94,1.38a11.42,11.42,0,0,0,1.44-2.63,22.85,22.85,0,0,0,1.32-6,55.89,55.89,0,0,0,.42-8.4c0-.66-.18-1.32-.24-2-.06-.24-.12-.48-.42-.48A5.41,5.41,0,0,0,743.48,721Z"/><path class="cls-9" d="M763,717.31c-.12.42-1.14.3-1.26.72.24.24.54.12.78-.06a4.18,4.18,0,0,1,4-.42c.3.12.66.24.9.36a11.15,11.15,0,0,1,1.2.6l.66.42c.84.54,2,3,2.16,4.92a8.49,8.49,0,0,1-.48,3.84c-.24.6-.36,1.31-1.14,1.56-.24.06-.24.24-.3.42a16.64,16.64,0,0,1-2.82,1.68c-.66.23-1.2.6-1.8.84a17.58,17.58,0,0,0-2.46,1.38,15.66,15.66,0,0,0,1.5,3.84c.48.65.9.77,1.38,1.43a1.69,1.69,0,0,0,2.28.72c3-1.14,4-1,6.72-2.81.9-.61.9-.84,2-1.14a7.65,7.65,0,0,0,1.5-.9c.18-.13.36-.37.72-.25.18,1.33-.6,1.45-1.26,2a2.71,2.71,0,0,0-.84.79,26.15,26.15,0,0,1-3.12,2.16,6.7,6.7,0,0,0-2,1.19c-.3.19-1.2.66-1.5.9-1,.67-2,.67-2.46,1-1.14.84-2.94.84-4.32.9a3.86,3.86,0,0,1-2.7-1.08,10.49,10.49,0,0,1-3.12-4.5,3.4,3.4,0,0,1-.18-.59,11,11,0,0,1-.54-2.34c0-.49-.06-2.16-.12-3.18a26.53,26.53,0,0,1,.54-6.54,15,15,0,0,1,2.34-6.12,4.86,4.86,0,0,1,2.88-1.86C762.26,717.25,762.86,717.07,763,717.31Zm-1.86,21.23a6,6,0,0,0,2.46,2.71.77.77,0,0,1,.18-.25,22.54,22.54,0,0,0-1.44-1.79c-.6-.61-.66-1.45-1.14-2.17A1.18,1.18,0,0,0,761.12,738.54Zm2.1-18.41a7.05,7.05,0,0,0-1,3.48c-.18,2.1.12,4.32-.12,6.35a6.39,6.39,0,0,0,.06,1.5c.42-.05,1-.71,1.26-.84.9-.59,1.56-1.25,2.34-1.73,1-.66.9-1.56,1.2-2.94.06-.18.06-.66.12-.84a5.9,5.9,0,0,0-.18-2.58,14.24,14.24,0,0,1-.6-2,2,2,0,0,0-.72-1.26C764.3,718.63,764.06,719,763.22,720.13Zm1.8,21a1.18,1.18,0,0,0-1-.83A1.16,1.16,0,0,0,765,741.12Z"/><path class="cls-9" d="M797.6,704.17A31.75,31.75,0,0,1,799,710c.12,1.08.18,1.08,1.32.84a11.65,11.65,0,0,1,1.44-.12,20.9,20.9,0,0,1,5.4.18c.48.12,1.08.18,1.26,1a8,8,0,0,1-2.4.3,2.15,2.15,0,0,0-2,.42,3.25,3.25,0,0,1-1.44.48,11.17,11.17,0,0,0-2,.24c-.9.18-1.14.54-1.08,1.44.18,2-.12,7-.18,9.06a33.63,33.63,0,0,0-.12,3.48c.12,1.5-.24,3.06-.06,4.56.06.42.06.78.12,1.13a15.31,15.31,0,0,1,.36,4.68c-.18,1.5.66,1.92,1.44,3.07.3.35,1,.29,1.38.17a9.55,9.55,0,0,0,2.34-.9c.78-.48,2.46-1.38,3.24-1.92s.3,2-.72,2.58a6.71,6.71,0,0,0-1.38.78c-.54.37-1.38.79-1.86,1.2-1.08,1-1.56,1-3.06,1a4.45,4.45,0,0,0-1.26-.06,4.81,4.81,0,0,1-3.18-1.19A19.1,19.1,0,0,1,794.9,741a4.52,4.52,0,0,1-1-2.63,21.55,21.55,0,0,1-.18-2.76c-.06-1.92-.06-3.84-.12-5.76a1.72,1.72,0,0,0-.18-1.08.49.49,0,0,1-.12-.31c-.12-2.21-.84-6.29-.42-8.57a47.11,47.11,0,0,0,.12-5c.06-.42-.12-.66-.54-.6s-2.28.18-2.52-.24c.24-.42,2.16-.36,2.4-.66-.48-.42-1-.24-1.56-.12a20.34,20.34,0,0,1-3.42.72c-.84,0-1.32.48-2.22.42-.54,0-.78.3-.72.84.24,2.4.12,7.26.06,9.6-.06,3.48.3,7,.3,10.44.06,1.62.36,3.29.54,4.92a3.13,3.13,0,0,1-.84,3.17,4.36,4.36,0,0,0-1,1.45c-1.2-.49-.84.65-1,1.19-1.62-1.26-1.68-3-1.92-4.73s-.54-3.25-.78-4.87a4.62,4.62,0,0,0-.12,2.7,18.16,18.16,0,0,1,.36,4.8.76.76,0,0,1-.66-.66,7,7,0,0,0-.54-2.7,22.53,22.53,0,0,1-.36-5.33c.06-1-.18-2-.12-3,0-2.76-.78-5.46-.66-8.28.06-1.14.18-4.2.36-5.34a19.81,19.81,0,0,0,.06-3.24,15.16,15.16,0,0,0-2.94.36c-1.32.06-1.38.3-2.64-.24a2.83,2.83,0,0,1-.66-1.5c.3-.36.54-.66,1.08-.66,1.2,0,1.32-.24,2.46-.18a4,4,0,0,0,1.86-.24c.9-.24.9-.24,1-1.08a34.89,34.89,0,0,0,.12-3.54,10.09,10.09,0,0,1,.66-2.4c.12-.48.48-.54.9-.24a2.24,2.24,0,0,1,.36.42c.24.66.66,1.5,1.14,1.62,1.74.48,1.92.84,2.1,2.16a9.59,9.59,0,0,0,.3,1.26c.36.72.18.84,1.14.78a27.53,27.53,0,0,1,3.36-.18c1.38,0,1.74-.3,3-.24a14,14,0,0,0,1.56-.24,3.69,3.69,0,0,0,0-1.62c-.24-1.74.48-2.16,1.08-.36a4.55,4.55,0,0,0,.06-1.56,1.56,1.56,0,0,1,.36-1.32,4.34,4.34,0,0,0,.72-2.88c0-.84,0-.78.84-.66A1.79,1.79,0,0,1,797.6,704.17Zm.78,35.39c-.12-1.56.18-3.11-.06-4.68C797.48,736.45,798,738,798.38,739.56Zm6.78-26.93a2,2,0,0,1,1.56-.12C806.06,712.93,806.06,712.93,805.16,712.63Zm2.22.06c0-.3.18-.36.9-.06A.73.73,0,0,1,807.38,712.69Z"/><path class="cls-9" d="M814.64,717.31c-.12.42-1.14.3-1.26.72.24.24.54.12.78-.06a4.18,4.18,0,0,1,4-.42c.3.12.66.24.9.36a11.15,11.15,0,0,1,1.2.6l.66.42c.84.54,2,3,2.16,4.92a8.49,8.49,0,0,1-.48,3.84c-.24.6-.36,1.31-1.14,1.56-.24.06-.24.24-.3.42a16.64,16.64,0,0,1-2.82,1.68c-.66.23-1.2.6-1.8.84a17.58,17.58,0,0,0-2.46,1.38,15.66,15.66,0,0,0,1.5,3.84c.48.65.9.77,1.38,1.43a1.69,1.69,0,0,0,2.28.72c3-1.14,4-1,6.72-2.81.9-.61.9-.84,2-1.14a7.65,7.65,0,0,0,1.5-.9c.18-.13.36-.37.72-.25.18,1.33-.6,1.45-1.26,2a2.71,2.71,0,0,0-.84.79,26.15,26.15,0,0,1-3.12,2.16,6.7,6.7,0,0,0-2,1.19c-.3.19-1.2.66-1.5.9-1,.67-2,.67-2.46,1-1.14.84-2.94.84-4.32.9a3.86,3.86,0,0,1-2.7-1.08,10.49,10.49,0,0,1-3.12-4.5,3.4,3.4,0,0,1-.18-.59,11,11,0,0,1-.54-2.34c0-.49-.06-2.16-.12-3.18a26.53,26.53,0,0,1,.54-6.54,15,15,0,0,1,2.34-6.12,4.86,4.86,0,0,1,2.88-1.86C813.92,717.25,814.52,717.07,814.64,717.31Zm-1.86,21.23a6,6,0,0,0,2.46,2.71.77.77,0,0,1,.18-.25,22.54,22.54,0,0,0-1.44-1.79c-.6-.61-.66-1.45-1.14-2.17A1.18,1.18,0,0,0,812.78,738.54Zm2.1-18.41a7.05,7.05,0,0,0-1,3.48c-.18,2.1.12,4.32-.12,6.35a6.39,6.39,0,0,0,.06,1.5c.42-.05,1-.71,1.26-.84.9-.59,1.56-1.25,2.34-1.73,1-.66.9-1.56,1.2-2.94.06-.18.06-.66.12-.84a5.9,5.9,0,0,0-.18-2.58,14.24,14.24,0,0,1-.6-2,2,2,0,0,0-.72-1.26C816,718.63,815.72,719,814.88,720.13Zm1.8,21a1.18,1.18,0,0,0-1-.83A1.16,1.16,0,0,0,816.68,741.12Z"/><path class="cls-9" d="M833.24,720a1.11,1.11,0,0,0,.12.42c0,.06.06.12.12.24.78-.6,1.5-1.26,2.28-1.86a5.17,5.17,0,0,1,7.2.72.91.91,0,0,1-1.32.42c-.42-.18-.66-.18-.9.12-.42.48-1.08.18-1.38.84l-.36.3a6.25,6.25,0,0,0-3.78,3.42c-.3.72-.18,1.38-.66,2a1.94,1.94,0,0,0-.42,1.56c.06,1.08.12,2.21.12,3.29.06,2.41.3,4.75.36,7.08.06,1,0,2,0,3a8.12,8.12,0,0,1-1.14,2.76c-.78-1-1.44-1-2.34-.12-.42.42-.66-.12-1-.06s0,.36-.06.55h-.24a5.91,5.91,0,0,1-1.74-4.38,54.36,54.36,0,0,0-.36-7.62,15.73,15.73,0,0,1,.06-3.36,22.61,22.61,0,0,0,.18-4.5c0-.66.12-1.32.12-2a11.25,11.25,0,0,0-.3-3.48.33.33,0,0,1,.18-.54c.3-.12.3.24.48.36.54-.3.36-.84.36-1.32.48-.36,1.08-.3,1.44-.78.12-.18.36-.12.54,0C832,717.73,833.18,718.33,833.24,720Zm9.3,1.26c-.06.06-.18.12-.18.06a2.57,2.57,0,0,0-2.4.18,2.7,2.7,0,0,1-1.56.72c.18-.48.6-.54.84-.78l.36-.3c.36-.06.6-.36,1-.6C841.58,720.13,841.94,720.25,842.54,721.21Z"/><path class="cls-9" d="M852.38,701.23a16.2,16.2,0,0,1,.24,6.36,42.51,42.51,0,0,0-.6,6.78c.06,1.56,0,3.06.12,4.56a9.1,9.1,0,0,1-.18,1.26,20.39,20.39,0,0,0-.18,4.68,17,17,0,0,1-.54,4.92,5.29,5.29,0,0,1-.6,2c-.12.24-.18.47-.6.36s-.3.42-.54.65-.66-.59-.66-1.07c0-.19-.12-.36-.24-.31-.54.37-.54-.11-.6-.35a3.32,3.32,0,0,0-.6-1.32,4.53,4.53,0,0,1-.54-2.82,1.32,1.32,0,0,1,.06-.48,4.54,4.54,0,0,0-.6-2.58c-.6-.9-.24-1.8-.24-2.76-.06-2-.3-4.14-.42-6.24a13.9,13.9,0,0,0-.3-3.54,3.69,3.69,0,0,1-.12-1.14l-.18-3.18c-.06-1.32.24-2.7.06-4.08-.12-.84,1.08-1.14,1.32-2,.18-.66.84-.6,1-.12.36,1.86,1.2,1.74.84-.6-.18-1.26.84-1.2,1.74-1.08A2.71,2.71,0,0,1,852.38,701.23ZM850.28,737a7.44,7.44,0,0,1,2.34,2,.48.48,0,0,1,.18.47,1.68,1.68,0,0,0,0,1.21,1,1,0,0,1-.6,1.08c-1.08.35-2,1.5-3.18,1.08-.66,0-1.32.3-1.74-.07s-.3-1.08-.42-1.55c-.06-.3-.18-.61-.24-.91a1.66,1.66,0,0,1,.54-1.8,9.88,9.88,0,0,1,2.28-1.62A.73.73,0,0,1,850.28,737Z"/></g></svg>
